<?xml version="1.0" encoding="UTF-8" standalone="no"?>
<!-- Created with Inkscape (http://www.inkscape.org/) -->

<svg
   xmlns:dc="http://purl.org/dc/elements/1.1/"
   xmlns:cc="http://creativecommons.org/ns#"
   xmlns:rdf="http://www.w3.org/1999/02/22-rdf-syntax-ns#"
   xmlns:svg="http://www.w3.org/2000/svg"
   xmlns="http://www.w3.org/2000/svg"
   xmlns:sodipodi="http://sodipodi.sourceforge.net/DTD/sodipodi-0.dtd"
   xmlns:inkscape="http://www.inkscape.org/namespaces/inkscape"
   width="295"
   height="40"
   id="svg2"
   version="1.1"
   inkscape:version="0.91 r13725"
   sodipodi:docname="AlosIndustrials - vector.svg">
  <defs
     id="defs4" />
  <sodipodi:namedview
     id="base"
     pagecolor="#ffffff"
     bordercolor="#666666"
     borderopacity="1.0"
     inkscape:pageopacity="0.0"
     inkscape:pageshadow="2"
     inkscape:zoom="1.979899"
     inkscape:cx="149.94147"
     inkscape:cy="7.5938298"
     inkscape:document-units="px"
     inkscape:current-layer="text2985"
     showgrid="false"
     inkscape:window-width="1366"
     inkscape:window-height="746"
     inkscape:window-x="-8"
     inkscape:window-y="-8"
     inkscape:window-maximized="1" />
  <metadata
     id="metadata7">
    <rdf:RDF>
      <cc:Work
         rdf:about="">
        <dc:format>image/svg+xml</dc:format>
        <dc:type
           rdf:resource="http://purl.org/dc/dcmitype/StillImage" />
        <dc:title />
      </cc:Work>
    </rdf:RDF>
  </metadata>
  <g
     inkscape:label="Capa 1"
     inkscape:groupmode="layer"
     id="layer1"
     transform="translate(0,-1012.3622)">
    <g
       transform="scale(1.0134171,0.98676054)"
       style="font-style:normal;font-weight:normal;font-size:39.39364624px;line-height:125%;font-family:Sans;letter-spacing:0px;word-spacing:0px;opacity:0.5;fill:#000000;fill-opacity:1;stroke:none"
       id="text3003">
      <path
         d="m 14.010773,1051.5112 10.596891,0 -6.421164,-16.506 -10.9120404,27.9301 -3.8211837,0 13.1574781,-33.0906 3.190885,0 13.236265,33.0906 -3.860577,0 -3.151492,-7.8787 -13.433233,0 1.418171,-3.5454 z"
         style="font-style:normal;font-variant:normal;font-weight:normal;font-stretch:normal;font-family:Zekton;-inkscape-font-specification:Zekton;text-align:center;text-anchor:middle;fill:#000000;fill-opacity:1"
         id="path3369" />
      <path
         d="m 35.420604,1029.8447 3.545428,0 0,33.0906 -3.545428,0 0,-33.0906 z"
         style="font-style:normal;font-variant:normal;font-weight:normal;font-stretch:normal;font-family:Zekton;-inkscape-font-specification:Zekton;text-align:center;text-anchor:middle;fill:#000000;fill-opacity:1"
         id="path3371" />
      <path
         d="m 58.247375,1059.3899 q 3.151492,0 3.151492,-3.0727 l 0,-9.9272 q 0,-3.1515 -3.151492,-3.1515 l -7.878729,0 q -3.151491,0 -3.151491,3.1515 l 0,9.8484 q 0,3.1515 3.151491,3.1515 l 7.878729,0 z M 43.671726,1046.39 q 0,-6.6969 6.69692,-6.6969 l 7.878729,0 q 6.69692,0 6.69692,6.6969 l 0,9.9272 q 0,6.6181 -6.69692,6.6181 l -7.878729,0 q -6.69692,0 -6.69692,-6.6969 l 0,-9.8484 z m 5.948441,-16.8605 9.454475,4.7273 0,3.9393 -9.454475,-4.7272 0,-3.9394 z"
         style="font-style:normal;font-variant:normal;font-weight:normal;font-stretch:normal;font-family:Zekton;-inkscape-font-specification:Zekton;text-align:center;text-anchor:middle;fill:#000000;fill-opacity:1"
         id="path3373" />
      <path
         d="m 74.42339,1053.0869 q -6.69692,0 -6.69692,-6.6969 0,-6.6969 6.69692,-6.6969 l 10.636285,0 0,3.5454 -10.636285,0 q -3.151492,0 -3.151492,3.1515 0,3.1515 3.151492,3.1515 l 5.909047,0 q 6.69692,0 6.69692,6.6969 0,6.6969 -6.69692,6.6969 l -10.990827,0 0,-3.5454 10.990827,0 q 3.151492,0 3.151492,-3.1515 0,-3.1515 -3.151492,-3.1515 l -5.909047,0 z"
         style="font-style:normal;font-variant:normal;font-weight:normal;font-stretch:normal;font-family:Zekton;-inkscape-font-specification:Zekton;text-align:center;text-anchor:middle;fill:#000000;fill-opacity:1"
         id="path3375" />
      <path
         d="m 100.43551,1029.8447 3.54543,0 0,33.0906 -3.54543,0 0,-33.0906 z"
         style="font-style:normal;font-variant:normal;font-weight:normal;font-stretch:normal;font-family:Zekton;-inkscape-font-specification:Zekton;text-align:center;text-anchor:middle;fill:#000000;fill-opacity:1"
         id="path3377" />
      <path
         d="m 129.17133,1062.9353 -3.54543,0 0,-16.5453 q 0,-3.1515 -3.15149,-3.1515 l -11.03022,0 0,19.6968 -3.54543,0 0,-23.2422 14.57565,0 q 6.69692,0 6.69692,6.6969 l 0,16.5453 z"
         style="font-style:normal;font-variant:normal;font-weight:normal;font-stretch:normal;font-family:Zekton;-inkscape-font-specification:Zekton;text-align:center;text-anchor:middle;fill:#000000;fill-opacity:1"
         id="path3379" />
      <path
         d="m 150.86246,1029.8447 3.54542,0 0,26.3937 q 0,6.6969 -6.69692,6.6969 l -7.87873,0 q -6.69692,0 -6.69692,-6.6969 l 0,-9.8484 q 0,-6.6969 6.69692,-6.6969 l 8.66661,0 0,3.5454 -8.66661,0 q -3.15149,0 -3.15149,3.1515 l 0,9.8484 q 0,3.1515 3.15149,3.1515 l 7.87873,0 q 3.1515,0 3.1515,-3.1515 l 0,-26.3937 z"
         style="font-style:normal;font-variant:normal;font-weight:normal;font-stretch:normal;font-family:Zekton;-inkscape-font-specification:Zekton;text-align:center;text-anchor:middle;fill:#000000;fill-opacity:1"
         id="path3381" />
      <path
         d="m 172.94752,1059.3899 q 3.15149,0 3.15149,-3.0727 l 0,-16.6241 3.54543,0 0,16.6241 q 0,6.6181 -6.69692,6.6181 l -7.87873,0 q -6.69692,0 -6.69692,-6.6969 l 0,-16.5453 3.54543,0 0,16.5453 q 0,3.1515 3.15149,3.1515 l 7.87873,0 z"
         style="font-style:normal;font-variant:normal;font-weight:normal;font-stretch:normal;font-family:Zekton;-inkscape-font-specification:Zekton;text-align:center;text-anchor:middle;fill:#000000;fill-opacity:1"
         id="path3383" />
      <path
         d="m 189.91141,1053.0869 q -6.69692,0 -6.69692,-6.6969 0,-6.6969 6.69692,-6.6969 l 10.63629,0 0,3.5454 -10.63629,0 q -3.15149,0 -3.15149,3.1515 0,3.1515 3.15149,3.1515 l 5.90905,0 q 6.69692,0 6.69692,6.6969 0,6.6969 -6.69692,6.6969 l -10.99083,0 0,-3.5454 10.99083,0 q 3.15149,0 3.15149,-3.1515 0,-3.1515 -3.15149,-3.1515 l -5.90905,0 z"
         style="font-style:normal;font-variant:normal;font-weight:normal;font-stretch:normal;font-family:Zekton;-inkscape-font-specification:Zekton;text-align:center;text-anchor:middle;fill:#000000;fill-opacity:1"
         id="path3385" />
      <path
         d="m 204.89329,1039.6931 1.96969,0 0,-9.8484 3.26967,0 0,9.8484 4.21512,0 0,3.5454 -4.21512,0 0,19.6968 -3.26967,0 0,-19.6968 -1.96969,0 0,-3.5454 z"
         style="font-style:normal;font-variant:normal;font-weight:normal;font-stretch:normal;font-family:Zekton;-inkscape-font-specification:Zekton;text-align:center;text-anchor:middle;fill:#000000;fill-opacity:1"
         id="path3387" />
      <path
         d="m 220.62306,1062.9353 -3.54542,0 0,-16.5453 q 0,-6.6969 6.69692,-6.6969 l 2.75755,0 0,3.5454 -2.75755,0 q -3.1515,0 -3.1515,3.1515 l 0,16.5453 z"
         style="font-style:normal;font-variant:normal;font-weight:normal;font-stretch:normal;font-family:Zekton;-inkscape-font-specification:Zekton;text-align:center;text-anchor:middle;fill:#000000;fill-opacity:1"
         id="path3389" />
      <path
         d="m 229.69591,1029.8447 4.72723,0 0,4.806 -4.72723,0 0,-4.806 z m 0.6303,9.8484 3.54542,0 0,23.2422 -3.54542,0 0,-23.2422 z"
         style="font-style:normal;font-variant:normal;font-weight:normal;font-stretch:normal;font-family:Zekton;-inkscape-font-specification:Zekton;text-align:center;text-anchor:middle;fill:#000000;fill-opacity:1"
         id="path3391" />
      <path
         d="m 239.96596,1043.2385 0,-3.5454 12.60597,0 q 6.69692,0 6.69692,6.6969 l 0,9.8484 q 0,6.6969 -6.69692,6.6969 l -7.87873,0 q -6.69692,0 -6.69692,-6.6969 l 0,-0.079 q 0,-6.6181 6.69692,-6.6181 l 8.6666,0 0,3.5454 -8.6666,0 q -3.1515,0 -3.1515,3.0727 l 0,0.079 q 0,3.1515 3.1515,3.1515 l 7.87873,0 q 3.15149,0 3.15149,-3.1515 l 0,-9.8484 q 0,-3.1515 -3.15149,-3.1515 l -12.60597,0 z"
         style="font-style:normal;font-variant:normal;font-weight:normal;font-stretch:normal;font-family:Zekton;-inkscape-font-specification:Zekton;text-align:center;text-anchor:middle;fill:#000000;fill-opacity:1"
         id="path3393" />
      <path
         d="m 263.24206,1029.8447 3.54543,0 0,33.0906 -3.54543,0 0,-33.0906 z"
         style="font-style:normal;font-variant:normal;font-weight:normal;font-stretch:normal;font-family:Zekton;-inkscape-font-specification:Zekton;text-align:center;text-anchor:middle;fill:#000000;fill-opacity:1"
         id="path3395" />
      <path
         d="m 277.00831,1053.0869 q -6.69692,0 -6.69692,-6.6969 0,-6.6969 6.69692,-6.6969 l 10.63628,0 0,3.5454 -10.63628,0 q -3.1515,0 -3.1515,3.1515 0,3.1515 3.1515,3.1515 l 5.90904,0 q 6.69692,0 6.69692,6.6969 0,6.6969 -6.69692,6.6969 l -10.99083,0 0,-3.5454 10.99083,0 q 3.15149,0 3.15149,-3.1515 0,-3.1515 -3.15149,-3.1515 l -5.90904,0 z"
         style="font-style:normal;font-variant:normal;font-weight:normal;font-stretch:normal;font-family:Zekton;-inkscape-font-specification:Zekton;text-align:center;text-anchor:middle;fill:#000000;fill-opacity:1"
         id="path3397" />
    </g>
    <g
       transform="scale(1.0134171,0.98676054)"
       style="font-style:normal;font-weight:normal;font-size:39.39364624px;line-height:125%;font-family:Sans;letter-spacing:0px;word-spacing:0px;fill:#ff0000;fill-opacity:1;stroke:none"
       id="text2985">
      <path
         d="m 12.53064,1049.991 10.596891,0 -6.421164,-16.5059 -10.9120405,27.9301 -3.8211837,0 13.1574782,-33.0907 3.190885,0 13.236265,33.0907 -3.860577,0 -3.151492,-7.8787 -13.433233,0 1.418171,-3.5455 z"
         style="font-style:normal;font-variant:normal;font-weight:normal;font-stretch:normal;font-family:Zekton;-inkscape-font-specification:Zekton;text-align:center;text-anchor:middle;fill:#ff0000"
         id="path3338" />
      <path
         d="m 33.940471,1028.3245 3.545428,0 0,33.0907 -3.545428,0 0,-33.0907 z"
         style="font-style:normal;font-variant:normal;font-weight:normal;font-stretch:normal;font-family:Zekton;-inkscape-font-specification:Zekton;text-align:center;text-anchor:middle;fill:#ff0000"
         id="path3340" />
      <path
         d="m 56.767242,1057.8698 q 3.151492,0 3.151492,-3.0727 l 0,-9.9272 q 0,-3.1515 -3.151492,-3.1515 l -7.878729,0 q -3.151492,0 -3.151492,3.1515 l 0,9.8484 q 0,3.1515 3.151492,3.1515 l 7.878729,0 z m -14.575649,-12.9999 q 0,-6.697 6.69692,-6.697 l 7.878729,0 q 6.69692,0 6.69692,6.697 l 0,9.9272 q 0,6.6181 -6.69692,6.6181 l -7.878729,0 q -6.69692,0 -6.69692,-6.6969 l 0,-9.8484 z m 5.948441,-16.8605 9.454475,4.7272 0,3.9394 -9.454475,-4.7273 0,-3.9393 z"
         style="font-style:normal;font-variant:normal;font-weight:normal;font-stretch:normal;font-family:Zekton;-inkscape-font-specification:Zekton;text-align:center;text-anchor:middle;fill:#ff0000"
         id="path3342" />
      <path
         d="m 72.943257,1051.5668 q -6.69692,0 -6.69692,-6.6969 0,-6.697 6.69692,-6.697 l 10.636284,0 0,3.5455 -10.636284,0 q -3.151492,0 -3.151492,3.1515 0,3.1515 3.151492,3.1515 l 5.909047,0 q 6.69692,0 6.69692,6.6969 0,6.6969 -6.69692,6.6969 l -10.990827,0 0,-3.5454 10.990827,0 q 3.151492,0 3.151492,-3.1515 0,-3.1515 -3.151492,-3.1515 l -5.909047,0 z"
         style="font-style:normal;font-variant:normal;font-weight:normal;font-stretch:normal;font-family:Zekton;-inkscape-font-specification:Zekton;text-align:center;text-anchor:middle;fill:#ff0000"
         id="path3344" />
      <path
         d="m 98.955375,1028.3245 3.545425,0 0,33.0907 -3.545425,0 0,-33.0907 z"
         style="font-style:normal;font-variant:normal;font-weight:normal;font-stretch:normal;font-family:Zekton;-inkscape-font-specification:Zekton;text-align:center;text-anchor:middle;fill:#ff0000"
         id="path3346" />
      <path
         d="m 127.69119,1061.4152 -3.54542,0 0,-16.5453 q 0,-3.1515 -3.1515,-3.1515 l -11.03022,0 0,19.6968 -3.54543,0 0,-23.2423 14.57565,0 q 6.69692,0 6.69692,6.697 l 0,16.5453 z"
         style="font-style:normal;font-variant:normal;font-weight:normal;font-stretch:normal;font-family:Zekton;-inkscape-font-specification:Zekton;text-align:center;text-anchor:middle;fill:#ff0000"
         id="path3348" />
      <path
         d="m 149.38232,1028.3245 3.54543,0 0,26.3938 q 0,6.6969 -6.69692,6.6969 l -7.87873,0 q -6.69692,0 -6.69692,-6.6969 l 0,-9.8484 q 0,-6.697 6.69692,-6.697 l 8.6666,0 0,3.5455 -8.6666,0 q -3.15149,0 -3.15149,3.1515 l 0,9.8484 q 0,3.1515 3.15149,3.1515 l 7.87873,0 q 3.15149,0 3.15149,-3.1515 l 0,-26.3938 z"
         style="font-style:normal;font-variant:normal;font-weight:normal;font-stretch:normal;font-family:Zekton;-inkscape-font-specification:Zekton;text-align:center;text-anchor:middle;fill:#ff0000"
         id="path3350" />
      <path
         d="m 171.46739,1057.8698 q 3.15149,0 3.15149,-3.0727 l 0,-16.6242 3.54543,0 0,16.6242 q 0,6.6181 -6.69692,6.6181 l -7.87873,0 q -6.69692,0 -6.69692,-6.6969 l 0,-16.5454 3.54543,0 0,16.5454 q 0,3.1515 3.15149,3.1515 l 7.87873,0 z"
         style="font-style:normal;font-variant:normal;font-weight:normal;font-stretch:normal;font-family:Zekton;-inkscape-font-specification:Zekton;text-align:center;text-anchor:middle;fill:#ff0000"
         id="path3352" />
      <path
         d="m 188.43128,1051.5668 q -6.69692,0 -6.69692,-6.6969 0,-6.697 6.69692,-6.697 l 10.63628,0 0,3.5455 -10.63628,0 q -3.15149,0 -3.15149,3.1515 0,3.1515 3.15149,3.1515 l 5.90905,0 q 6.69692,0 6.69692,6.6969 0,6.6969 -6.69692,6.6969 l -10.99083,0 0,-3.5454 10.99083,0 q 3.15149,0 3.15149,-3.1515 0,-3.1515 -3.15149,-3.1515 l -5.90905,0 z"
         style="font-style:normal;font-variant:normal;font-weight:normal;font-stretch:normal;font-family:Zekton;-inkscape-font-specification:Zekton;text-align:center;text-anchor:middle;fill:#ff0000"
         id="path3354" />
      <path
         d="m 203.41316,1038.1729 1.96968,0 0,-9.8484 3.26968,0 0,9.8484 4.21512,0 0,3.5455 -4.21512,0 0,19.6968 -3.26968,0 0,-19.6968 -1.96968,0 0,-3.5455 z"
         style="font-style:normal;font-variant:normal;font-weight:normal;font-stretch:normal;font-family:Zekton;-inkscape-font-specification:Zekton;text-align:center;text-anchor:middle;fill:#ff0000"
         id="path3356" />
      <path
         d="m 219.14293,1061.4152 -3.54543,0 0,-16.5453 q 0,-6.697 6.69692,-6.697 l 2.75756,0 0,3.5455 -2.75756,0 q -3.15149,0 -3.15149,3.1515 l 0,16.5453 z"
         style="font-style:normal;font-variant:normal;font-weight:normal;font-stretch:normal;font-family:Zekton;-inkscape-font-specification:Zekton;text-align:center;text-anchor:middle;fill:#ff0000"
         id="path3358" />
      <path
         d="m 228.21577,1028.3245 4.72724,0 0,4.8061 -4.72724,0 0,-4.8061 z m 0.6303,9.8484 3.54543,0 0,23.2423 -3.54543,0 0,-23.2423 z"
         style="font-style:normal;font-variant:normal;font-weight:normal;font-stretch:normal;font-family:Zekton;-inkscape-font-specification:Zekton;text-align:center;text-anchor:middle;fill:#ff0000"
         id="path3360" />
      <path
         d="m 238.48583,1041.7184 0,-3.5455 12.60596,0 q 6.69692,0 6.69692,6.697 l 0,9.8484 q 0,6.6969 -6.69692,6.6969 l -7.87873,0 q -6.69692,0 -6.69692,-6.6969 l 0,-0.079 q 0,-6.6181 6.69692,-6.6181 l 8.66661,0 0,3.5454 -8.66661,0 q -3.15149,0 -3.15149,3.0727 l 0,0.079 q 0,3.1515 3.15149,3.1515 l 7.87873,0 q 3.15149,0 3.15149,-3.1515 l 0,-9.8484 q 0,-3.1515 -3.15149,-3.1515 l -12.60596,0 z"
         style="font-style:normal;font-variant:normal;font-weight:normal;font-stretch:normal;font-family:Zekton;-inkscape-font-specification:Zekton;text-align:center;text-anchor:middle;fill:#ff0000"
         id="path3362" />
      <path
         d="m 261.76193,1028.3245 3.54543,0 0,33.0907 -3.54543,0 0,-33.0907 z"
         style="font-style:normal;font-variant:normal;font-weight:normal;font-stretch:normal;font-family:Zekton;-inkscape-font-specification:Zekton;text-align:center;text-anchor:middle;fill:#ff0000"
         id="path3364" />
      <path
         d="m 275.52817,1051.5668 q -6.69692,0 -6.69692,-6.6969 0,-6.697 6.69692,-6.697 l 10.63629,0 0,3.5455 -10.63629,0 q -3.15149,0 -3.15149,3.1515 0,3.1515 3.15149,3.1515 l 5.90905,0 q 6.69692,0 6.69692,6.6969 0,6.6969 -6.69692,6.6969 l -10.99083,0 0,-3.5454 10.99083,0 q 3.15149,0 3.15149,-3.1515 0,-3.1515 -3.15149,-3.1515 l -5.90905,0 z"
         style="font-style:normal;font-variant:normal;font-weight:normal;font-stretch:normal;font-family:Zekton;-inkscape-font-specification:Zekton;text-align:center;text-anchor:middle;fill:#ff0000"
         id="path3366" />
    </g>
  </g>
</svg>
