<?xml version="1.0" encoding="UTF-8"?>
<svg id="Szwajcaria" xmlns="http://www.w3.org/2000/svg" xmlns:xlink="http://www.w3.org/1999/xlink" viewBox="0 0 71 24">
  <defs>
    <style>
      .cls-1 {
        fill: none;
      }

      .cls-1, .cls-2, .cls-3, .cls-4, .cls-5, .cls-6, .cls-7, .cls-8, .cls-9, .cls-10, .cls-11, .cls-12, .cls-13, .cls-14, .cls-15, .cls-16, .cls-17, .cls-18, .cls-19, .cls-20, .cls-21 {
        stroke-width: 0px;
      }

      .cls-2 {
        fill: url(#linear-gradient);
      }

      .cls-3 {
        fill: #2c2c2c;
      }

      .cls-4 {
        fill: url(#linear-gradient-11);
      }

      .cls-5 {
        fill: url(#linear-gradient-12);
      }

      .cls-6 {
        fill: url(#linear-gradient-13);
      }

      .cls-7 {
        fill: url(#linear-gradient-10);
      }

      .cls-8 {
        fill: url(#linear-gradient-16);
      }

      .cls-9 {
        fill: url(#linear-gradient-15);
      }

      .cls-10 {
        fill: url(#linear-gradient-14);
      }

      .cls-11 {
        fill: #d42d27;
        fill-rule: evenodd;
      }

      .cls-12 {
        fill: url(#linear-gradient-4);
      }

      .cls-13 {
        fill: url(#linear-gradient-2);
      }

      .cls-14 {
        fill: url(#linear-gradient-3);
      }

      .cls-15 {
        fill: url(#linear-gradient-8);
      }

      .cls-16 {
        fill: url(#linear-gradient-9);
      }

      .cls-17 {
        fill: url(#linear-gradient-7);
      }

      .cls-18 {
        fill: url(#linear-gradient-5);
      }

      .cls-19 {
        fill: url(#linear-gradient-6);
      }

      .cls-20 {
        fill: #fff;
      }

      .cls-21 {
        fill: #b08b2e;
      }
    </style>
    <linearGradient id="linear-gradient" x1="59.7423866733" y1="10.4251394024" x2="69.2131486041" y2="8.924490505" gradientUnits="userSpaceOnUse">
      <stop offset="0" stop-color="#95702a"/>
      <stop offset=".483871" stop-color="#d0a750"/>
      <stop offset=".6180815183" stop-color="#cca34e"/>
      <stop offset=".7331944832" stop-color="#c29947"/>
      <stop offset=".8412814341" stop-color="#b0893d"/>
      <stop offset=".9444853875" stop-color="#97712f"/>
      <stop offset="1" stop-color="#876226"/>
    </linearGradient>
    <linearGradient id="linear-gradient-2" x1="59.8292480832" y1="10.973331455" x2="81.0255588516" y2="7.6147610868" xlink:href="#linear-gradient"/>
    <linearGradient id="linear-gradient-3" x1="59.6880026241" y1="10.0819156687" x2="80.8843133925" y2="6.7233453004" xlink:href="#linear-gradient"/>
    <linearGradient id="linear-gradient-4" x1="60.1071013222" y1="12.7268941186" x2="81.3034120905" y2="9.3683237503" xlink:href="#linear-gradient"/>
    <linearGradient id="linear-gradient-5" x1="59.3119318417" y1="7.7084911752" x2="80.5082426101" y2="4.349920807" xlink:href="#linear-gradient"/>
    <linearGradient id="linear-gradient-6" x1="58.8369898116" y1="4.7110792518" x2="80.03330058" y2="1.3525088836" xlink:href="#linear-gradient"/>
    <linearGradient id="linear-gradient-7" x1="59.0742305714" y1="6.2083320472" x2="80.2705413398" y2="2.849761679" xlink:href="#linear-gradient"/>
    <linearGradient id="linear-gradient-8" x1="58.8816748771" y1="4.9930916657" x2="80.0779856456" y2="1.6345212974" xlink:href="#linear-gradient"/>
    <linearGradient id="linear-gradient-9" x1="59.5601420678" y1="9.2749734912" x2="80.7564528362" y2="5.916403123" xlink:href="#linear-gradient"/>
    <linearGradient id="linear-gradient-10" x1="59.9450532656" y1="11.7041908285" x2="81.141364034" y2="8.3456204603" xlink:href="#linear-gradient"/>
    <linearGradient id="linear-gradient-11" x1="59.1909744485" y1="6.945115627" x2="80.3872852169" y2="3.5865452588" xlink:href="#linear-gradient"/>
    <linearGradient id="linear-gradient-12" x1="58.6903711014" y1="3.7857522812" x2="79.8866818698" y2=".427181913" xlink:href="#linear-gradient"/>
    <linearGradient id="linear-gradient-13" x1="58.7944698535" y1="4.442731072" x2="79.9907806219" y2="1.0841607038" xlink:href="#linear-gradient"/>
    <linearGradient id="linear-gradient-14" x1="41.7846159539" y1="11.8016023683" x2="71.6385747826" y2="11.8016023683" xlink:href="#linear-gradient"/>
    <linearGradient id="linear-gradient-15" x1="41.7846159539" y1="9.4555522705" x2="71.6385747826" y2="9.4555522705" xlink:href="#linear-gradient"/>
    <linearGradient id="linear-gradient-16" x1="41.7846159539" y1="14.6241247801" x2="71.6385747826" y2="14.6241247801" xlink:href="#linear-gradient"/>
  </defs>
  <g>
    <path class="cls-3" d="M.0859751067,20.1936918153s21.6989739984-5.3300773102,37.7752763201-1.5749786625l.0497443232-.1736208546s-14.0277428334-4.142017076-37.5557537732.9038407205l-.2692668701.8447587966Z"/>
    <path class="cls-3" d="M10.487047754,9.7286488228v.8834114442c.079649836-.1768322312.1818355218-.4166661228.4544120479-.6435769514.2951147808-.2523637615.7266350611-.3912522687,1.1468669753-.3912522687.2156813813,0,.4315202803.0379425216.6471824228.1134548131.6700934292.2527184769.8630008806.7825051386.9424727577,1.009455046.5224380412-.9714920832,1.3514571882-1.110025875,1.7942453934-1.110025875.5449762958,0,1.0219458372.2018907687,1.3399920656.5172567918.5677093433.5551608358.5904435932,1.160459789.5904435932,2.6744854415v3.4826202695h-1.6693050165v-3.0913680008c0-1.04735909-.0225574934-1.2616811299-.192945929-1.5390841901-.1818367242-.3028367543-.4429673665-.3661937312-.6928096428-.3661937312-.4540777737,0-.6811653588.3282506084-.7153851726.378723-.181638324.315346183-.181638324.8579188312-.181638324,1.3876856529v3.2302372692h-1.6693050165v-3.2932587696c0-.7065798141,0-1.0218273983-.1702128815-1.3121342826-.1249211381-.2144206387-.3747634143-.3912528699-.6813433177-.3912528699-.1476746268,0-.2953300149.0379431228-.4316970368.1138293685-.4882579075.2774235014-.4995270348.7569932869-.4995270348,1.9933393215v2.8894772321h-1.6693050165v-6.535828711h1.6578591327Z"/>
    <polygon class="cls-3" points="24.0403978429 9.7286488228 25.7439022319 9.7286488228 24.0403978429 16.2644775339 22.4843901218 16.2644775339 21.4964488643 11.8484459816 20.519971527 16.2644775339 18.9417429915 16.2644775339 17.238455039 9.7286488228 18.9417429915 9.7286488228 19.8387869294 13.8166077256 20.7583474782 9.7286488228 22.2345478456 9.7286488228 23.1433935851 13.8166077256 24.0403978429 9.7286488228"/>
    <path class="cls-3" d="M29.2493006399,12.920761403c0,.5931243998-.0794514359,1.1607357455-.4313218802,1.5899317383-.2953107761.3404053217-.6246261318.3658191758-.7270102177.3658191758-.3289401991,0-.7040775677-.2018709287-.9310280763-.7699361898-.1360303429-.3278952918-.1814603651-.7190495628-.1814603651-1.1228124627,0-.5047070818.0680067545-1.0218664771.3518512055-1.4381580445.2043930152-.2902870443.5222612847-.4792944301.8289975034-.4792944301.2495080021,0,.4993695171.1260045231.6701138704.327895893.2154841836.2398140515.41985796.6815200742.41985796,1.5265543201M29.3355698256,16.2644739266h1.6351248828v-6.5483579798h-1.6011010643v.8454677201c-.2949572631-.6310669214-.8061273794-.9968866985-1.453289361-.9968866985-1.1128635981,0-2.566506472.9589634157-2.566506472,3.5328966658,0,2.0438123143,1.0448568436,3.3057691001,2.4415648927,3.3057691001.9539390827,0,1.3398141067-.5551806758,1.5442071219-.8579975901v.7191087823Z"/>
    <path class="cls-3" d="M34.8254577069,9.7286488228h1.696689044l-1.8670582407,6.4853557182c-.1363670219.4542352914-.3518728492,1.1987576272-.6812050389,1.564596643-.3067386235.327895893-.670056154.4792745901-2.0213341809.4792745901-.1933018468,0-.2723997697-.0124901899-.4427882052-.0250392987v-1.4511412287h.4427882052c.1589245154,0,.5337059661,0,.7040968065-.1639284071.1360111041-.1134548131.2498422762-.3912324287.2498422762-.6561260601,0-.1388885072-.0683819111-.3912324287-.1249415793-.5553580335l-1.8169411657-5.6776339233h1.8169411657l1.0674335758,4.4033249258.9764773373-4.4033249258Z"/>
    <path class="cls-3" d="M5.1013247501,9.296776232l.8957633552,3.4396335749h-1.7451125033l.8493491481-3.4396335749ZM4.0425786951,7.3366322581l-2.8038191789,8.9278476806h2.0591982443l.5235021873-1.8969643547h2.6293313759l.5352240277,1.8969643547h2.0708410252l-2.9201703333-8.9278476806h-2.0941073482Z"/>
  </g>
  <g>
    <path class="cls-21" d="M58.0256177112,18.6534914658c-.5183698019.6467353416-.9546899458,1.1324386441-1.3089604317,1.4569565438s-.6241908561.4869302133-.8096077468.4869302133c-.1022936858,0-.1825029776-.0315929524-.2407812393-.0946254934s-.0874173926-.1492230229-.0874173926-.2585714456c0-.2591849009.1897110784-.5444416558.5689798713-.8559236285.3792687929-.3116353365.8803084801-.5838561644,1.5032724255-.8168158476l.1533638467-.2532037109c-.1188569812.0808227472-.2377139624.1420149221-.3565709436.1835765245-.119010345.0415616025-.233113047.0624190856-.3424614697.0624190856-.107047965,0-.1938519022-.0295992224-.2604118117-.0891043949-.0665599095-.0593518087-.0998398642-.1368005513-.0998398642-.2318861362,0-.114102702.0446288794-.2407812393.1337332743-.3798822483.0892577588-.139101009.2157829323-.2775885626.3798822483-.4154626608.0450889709-.0404880555.107047965-.0938586742.1854168907-.1605719475.2354135047-.1972259069.353196939-.3114819727.353196939-.3423081059,0-.0167166593-.0078215562-.030979497-.0231579409-.0427885132-.0154897485-.01196238-.0338934101-.0179435701-.0553643487-.0179435701-.038034234,0-.0956990403.0185570255-.1729944191.0553643487s-.1634858606.0861904819-.2585714456.1479961121c-.145082199.0998398642-.2870971211.2104151977-.42619813.3317260004s-.2193103008.1818895222-.2407812393.1818895222c-.0142628377,0-.0285256755-.0065946454-.0427885132-.0196305724s-.0213175747-.0266853093-.0213175747-.0409481471c0-.0237713962.0343535017-.0702406418.1033672327-.139101009.069013731-.069013731.1593450367-.1463091098.271147281-.2318861362.2186968454-.1688535952.40825456-.2936917665.5688265075-.3745145137s.2966056795-.1213108027.4084079238-.1213108027c.076068468,0,.1366471874.0226978493.1818895222.0677868202.0450889709.0452423348.0677868202.107047965.0677868202.1854168907,0,.0857303903-.0297525863.1729944191-.0892577588.2622521779-.0593518087.0891043949-.183116433.2240645801-.3708337814.4047271915-.0667132733.0619589941-.1558176683.145082199-.2676199125.2496763425-.2567310794.2403211478-.3850966191.3877038045-.3850966191.4423013339.0023004577.0285256755.0171767508.0516836163.0444755155.0696271864.0274521286.0177902062.0611921748.0266853093.1016802304.0266853093.0808227472,0,.1742213299-.0272987647.2800423841-.082049658.1058210542-.0545975294.2216107585-.1366471874.3476758405-.2459956101l1.0309117776-.8918107686c.1021403219-.0878774842.2025936415-.1711540529.3013599588-.2496763425.0986129534-.0783689257.1955389046-.1509100252.2906244895-.2174699346h.0892577588c.0618056302,0,.1052075988.0047542792.1302059059.0142628377.0248449432.0095085585.0374207786.0262252178.0374207786.0498432502,0,.0214709385-.1818895222.2122555639-.5458219305.5725072398-.3637790444.3602516759-.7109947934.7448882035-1.0413405192,1.1539095827.2305058616-.038034234.4493560709-.1004533196.6562439001-.1872572568s.4243577639-.2075012846.6527165316-.3620920421c.1426283774-.0973860427.2852567549-.2079613761.4280384962-.3317260004.1426283774-.1236112605.2234511247-.1854168907.2424682417-.1854168907s.0332799547.0053677346.0427885132.0161032039c.0095085585.0105821054.0154897485.0266853093.0177902062.048002884,0,.0334333186-.0498432502.0958524042-.1496831144.1872572568-.0999932281.0917115803-.2354135047.1992196369-.4067209215.3228308973-.2544306217.1855702545-.508247788.3311125451-.7614514989.4369335993s-.5225106258.1802025199-.8079207445.2229910331ZM57.4906846139,18.8139100495c-.5445950197.240167784-.9689527835.4850898472-1.2733800193.7347661896-.3042738719.2496763425-.4565641717.4743543779-.4565641717.6741874702,0,.0641060879.0154897485.117016615.0464692456.1587315814.0308261332.0415616025.069013731.0624190856.114102702.0624190856.1236112605,0,.3102550619-.1291323589.5599314044-.3870903491s.5861566221-.672347104,1.0094408391-1.2430139776Z"/>
    <path class="cls-21" d="M60.2727047933,17.90093507c-.0213175747.0450889709-.0374207786.0891043949-.0481562479.1318929082s-.0159498401.0808227472-.0159498401.114102702c0,.0762218318.0242314878.1355736405.073001191.1783621537s.1159430681.0642594518.2015200946.0642594518c.1498364782,0,.3329529112-.0553643487.5493492989-.1659396821.2162430239-.1105753335.4481291601-.2668530933.6955050449-.4689866433.0642594518-.0545975294.1426283774-.1242247158.2354135047-.2087281954.0927851273-.0843501157.1498364782-.1265251735.1711540529-.1265251735.019017117,0,.0332799547.0053677346.0427885132.0161032039.0095085585.0105821054.0154897485.0266853093.0179435701.048002884,0,.0262252178-.0322064078.072081008-.0963124957.1374140067-.0642594518.0654863625-.176061696.1657863183-.3354067328.3013599588-.2377139624.20213355-.4755812887.3596382205-.7132952511.4726673756-.2377139624.1128757912-.4458287024.1693136868-.6241908561.1693136868-.1711540529,0-.3079546042-.0522970717-.4100949261-.1568912152-.1022936858-.1045941435-.1533638467-.2472225209-.1533638467-.4280384962,0-.1616454944.051070161-.3228308973.1533638467-.483249481.1021403219-.1605719475.2507498894-.3133223388.4458287024-.4584045378.1711540529-.1236112605.3317260004-.2162430239.4814091148-.2782020179.1498364782-.0618056302.2889374872-.0926317634.4173030269-.0926317634.1142560658,0,.195078813.0184036616.2426216055.0552109848.0475427925.0369606871.0713141887.1004533196.0713141887.1907846253,0,.1832697968-.1343467297.3734409668-.4030401892.5706668736-.2686934594.1975326346-.6016463707.3366336435-.9987053698.4174563908ZM60.3762253898,17.6868391399c.3209905312-.0665599095.5907575375-.1734545106.8096077468-.3209905312.2186968454-.1473826567.3280452681-.2854101187.3280452681-.4137756584,0-.0450889709-.0082816477-.0771420149-.0248449432-.0963124957-.0167166593-.019017117-.0452423348-.0285256755-.0855770265-.0285256755-.1190103451,0-.265166091.0731545549-.4387739655.2194636647-.1736078745.1461557459-.3697602344.3596382205-.5884570798.6401406962Z"/>
    <path class="cls-21" d="M62.8194648318,18.1506114124c-.1426283774.1403279197-.2746746495.2455355186-.3959854522.3156227965-.1211574389.0700872779-.2294323147.1052075988-.3245178996.1052075988-.0998398642,0-.177135243-.0368073232-.2318861362-.1105753335-.0545975294-.0737680103-.082049658-.1783621537-.082049658-.3139357942,0-.1591916729.0381875978-.3114819727.1142560658-.4565641717.076068468-.1449288351.1936985384-.2864836657.3530435751-.4243577639.2044340077-.183116433.4245111277-.3286587235.6599246324-.4369335993.2352601409-.1081215119.4433748809-.1622589498.6240374923-.1622589498.1022936858,0,.177135243.019017117.2248313993.057051351.0475427925.038034234.0748415572.101066775.082049658.1889442592.0331265909-.0378808701.0717742803-.0754550126.1157897043-.1122623358s.0933985827-.0719276441.1481494759-.1052075988c.0188637531,0,.0463158817-.0012269108.0818962941-.0036807323.0357337763-.0023004577.0618056302-.0035273685.0785222895-.0035273685.0832765688,0,.1426283774.0065946454.1783621537.0196305724.0357337763.0131892908.0535239825.0351203209.0535239825.0659464541,0,.0285256755-.0547508933.0915582165-.164099316.189097623-.0595051725.0522970717-.107047965.094012038-.1426283774.1248381712-.3186900735.3019734142-.5683664159.5594713128-.7490290274.7721869682-.1808159753.2128690192-.271147281.3573377628-.271147281.4334062308,0,.0308261332.0065946454.0522970717.0196305724.0641060879.013035927.01196238.0374207786.0179435701.0731545549.0179435701.1045941435,0,.2591849009-.0506100694.4636189086-.1516768444.2045873715-.101066775.4209837592-.2383274178.6491891631-.4119352923.095085585-.0713141887.1973792707-.1545907575.3067276934-.2496763425s.1748347853-.1426283774.1961523599-.1426283774c.0167166593,0,.0303660416.00598119.0411015109.0177902062.0105821054.01196238.0159498401.0274521286.0159498401.0463158817,0,.0429418771-.1331198189.1725343276-.3993594568.3887773514l-.0179435701.0144162016c-.2639391802.2116421085-.5165294357.3774284268-.7579241305.4975123187s-.4381605101.180049156-.590297446.180049156c-.1093484227,0-.1967658153-.0302126778-.262098814-.0909447611-.0654863625-.0605787195-.0981528619-.1420149221-.0981528619-.2443086078,0-.0213175747.0006134554-.0374207786.0018403662-.0481562479.0012269108-.0107354693.0029139131-.0207041193.0053677346-.0302126778ZM62.7909391564,18.0007749342l.8203432161-.8738671986c.0308261332-.0332799547.0552109848-.0665599095.0731545549-.0998398642.0177902062-.0332799547.0266853093-.0642594518.0266853093-.0927851273,0-.0237713962-.0082816477-.0427885132-.024998307-.057051351-.0165632954-.0142628377-.0392611448-.0214709385-.0677868202-.0214709385-.0808227472,0-.1872572568.0338934101-.319150165.1016802304-.132046272.0677868202-.2670064571.1599584921-.4048805553.2765150156-.2259049462.1878707122-.4125487477.3840230722-.5599314044.5884570798-.1475360205.2045873715-.221150667.3542704859-.221150667.4493560709,0,.0334333186.0101220139.0601186279.0303660417.0803626557.0200906639.0200906639.0457024263.0302126778.0766819234.0302126778.0641060879,0,.1479961121-.0338934101.2513633448-.1016802304.1035205965-.0676334564.2098017423-.161032039.3193035289-.2798890203Z"/>
    <path class="cls-21" d="M66.7000302453,16.8059172044c.0047542792-.0072081008.0165632954-.0136493824.0357337763-.0196305724.0188637531-.00598119.0378808701-.0101220139.057051351-.0125758354.0665599095,0,.1236112605.0078215562.1711540529.0233113047s.0713141887.0326664993.0713141887.0516836163c0,.0095085585-.0219310301.0374207786-.0659464541.0837366603-.044015424.0464692456-.0802092918.0886443034-.1087349673.1266785374-.088030848.114102702-.1552042129.2252914908-.2015200946.3334130028-.0464692456.1082748758-.0696271864.2039739161-.0696271864.2872504849,0,.0618056302.0165632954.1118022443.049996614.1496831144.0332799547.0381875978.0771420149.0572047148.1318929082.0572047148.0593518087,0,.1236112605-.0179435701.1926249915-.0535239825.069013731-.0357337763.1533638467-.0963124957.2532037109-.1818895222.0427885132-.0357337763.0963124957-.082049658.1605719475-.139101009.076068468-.0714675526.1248381712-.107047965.1461557459-.107047965.019017117,0,.0332799547.0053677346.0427885132.0161032039.0095085585.0105821054.0154897485.0266853093.0179435701.048002884,0,.0214709385-.0131892908.0481562479-.0392611448.0803626557-.0262252178.032053044-.082049658.0837366603-.1676266845.155050849-.1713074168.1403279197-.3079546042.2360269601-.41024829.2872504849-.1022936858.051070161-.1986061815.0766819234-.2889374872.0766819234-.1236112605,0-.2193103008-.0375741424-.2870971211-.1124156996s-.1016802304-.1788222453-.1016802304-.3120954281c0-.0475427925.0065946454-.1021403219.0196305724-.164099316.013035927-.0618056302.0315929524-.1283655397.0553643487-.1996797284-.2163963877.1973792707-.4203703038.401199823-.6117683845.6116150207-.1913980807.2105685615-.3679198683.4251245831-.5295653627.6438214285-.0619589941.0095085585-.119010345.0167166593-.1713074168.0214709385s-.0998398642.0070547369-.1426283774.0070547369c-.0452423348,0-.0808227472-.0047542792-.107047965-.0142628377-.0260718539-.0095085585-.0391077809-.0213175747-.0391077809-.0355804124,0-.030979497.0688603672-.1213108028.2067344654-.271147281.0832765688-.0926317634.151063389-.1676266845.2033604607-.2246780354.2662396379-.3114819727.4458287024-.5361600081.5386138297-.6741874702.0927851273-.1378740982.139101009-.2424682417.139101009-.3137824304,0-.0214709385-.0030672769-.0361938678-.0088951031-.0446288794-.00598119-.0082816477-.0148762931-.0124224716-.0268386732-.0124224716-.0618056302,0-.1420149221.0272987647-.2407812393.082049658-.0986129534.0547508933-.2275919485.1438552882-.3869369853.2674665487-.0475427925.038034234-.1058210542.0891043949-.1746814214.1533638467-.0857303903.0785222895-.1415548305.1176300704-.1677800483.1176300704-.019017117,0-.034966957-.0064412816-.0481562479-.0194772085-.013035927-.013035927-.0194772085-.0291391309-.0194772085-.0481562479,0-.0237713962.0242314878-.0611921748.073001191-.1124156996.0487697033-.051070161.1361870959-.1302059059.2622521779-.2372538709.1829630691-.1544373936.3596382205-.2782020179.5295653627-.3708337814.170080506-.0927851273.2978325903-.139101009.3834096168-.139101009.0665599095,0,.1190103451.0208574832.157044579.0624190856s.057051351.0979994981.057051351.1693136868c0,.0524504356-.0095085585.1124156996-.0285256755.1802025199s-.0487697033.1444687436-.0892577588.2300457701l.5778749744-.5028800534Z"/>
    <path class="cls-21" d="M67.3277484699,18.2897124214c.0142628377.0475427925.0457024263.0831232049.0944721296.1068946012s.1171699789.0357337763.2052008269.0357337763c.2352601409,0,.4183765738-.1266785374.5491959351-.3798822483s.2068878292-.6318590485.2282054039-1.1359660126c-.2259049462.126065082-.4363201439.2716073725-.6312455931.4369335993-.1949254492.1651728629-.303200325.2478359763-.3245178996.2478359763-.0167166593,0-.0303660417-.0047542792-.0411015109-.0142628377s-.0159498401-.0214709385-.0159498401-.0357337763c0-.0498432502.0973860427-.1521369359.2924648557-.3067276934.1949254492-.1544373936.4481291601-.3280452681.7596111328-.5206702596.0167166593-.1378740982.0558244402-.2490628871.1177834343-.3335663666.0618056302-.0843501157.1318929082-.1265251735.2104151977-.1265251735.038034234,0,.0682469118.0124224716.0909447611.0374207786.0225444855.024998307.0338934101.0588917171.0338934101.1016802304,0,.069013731-.0262252178.1378740982-.0785222895.2068878292-.0522970717.0688603672-.1236112605.126065082-.2139425662.1711540529.0498432502.076068468.0868039372.1628724052.1105753335.2604118117s.0355804124.2056609184.0355804124.3245178996c0,.195078813-.0308261332.366232866-.0926317634.5136155227-.0619589941.1475360205-.1522902998.2663930017-.271147281.3567243075.3044272357-.1213108027.5861566221-.2877105764.8453415231-.4993526849s.3910778091-.3174631627.3959854522-.3174631627c.0165632954,0,.0302126778.00598119.0409481471.0177902062.0107354693.01196238.0161032039.0274521286.0161032039.0463158817,0,.0357337763-.0518369802.1022936858-.1552042129.1998330923s-.2372538709.2009066392-.401199823.3102550619c-.2616387225.1855702545-.5214370788.328198632-.779395069.4280384962s-.489230671.1498364782-.6936646787.1498364782c-.1522902998,0-.2759015602-.0345068655-.3709871452-.1035205965-.095085585-.0688603672-.1426283774-.158118126-.1426283774-.2674665487,0-.0878774842.0272987647-.1598051283.0818962941-.2157829323.0547508933-.0558244402.1225377135-.0837366603.2033604607-.0837366603.0593518087,0,.1075080565.0177902062.1444687436.0533706187.0368073232.0357337763.0553643487.0809761111.0553643487.1355736405,0,.0642594518-.0214709385.114102702-.0642594518.1498364782s-.0998398642.0535239825-.1711540529.0535239825c-.0191704808,0-.0334333186-.0006134554-.0429418771-.0018403662-.0095085585-.0010735469-.0165632954-.0016870023-.0213175747-.0016870023Z"/>
  </g>
  <path class="cls-11" d="M63.3081890657,13.8757859108l.476385752.9321135123c1.7115441603-.2440071523,3.1109776579-.2783843408,4.8546183191-.1867565561l1.7586002996-.9933410546c-2.3862378953-.2638831037-4.7727567227-.1724221225-7.0896043708.2479840984Z"/>
  <path class="cls-11" d="M57.2074659512,15.8302749486c-2.3310698394,1.0990242272-4.5019732225,2.5679044421-6.4184574045,4.3810319211,2.0931202871-1.6229276173,4.3936036359-2.9101939601,6.8199445992-3.8420196475l-.4014871947-.5390122736Z"/>
  <rect class="cls-3" x="42.701508174" y="7.3366290818" width=".4677597325" height="11.2942504456"/>
  <polygon class="cls-2" points="66.9141145623 9.2888724082 66.9129584245 9.2892348544 66.9138618103 9.288536521 66.9141145623 9.2888724082"/>
  <path class="cls-13" d="M69.7713418834,8.9417463684l.043313042.2454891999c.0036529566.0207013832.0172579213.0382820425.0363837321.0470104131l.2267840694.1034915642c.0481591509.021978489.0502121173.0896362585.0034739725.1144934858l-.2200916862.1170536845c-.0185600713.0098722167-.0310734247.0282436333-.0334654114.0491284581l-.0283435186.2476652868c-.0060223052.0525952558-.0697353442.0754545535-.107817246.0386867528l-.1793375091-.1731498246c-.0151237281-.0146014151-.0364628785-.0208259345-.0570628583-.0166449395l-.2443053051.0495754153c-.0518798608.0105264216-.0933107604-.043002817-.070108805-.090586858l.1092549401-.2240638452c.0092140242-.0188948719.0085381052-.0411135308-.0018034939-.0594162147l-.122641992-.217027319c-.0260439677-.0460873916.0120650976-.102030105.0644858622-.0946699549l.2468618798.0346685c.0208168187.0029226871.0417379914-.0045868772.055950317-.0200770504l.1685060797-.1837026619c.0357840308-.0390111561.1007659376-.0200562712.1099639308.0320759077Z"/>
  <circle class="cls-14" cx="67.217158273" cy="8.8889155203" r=".2101929343"/>
  <path class="cls-12" d="M67.0000628192,11.6229981398l-.2267863549-.1034922309c-.0191258108-.0087283706-.032727538-.0263031257-.0363798279-.0470067943l-.0433153274-.2454898665c-.0091973266-.0521344644-.0741769479-.0710886825-.1099639309-.0320759077l-.1685060797.1837026619c-.0142107067.0154931252-.0351328316.022997452-.0559519357.0200740983l-.2468595944-.0346678333c-.0524223834-.0073631022-.0905298299.0485825633-.0644865288.0946722403l.122641992.217027319c.0103415991.0183026839.0110152327.0405206762.0018041606.0594139292l-.1092585588.2240677495c-.0231983367.0475801368.0182318962.1011116609.0701124237.0905829538l.244302353-.0495737965c.0206022652-.0041803283.0419414156.0020441911.0570651437.0166456061l.1793358903.1731468725c.038085806.0367714195.1017972262.0139091697.1078159127-.0386821819l.0283471373-.247669191c.00239132-.0208825393.0149046735-.039253956.0334647448-.0491261727l.2200916862-.1170536845c.0467410968-.0248588461.0446865117-.0925195677-.0034733059-.1144957713Z"/>
  <path class="cls-18" d="M69.884046459,5.9429237756c.0103399803.0182997318.0110129472.0405200095.0018018751.0594132626l-.1092556067.2240661307c-.0232012888.0475817556.0182318962.1011116609.0701071862.090583906l.2443046385-.0495731298c.0206045506-.0041796617.0419414156.0020441911.0570651437.0166456061l.1793381757.1731475392c.0380841873.0367684674.1017949408.013908503.107814294-.038685134l.0283487561-.2476662389c.00239132-.0208825393.0149030547-.0392569081.0334624593-.0491268393l.2200923528-.11705597c.0467397635-.0248542752.0446851784-.0925149968-.0034716871-.1144928192l-.2267886403-.1034928975c-.0191241921-.0087254185-.0327268713-.0263054111-.0363798279-.0470067943l-.0433146608-.245492152c-.0091986599-.0521298935-.0741782812-.0710841117-.1099639308-.0320759077l-.1685067463.1837049473c-.0142100401.0154908398-.0351334983.0229997374-.0559496503.0200747649l-.2468618798-.0346685c-.0524207646-.0073601501-.0905304966.0485848487-.0644858622.0946699549l.1226436108.2170302711Z"/>
  <path class="cls-19" d="M67.5882739266,3.2340225884c.0103422657.0183003984.0110152327.0405206762.0018018751.0594132626l-.1092556067.2240661307c-.0232019554.0475840411.0182296108.1011109942.070108805.090586858l.2443053051-.0495754153c.0206022652-.0041803283.0419414156.0020441911.0570651437.0166456061l.1793352236.173149158c.0380871394.0367668486.1017972262.0139091697.107817246-.0386867528l.0283487561-.2476662389c.0023890346-.020883206.0149030547-.0392569081.0334624593-.0491268393l.2200923528-.11705597c.0467374781-.0248549419.0446845117-.0925127114-.0034746392-.1144912004l-.2267863549-.1034922309c-.0191258108-.0087283706-.0327284901-.0263083632-.0363791612-.0470090798l-.0433169462-.2454928186c-.0091986599-.0521298935-.0741782812-.0710841117-.1099616454-.032075241l-.1685090318.1837042807c-.0142077546.0154915065-.0351312128.0230004041-.0559480315.020077717l-.2468618798-.0346685c-.05242305-.0073608167-.0905298299.0485825633-.064487481.0946670028l.1226436108.2170302711Z"/>
  <path class="cls-17" d="M65.5870737813,5.085957375c.0103393136.0183020172.0110136139.0405177241.0018041606.0594139292l-.1092556067.2240661307c-.0232012888.0475817556.0182289441.1011132797.0701065195.0905861914l.2443053051-.0495754153c.0206022652-.0041803283.0419391301.0020435244.0570628583.0166449395l.1793397945.1731504913c.0380819018.0367678007.1017956075.0139062176.1078149606-.0386874194l.0283464707-.2476669056c.0023919867-.0208848248.0149046735-.039253956.0334647448-.0491261727l.2200916862-.1170536845c.0467388114-.0248595128.0446835596-.0925179489-.0034739725-.1144934858l-.2267856882-.1034945163c-.0191241921-.0087254185-.0327298234-.0263037923-.0363821133-.047007461l-.043313042-.2454891999c-.0091979932-.0521321789-.0741799-.0710870637-.1099639308-.0320759077l-.1685060797.1837026619c-.0142129922.0154924586-.0351357837.0229990708-.0559496503.0200747649l-.2468648319-.0346668812c-.0524178125-.0073617689-.0905268778.0485809445-.0644835768.0946706215l.122641992.217027319Z"/>
  <path class="cls-15" d="M66.2231487123,4.0897659958c.1505144873.0439042945.3081213662-.0425218875.3520263273-.1930386602.0439042945-.1505144873-.042519602-.3081206995-.1930340894-.352024994s-.3081252704.0425182687-.3520295649.1930327561c-.0439049611.1505167728.0425228396.3081266037.1930373269.3520308982Z"/>
  <path class="cls-16" d="M69.983221507,7.6513718102c.0031382426-.0245496037-.0148320834-.0467575016-.0394951037-.0488146444l-.0385280282-.0032088694-.1147336174-.0077205421c-.044157002-.0026029611-.0909097042-.0049728866-.151690478-.0076865385-.0909333357-.0038655969-.1868628019-.0067139549-.3020287571-.0089808365-.1974435368-.003269311-.3999500115-.0024321408-.601909579.0024934268-.3991570839.0097699754-.8020980907.0350869459-1.1974953653.0752288376-.1763852846.0172974232-.3653433777.0400835621-.5949440643.0717499601l-.1477530362.0213962758c-.0321643242.0047125127-.0646522309.0099452986-.0960693694.0150050706-.0172395597.0027776755-.0344786433.0055537185-.0515518247.0082346746-.0704476536.0107453304-.1415590206.0232862917-.2103317966.0354129385-.0281494766.0049642892-.0562924234.0099304831-.0848539615.0148560585-.3794005119.0692917459-.7573156777.1541990512-1.1239900076.2525032351-.0226544778.0060747149-.0363564572.0290857824-.0310152699.0519230778h0c.0053186073.0227385984.0276140228.0371511595.0505376796.0327102133.3696492206-.0715994261.7491416615-.1291096389,1.1282989052-.1710056999.0285272708-.0028648559.0570352949-.005839836.085533252-.0088106671.0683752082-.0071322535.139081997-.0145090448.2087133516-.0201483045.0175386763-.0014894454.0350670156-.0030527604.0525946748-.0046198164.0310137231-.0027719447.0630797792-.0056354845.0944544032-.007986855l.1473530787-.0108068661c.2281485174-.015168225.4153980166-.0244271557.5894247371-.0291451039.3902851457-.0119345197.7864476069-.0088269749,1.1774716194.0092305221.1969338509.0091095926.3940149282.022226425.5856271392.0389770602.1113371359.0100794401.2038073002.0193885457.2909156041.0292805077.0579718026.0067141491.1025072601.0121429924.1441797068.0175674762l.0715554337.0097110348.0679169165.0103006019c.0241232437.0036586492.0465278267-.01325526.0496211674-.0374566048l.0421925897-.3301896231Z"/>
  <path class="cls-7" d="M70.2480578033,10.7969281562c.0102860925-.0225106683-.0002767237-.0490533962-.0232166213-.058341653l-.0358373577-.0145099762-.1072603187-.0414477757c-.0413934386-.0155992494-.0853315425-.0317476867-.142562591-.0523935815-.0856818704-.0306984942-.1764373739-.0619115518-.2857338536-.098279612-.1875623838-.0617627415-.3811802029-.121111422-.5754890021-.1763909187-.3840493039-.1092229029-.7763252483-.2047261351-1.1658032256-.2838305968-.1735620464-.0358735243-.3607594677-.070236756-.5894075033-.1081919509l-.1474381668-.023454721c-.0321141446-.0050542775-.0646897442-.009704667-.0961914551-.0142047733-.0172874455-.0024688779-.034571626-.0049368035-.0516729009-.007448801-.0704577095-.0106626679-.1420863469-.0198069657-.2113569582-.0286549091-.0283541289-.0036191715-.0567028843-.007238547-.085435946-.0110160778-.3828617442-.0465194552-.7689417556-.0776882731-1.1482663472-.0927263508-.0234352287-.0009284625-.043354811.0169760119-.0450382215.0403699331h0c-.0016749054.0232918921.0153340115.0436765009.0385424885.0462446369.374233052.0414198735.7536831871.0992161339,1.1281747888.1718252919.0280911104.005735389.0561947393.0113610629.0842892535.0169876207.0674075712.0134981199.1371152797.0274546152.2052783653.0427531643.0171904835.0037850538.0343937566.0074958985.0515944448.011209532.0304391919.0065637921.0619072418.0133532997.0925643552.02042704l.1439131345.0334443213c.2223603868.0532802453.4039085304.1000513213.5714858552.1472357979.3762170423.104520372.7535782318.225151953,1.1215948365.3585323325.1853418808.0671890117.3696327591.1382483088.5476244347.2111545814.1033173289.0426924992.1888516543.0790464073.2690923848.1143645804.0533604545.0236281797.0942735341.0420401612.1324549026.0595968621l.0654416366.0305248595.0617928771.0300078843c.0219489532.0106571926.0483659532.0011630283.0585080401-.0210300604l.1383586706-.3027566799Z"/>
  <path class="cls-4" d="M70.7593779154,3.6425706081c-.0128368893-.0327380078-.050380698-.0481567015-.0825211229-.0338949231l-.0502073064.0222804751-.1482546814.0686425763c-.0568068867.0268757729-.1166888548.0558162676-.1942923301.0938929612-.1159621701.0572115036-.2374634297.1190991397-.3825349799.1948345375-.2482989029.1306070869-.5001091975.2697906682-.7484455158.4136914955-.4907961367.2844585781-.9757040498.5908689191-1.4410923295.9106111227-.2080282187.1418755703-.4279774681.2991688915-.6925243353.4952548518l-.1695434699.1274521379c-.0368728967.0278138714-.0737907769.056498528-.1094941434.0842319626-.0195924748.0152224039-.0391786236.0304413389-.0586336248.045429283-.0804647117.0614458931-.1605334154.1255846226-.2379729044.1876082843-.031693349.0253905371-.0633831607.0507750206-.0956150265.076396402-.4255734215.3451619391-.8386419265.7087694048-1.2285619113,1.081405366-.0240906741.0230221574-.0254701445.0610475685-.0032333598.0858692283h0c.0221383633.0247096971.0597563017.0274617916.0852980569.0062906199.4118416722-.3413840811.8455640011-.671925414,1.2895218778-.9827754331.0335964068-.0230304133.0670939844-.0461835365.1005833314-.0693266609.0803507615-.0555291473.1634374548-.1129562412.2463712327-.167478632.0208435221-.0138212367.0416218837-.0277287918.0623986128-.0416368232.0367603773-.0246104255.0747694111-.0500522896.1122668411-.0743839518l.1762715468-.113984636c.2739893948-.1745322236.5010377175-.3138001792.7147066215-.438389318.4782596379-.2811043829.9741077977-.5474669081,1.4737493099-.7916916231.2516484642-.1229856812.5062127995-.2410714982.7564404021-.3509030509.1456333435-.0633845968.267227792-.1148613618.3825354195-.1619527292.0768256288-.0311774225.1360346775-.0547928879.1916714926-.0764549924l.0958000307-.0367083484.0916723848-.0334945996c.0325585477-.0118937348.0489454692-.0482570391.0362914723-.0805289721l-.1726515914-.4402866102Z"/>
  <path class="cls-5" d="M65.9749967771.6278155189c.0243374835.0044969957.0400096574.0283833525.0344473452.0524986565l-.0086882303.0376736965-.0276287644.1116242674c-.0109839564.0428477483-.0229816024.0880958124-.0389266363.146809673-.0240438557.0877841873-.0505767982.1800146801-.083534182.2903892902-.0570814701.1890394818-.1196218739.3816483521-.1858875268.5724903859-.1310019053.3771757033-.2779648413.7532135697-.4367469593,1.1175457807-.0702492367.1627129205-.14956187.3357289357-.2497234298.5447437587l-.065423394.1341935353c-.0142948622.0291972945-.0291857157.0585431282-.0435821099.086922553-.0079007389.0155719195-.0158010016.0311422065-.0235597124.0465855047-.0317123027.0638163466-.0653376575.127717668-.0978533549.1895212271-.0133139871.0252941539-.0266200158.0505853152-.0400214865.0762826187-.1816660589.3402109997-.3777514908.6742479668-.5831682095.9934912553-.0126939124.0197252051-.038784873.0257575907-.0589102539.0137068608h0c-.0200313112-.01199672-.0269608868-.0376231303-.0157437273-.0581032547.1808930977-.3302192875.3513674508-.674109347.5068676866-1.0224416758.0114253821-.0262949746.0229506836-.0525377756.0344703393-.0787733667.0276377729-.0629465502.0562226375-.1280347395.0828209784-.1926342598.0067664624-.0162499678.0136009435-.0324659241.0204354246-.0486818804.0120963892-.0286925104.0245992205-.0583593903.0364055184-.0875209031l.0552172701-.1370430711c.0840067386-.2126642869.1499130547-.3881737705.2074634222-.5524776576.1303613329-.3680629363.2481840695-.746312534.3502029983-1.1242228519.0513679293-.1903358786.0989630532-.3820326542.1414298728-.5696296162.0243447151-.1091103499.0436734004-.2000164849.0608095515-.2859930276.0112809634-.0572561185.0196887109-.1013282856.027227642-.1426709186l.0125666881-.0711068387.0108976072-.0678260269c.0038703252-.0240898406.0268111554-.0402734099.0508018768-.0358385931l.3273337559.060484878Z"/>
  <path class="cls-6" d="M63.1647442078,4.0428198058l.1793381757.1731475392c.0380835206.0367707528.1017972262.0139091697.1078165794-.0386844673l.0283464707-.2476669056c.0023897013-.0208854914.0149030547-.0392569081.0334647448-.0491261727l.2200923528-.11705597c.0467381447-.0248572273.0446828929-.0925156635-.003476258-.1144941525l-.2267840694-.1034915642c-.0191258108-.0087283706-.0327291568-.0263060778-.0363814467-.0470097464l-.043313042-.2454891999c-.0091979932-.0521321789-.0741799-.0710870637-.1099639308-.0320759077l-.1685083651.1837019952c-.0142084213.0154937919-.0351334983.0229997374-.055950317.0200770504l-.2468595944-.0346678333c-.05242305-.0073608167-.0905298299.0485825633-.0644858622.0946699549l.1226390399.2170289378c.0103445512.0183010651.0110181848.0405190574.001806446.0594145959l-.1092578922.224065464c-.0231990033.0475824223.0182312296.1011139463.0701094716.0905845726l.2443046385-.0495731298c.0206029318-.0041826138.0419397968.002041239.0570628583.0166449395Z"/>
  <rect class="cls-1" x="-2.2600703575" y="-.22751678" width="75.5422386543" height="27.4198693273"/>
  <path class="cls-10" d="M52.4157215622,18.0203194405c.6226572177-.5232966155,1.4668485119-1.1670030211,2.3935495557-1.6916223998v-.3888444481h.755393627c.2795056106-.1290173361.5625385898-.2431775494.8460316604-.3349083003v-1.8385641354h-1.6014252874V5.5828852962h-2.0766998484l-5.5965534943,8.1923899638v2.1645773325h5.279703787v2.0804668479ZM49.4502782221,13.766380157l2.9654433401-4.4084437738v4.4084437738h-2.9654433401Z"/>
  <g>
    <path class="cls-9" d="M60.810245076,11.0757454586c.5688265075,0,1.0309117776.1809693391,1.3857957189.5429463583s.5324792758.9049233775.5324792758,1.628839075c0,.0446672204-.0026071854.0863821867-.0038340962.1297458143.8310786853-.1952321769,1.69083641-.3503597078,2.5391685281-.4349782102-.0542908017-1.0428358167-.4324860477-1.9012516077-1.1363494222-2.574365531-.7625250459-.7291300682-1.6925234123-1.0938676367-2.7893816441-1.0938676367-.5749610613,0-1.1381131065.1259884001-1.6894561354.3780802231l.3870903491-2.0028934971h4.6637945786v-2.1154242197h-6.5380541493l-1.2670921016,6.137161054,2.0063058427.2655111596c.5631520451-.5737724915,1.199612009-.8607545897,1.9095332554-.8607545897Z"/>
    <path class="cls-8" d="M59.2052924202,14.4467594914c-.0694738226-.1665914785-.1186269354-.3488260694-.1461557459-.5477773195l-2.4639435613.2332664109c.0665599095.4478607734.1986061815.8520511914.3896208526,1.2170188056.3923814018-.1774419706,1.1867294459-.5231624221,2.2204784547-.902507897Z"/>
  </g>
  <path class="cls-11" d="M57.9618766663,16.2376804284c1.7116495098-.6395859923,3.3591035422-1.0567977608,5.1647599812-1.3363340542l-.4559178037-.9011250681c-1.7565635413.3668886415-3.4684237503.9245741256-5.104572738,1.6640666227l.3957305605.5733924996Z"/>
  <polygon class="cls-20" points="67.217158273 13.863910891 66.8136253331 13.863910891 66.8136253331 13.4548192219 66.467267318 13.4548192219 66.467267318 13.863910891 66.0637360119 13.863910891 66.0637360119 14.2150350715 66.467267318 14.2150350715 66.467267318 14.6241247801 66.8136253331 14.6241247801 66.8136253331 14.2150350715 67.217158273 14.2150350715 67.217158273 13.863910891 67.217158273 13.863910891"/>
</svg>