<?xml version="1.0" encoding="utf-8"?>
<!-- Generator: Adobe Illustrator 27.5.0, SVG Export Plug-In . SVG Version: 6.00 Build 0)  -->
<svg version="1.1" id="Layer_1" xmlns="http://www.w3.org/2000/svg" xmlns:xlink="http://www.w3.org/1999/xlink" x="0px" y="0px"
	 viewBox="0 0 1867.2 807" style="enable-background:new 0 0 1867.2 807;" xml:space="preserve">
<style type="text/css">
	.st0{enable-background:new    ;}
	.st1{fill:#FFFFFF;}
</style>
<g class="st0">
	<path class="st1" d="M798.2,639.5h23.4c10.3,0,18.1,1.5,23.3,4.6c5.2,3.1,7.8,8.4,7.8,15.8c0,3.2-0.6,6.1-1.8,8.6
		c-1.2,2.5-3,4.7-5.4,6.3c-2.3,1.7-5.2,2.8-8.7,3.5v0.6c3.6,0.6,6.8,1.6,9.6,3.1c2.8,1.5,5,3.6,6.6,6.3s2.4,6.2,2.4,10.4
		c0,5.1-1.2,9.4-3.5,12.9c-2.4,3.5-5.7,6.2-10,8c-4.3,1.8-9.4,2.7-15.3,2.7h-28.5V639.5z M807.8,675h15.9c7.2,0,12.2-1.2,15-3.6
		s4.2-5.9,4.2-10.4c0-4.7-1.7-8.1-5-10.2c-3.3-2.1-8.6-3.1-15.8-3.1h-14.3V675z M807.8,683.1v31H825c7.4,0,12.6-1.4,15.6-4.3
		s4.6-6.8,4.6-11.7c0-3.1-0.7-5.8-2.1-8c-1.4-2.2-3.6-3.9-6.7-5.1c-3.1-1.2-7.2-1.8-12.3-1.8H807.8z"/>
	<path class="st1" d="M859.6,660.2h10.1l13.7,36c0.8,2.1,1.5,4.1,2.2,6.1c0.7,1.9,1.3,3.8,1.8,5.6c0.5,1.8,0.9,3.5,1.2,5.2h0.4
		c0.5-1.9,1.3-4.4,2.3-7.4c1-3.1,2-6.2,3.2-9.4l13-36h10.1l-27,71.2c-1.4,3.8-3.1,7.1-5,10c-1.9,2.8-4.2,5-6.9,6.5s-6,2.3-9.9,2.3
		c-1.8,0-3.3-0.1-4.7-0.3c-1.4-0.2-2.5-0.4-3.5-0.7v-7.5c0.8,0.2,1.8,0.4,3,0.5c1.2,0.2,2.4,0.2,3.7,0.2c2.3,0,4.4-0.4,6.1-1.3
		c1.7-0.9,3.2-2.2,4.4-3.9s2.3-3.7,3.2-6.1l3.4-8.7L859.6,660.2z"/>
	<path class="st1" d="M943.2,660.2h10.1l13.7,36c0.8,2.1,1.5,4.1,2.2,6.1c0.7,1.9,1.3,3.8,1.8,5.6c0.5,1.8,0.9,3.5,1.2,5.2h0.4
		c0.5-1.9,1.3-4.4,2.3-7.4c1-3.1,2-6.2,3.2-9.4l13-36h10.1l-27,71.2c-1.4,3.8-3.1,7.1-5,10c-1.9,2.8-4.2,5-6.9,6.5s-6,2.3-9.9,2.3
		c-1.8,0-3.3-0.1-4.7-0.3c-1.4-0.2-2.5-0.4-3.5-0.7v-7.5c0.8,0.2,1.8,0.4,3,0.5c1.2,0.2,2.4,0.2,3.7,0.2c2.3,0,4.4-0.4,6.1-1.3
		c1.7-0.9,3.2-2.2,4.4-3.9s2.3-3.7,3.2-6.1l3.4-8.7L943.2,660.2z"/>
	<path class="st1" d="M1062.3,691.1c0,5.1-0.7,9.6-2,13.7c-1.3,4-3.2,7.4-5.7,10.1c-2.5,2.8-5.5,4.9-9,6.3c-3.5,1.5-7.5,2.2-12,2.2
		c-4.2,0-8-0.7-11.4-2.2s-6.4-3.6-8.9-6.3c-2.5-2.8-4.5-6.1-5.8-10.1c-1.4-4-2.1-8.6-2.1-13.7c0-6.8,1.2-12.6,3.5-17.4
		c2.3-4.8,5.6-8.4,9.9-10.9c4.3-2.5,9.4-3.8,15.3-3.8c5.7,0,10.6,1.3,14.9,3.8c4.2,2.5,7.6,6.2,9.9,11
		C1061.1,678.6,1062.3,684.4,1062.3,691.1z M1015.1,691.1c0,5,0.7,9.3,2,13c1.3,3.7,3.4,6.5,6.1,8.5c2.8,2,6.3,3,10.6,3
		c4.3,0,7.8-1,10.6-3c2.8-2,4.8-4.8,6.1-8.5c1.3-3.7,2-8,2-13c0-4.9-0.7-9.2-2-12.8c-1.3-3.6-3.4-6.4-6.1-8.4
		c-2.8-2-6.3-2.9-10.7-2.9c-6.5,0-11.2,2.1-14.2,6.4C1016.6,677.7,1015.1,683.6,1015.1,691.1z"/>
	<path class="st1" d="M1127.5,660.2v62.1h-7.7l-1.4-8.7h-0.5c-1.3,2.2-2.9,4-5,5.4s-4.3,2.6-6.9,3.3s-5.3,1.1-8.1,1.1
		c-4.9,0-9-0.8-12.3-2.4c-3.3-1.6-5.8-4-7.5-7.4c-1.7-3.3-2.5-7.6-2.5-12.8v-40.7h9.5v40c0,5.2,1.2,9,3.5,11.6
		c2.3,2.5,5.9,3.8,10.7,3.8c4.6,0,8.3-0.9,11-2.6c2.7-1.7,4.7-4.3,5.9-7.7c1.2-3.4,1.8-7.5,1.8-12.4v-32.7H1127.5z"/>
	<path class="st1" d="M1173.3,659.1c1.2,0,2.5,0.1,3.9,0.2c1.4,0.1,2.6,0.3,3.6,0.5l-1.2,8.7c-1-0.3-2.2-0.5-3.4-0.6
		c-1.2-0.2-2.4-0.2-3.5-0.2c-2.5,0-4.8,0.5-7.1,1.5c-2.2,1-4.1,2.4-5.8,4.3c-1.7,1.9-3,4.1-3.9,6.7c-0.9,2.6-1.4,5.5-1.4,8.8v33.3
		h-9.5v-62.1h7.8l1,11.4h0.4c1.3-2.3,2.8-4.4,4.6-6.3c1.8-1.9,3.9-3.4,6.3-4.6C1167.6,659.6,1170.3,659.1,1173.3,659.1z"/>
	<path class="st1" d="M1258.1,705.3c0,4-1,7.3-3,10c-2,2.7-4.8,4.7-8.5,6.1s-8.1,2-13.2,2c-4.3,0-8.1-0.3-11.3-1s-5.9-1.6-8.3-2.9
		v-8.7c2.5,1.2,5.6,2.4,9.1,3.4s7.1,1.5,10.8,1.5c5.4,0,9.3-0.9,11.7-2.6c2.4-1.7,3.6-4.1,3.6-7.1c0-1.7-0.5-3.2-1.4-4.5
		s-2.6-2.6-4.8-3.8c-2.3-1.2-5.4-2.6-9.4-4c-4-1.5-7.4-3-10.3-4.5c-2.9-1.5-5.1-3.3-6.7-5.5c-1.6-2.2-2.4-4.9-2.4-8.4
		c0-5.2,2.1-9.3,6.4-12.1c4.2-2.8,9.8-4.2,16.7-4.2c3.7,0,7.2,0.4,10.5,1.1c3.3,0.7,6.3,1.7,9.1,3l-3.2,7.5c-2.6-1.1-5.3-2-8.2-2.8
		c-2.9-0.8-5.9-1.1-8.9-1.1c-4.3,0-7.7,0.7-10,2.2c-2.3,1.4-3.5,3.4-3.5,5.9c0,1.9,0.5,3.5,1.6,4.8s2.8,2.4,5.2,3.5
		c2.4,1.1,5.5,2.4,9.4,3.9c3.9,1.4,7.2,2.9,10.1,4.4s5,3.4,6.5,5.6C1257.3,699.1,1258.1,701.9,1258.1,705.3z"/>
	<path class="st1" d="M1275.7,637c1.5,0,2.9,0.5,4,1.5c1.1,1,1.7,2.6,1.7,4.7c0,2.1-0.6,3.6-1.7,4.6c-1.1,1-2.4,1.5-4,1.5
		c-1.6,0-3-0.5-4-1.5s-1.6-2.6-1.6-4.6c0-2.1,0.5-3.7,1.6-4.7C1272.8,637.5,1274.1,637,1275.7,637z M1280.3,660.2v62.1h-9.4v-62.1
		H1280.3z"/>
	<path class="st1" d="M1320,723.4c-7.9,0-14.1-2.7-18.7-8c-4.6-5.4-6.9-13.3-6.9-23.9c0-10.7,2.3-18.8,7-24.2
		c4.7-5.5,10.9-8.2,18.7-8.2c3.3,0,6.2,0.4,8.6,1.3c2.5,0.9,4.6,2,6.3,3.5c1.8,1.5,3.3,3.1,4.5,5h0.7c-0.2-1.2-0.3-2.8-0.5-4.8
		c-0.2-2-0.2-3.7-0.2-5v-24.9h9.4v88.1h-7.6l-1.4-8.8h-0.4c-1.2,1.9-2.7,3.5-4.4,5c-1.8,1.5-3.9,2.7-6.4,3.6
		C1326.2,723,1323.3,723.4,1320,723.4z M1321.4,715.6c6.6,0,11.3-1.9,14.1-5.7c2.8-3.8,4.1-9.4,4.1-16.8v-1.7c0-7.9-1.3-14-3.9-18.2
		c-2.6-4.2-7.4-6.3-14.3-6.3c-5.8,0-10.1,2.2-13,6.7c-2.9,4.4-4.3,10.5-4.3,18.2c0,7.6,1.4,13.5,4.3,17.7
		C1311.3,713.5,1315.6,715.6,1321.4,715.6z"/>
	<path class="st1" d="M1390.4,659.1c5.3,0,9.8,1.2,13.6,3.5c3.8,2.3,6.7,5.6,8.7,9.8c2,4.2,3,9.1,3,14.8v5.8h-42.9
		c0.1,7.3,1.9,12.8,5.4,16.7c3.5,3.8,8.5,5.7,14.8,5.7c3.9,0,7.4-0.4,10.4-1.1c3-0.7,6.2-1.8,9.4-3.2v8.3c-3.1,1.4-6.2,2.4-9.3,3.1
		c-3.1,0.6-6.7,1-10.9,1c-6,0-11.2-1.2-15.6-3.7c-4.4-2.4-7.9-6-10.3-10.7c-2.5-4.7-3.7-10.5-3.7-17.3c0-6.7,1.1-12.5,3.4-17.4
		c2.2-4.9,5.4-8.7,9.5-11.3C1380.1,660.4,1384.9,659.1,1390.4,659.1z M1390.3,666.8c-5,0-9,1.6-12,4.9c-3,3.3-4.8,7.9-5.3,13.8h32.9
		c0-3.7-0.6-7-1.7-9.8c-1.1-2.8-2.8-5-5.1-6.6C1396.8,667.6,1393.9,666.8,1390.3,666.8z"/>
	<path class="st1" d="M1440.1,708.8l0.7,1.3c-0.7,2.8-1.5,5.7-2.6,8.8c-1,3.1-2.2,6.3-3.4,9.4c-1.2,3.2-2.5,6.1-3.7,8.9h-7
		c0.8-3,1.6-6.2,2.3-9.5c0.8-3.3,1.4-6.6,2.1-9.9c0.6-3.3,1.1-6.3,1.5-9H1440.1z"/>
	<path class="st1" d="M1512.5,667.6H1497v54.7h-9.4v-54.7h-11V663l11-3.1v-4.1c0-5.2,0.8-9.4,2.3-12.7c1.5-3.3,3.8-5.7,6.7-7.2
		c2.9-1.5,6.5-2.3,10.8-2.3c2.4,0,4.6,0.2,6.5,0.6c2,0.4,3.7,0.9,5.2,1.4l-2.4,7.4c-1.3-0.4-2.7-0.8-4.3-1.2
		c-1.6-0.4-3.2-0.5-4.9-0.5c-3.6,0-6.2,1.2-8,3.5c-1.7,2.3-2.6,6-2.6,10.9v4.5h15.5V667.6z"/>
	<path class="st1" d="M1575.1,691.1c0,5.1-0.7,9.6-2,13.7c-1.3,4-3.2,7.4-5.7,10.1c-2.5,2.8-5.5,4.9-9,6.3c-3.5,1.5-7.5,2.2-12,2.2
		c-4.2,0-8-0.7-11.4-2.2s-6.4-3.6-8.9-6.3c-2.5-2.8-4.5-6.1-5.8-10.1c-1.4-4-2.1-8.6-2.1-13.7c0-6.8,1.2-12.6,3.5-17.4
		c2.3-4.8,5.6-8.4,9.9-10.9c4.3-2.5,9.4-3.8,15.3-3.8c5.7,0,10.6,1.3,14.9,3.8c4.2,2.5,7.6,6.2,9.9,11
		C1573.9,678.6,1575.1,684.4,1575.1,691.1z M1527.8,691.1c0,5,0.7,9.3,2,13c1.3,3.7,3.4,6.5,6.1,8.5c2.8,2,6.3,3,10.6,3
		c4.3,0,7.8-1,10.6-3c2.8-2,4.8-4.8,6.1-8.5c1.3-3.7,2-8,2-13c0-4.9-0.7-9.2-2-12.8c-1.3-3.6-3.4-6.4-6.1-8.4
		c-2.8-2-6.3-2.9-10.7-2.9c-6.5,0-11.2,2.1-14.2,6.4C1529.3,677.7,1527.8,683.6,1527.8,691.1z"/>
	<path class="st1" d="M1617.2,659.1c1.2,0,2.5,0.1,3.9,0.2c1.4,0.1,2.6,0.3,3.6,0.5l-1.2,8.7c-1-0.3-2.2-0.5-3.4-0.6
		c-1.2-0.2-2.4-0.2-3.5-0.2c-2.5,0-4.8,0.5-7.1,1.5c-2.2,1-4.1,2.4-5.8,4.3c-1.7,1.9-3,4.1-3.9,6.7c-0.9,2.6-1.4,5.5-1.4,8.8v33.3
		h-9.5v-62.1h7.8l1,11.4h0.4c1.3-2.3,2.8-4.4,4.6-6.3c1.8-1.9,3.9-3.4,6.3-4.6C1611.6,659.6,1614.3,659.1,1617.2,659.1z"/>
	<path class="st1" d="M1671.4,722.3h-9.5v-88.1h9.5V722.3z"/>
	<path class="st1" d="M1693.7,637c1.5,0,2.9,0.5,4,1.5c1.1,1,1.7,2.6,1.7,4.7c0,2.1-0.6,3.6-1.7,4.6c-1.1,1-2.4,1.5-4,1.5
		c-1.6,0-3-0.5-4-1.5s-1.6-2.6-1.6-4.6c0-2.1,0.5-3.7,1.6-4.7C1690.7,637.5,1692.1,637,1693.7,637z M1698.3,660.2v62.1h-9.4v-62.1
		H1698.3z"/>
	<path class="st1" d="M1743.5,667.6H1728v54.7h-9.4v-54.7h-11V663l11-3.1v-4.1c0-5.2,0.8-9.4,2.3-12.7c1.5-3.3,3.8-5.7,6.7-7.2
		c2.9-1.5,6.5-2.3,10.8-2.3c2.4,0,4.6,0.2,6.5,0.6c2,0.4,3.7,0.9,5.2,1.4l-2.4,7.4c-1.3-0.4-2.7-0.8-4.3-1.2
		c-1.6-0.4-3.2-0.5-4.9-0.5c-3.6,0-6.2,1.2-8,3.5c-1.7,2.3-2.6,6-2.6,10.9v4.5h15.5V667.6z"/>
	<path class="st1" d="M1776.5,659.1c5.3,0,9.8,1.2,13.6,3.5c3.8,2.3,6.7,5.6,8.7,9.8c2,4.2,3,9.1,3,14.8v5.8h-42.9
		c0.1,7.3,1.9,12.8,5.4,16.7c3.5,3.8,8.5,5.7,14.8,5.7c3.9,0,7.4-0.4,10.4-1.1c3-0.7,6.2-1.8,9.4-3.2v8.3c-3.1,1.4-6.2,2.4-9.3,3.1
		c-3.1,0.6-6.7,1-10.9,1c-6,0-11.2-1.2-15.6-3.7c-4.4-2.4-7.9-6-10.3-10.7c-2.5-4.7-3.7-10.5-3.7-17.3c0-6.7,1.1-12.5,3.4-17.4
		c2.2-4.9,5.4-8.7,9.5-11.3C1766.1,660.4,1770.9,659.1,1776.5,659.1z M1776.3,666.8c-5,0-9,1.6-12,4.9c-3,3.3-4.8,7.9-5.3,13.8h32.9
		c0-3.7-0.6-7-1.7-9.8c-1.1-2.8-2.8-5-5.1-6.6C1782.8,667.6,1779.9,666.8,1776.3,666.8z"/>
</g>
<rect x="72.5" y="73.4" class="st1" width="192.7" height="646.6"/>
<rect x="511.1" y="73.4" class="st1" width="192.7" height="646.6"/>
<path class="st1" d="M419.6,73.4H295.9v300.8h123.8c40.1,0,60.8-37.9,60.8-72.5V145.9C480.4,111.2,459.8,73.4,419.6,73.4"/>
<path class="st1" d="M419.6,411.2H295.9V720h123.8c40.1,0,60.8-38.9,60.8-74.5V485.7C480.4,450.1,459.8,411.2,419.6,411.2"/>
<g>
	<path class="st1" d="M847.5,267.7c20.4,0,34.8-0.9,43.6-6.9c8.8-5.9,14.1-16.3,14.1-28.5c0-14.1-5.9-25.1-17.2-31
		c-8.5-4.4-18.5-5-29.5-5h-23.5v71.4L847.5,267.7L847.5,267.7z M848.7,168.6c32.9,0,47.6-7.5,47.6-31c0-27.9-15.4-33.2-47.6-33.2
		h-13.8v64.2H848.7z M799.2,74h56.4c23.8,0,41.7,0.9,55.5,11.3c13.8,10,21.9,27.3,21.9,47.3c0,23.9-11.3,40.4-32.3,46.7
		c26,4.1,42,25.1,42,55.2c0,18.4-6.9,35.4-18.2,46.7c-16,16-37.3,16.9-68.6,16.9h-56.7L799.2,74L799.2,74z"/>
	<polygon class="st1" points="979.8,298 1104.8,298 1104.8,265.5 1016.1,265.5 1016.1,193.1 1104.8,193.1 1104.8,161.1 
		1016.1,161.1 1016.1,105 1104.8,105 1104.8,74 979.8,74 	"/>
	<path class="st1" d="M1162.8,239.8c5.3,20.1,20.3,30.7,43.2,30.7s35.4-13.1,35.4-33.2c0-21.9-16.6-27.3-39.8-38.6
		c-39.8-19.4-61.7-34.5-61.7-68.3c0-36,26.6-61.4,67.3-61.4c33.2,0,56.1,13.5,64.6,37l-28.6,14.7c-8.8-13.8-19.1-20.3-33.2-20.3
		c-19.7,0-32,11.3-32,28.2c0,21.6,17.6,28.2,42.6,39.8c39.5,18.2,58,34.2,58,66.5c0,41.7-27.9,69.2-74.3,69.2
		c-38.2,0-63.3-18.2-70.8-50.8L1162.8,239.8L1162.8,239.8z"/>
	<rect x="1319.1" y="74" class="st1" width="36.3" height="224"/>
	<path class="st1" d="M1407.8,298h33.5V142.3c6.2,8.8,13.5,17.2,21.6,25.1L1608,306.8V74h-33.5v155.4c-7.5-9.4-15.4-18.5-24.5-27.3
		L1407.8,65.2V298z"/>
	<path class="st1" d="M1646.6,253.2c7.6,32.6,32.6,50.8,70.9,50.8c46.4,0,74.2-27.6,74.2-69.2c0-32.3-18.5-48.3-58-66.5
		c-25.1-11.6-42.6-18.1-42.6-39.8c0-16.9,12.2-28.2,32-28.2c14,0,24.4,6.6,33.2,20.3l28.5-14.7c-8.5-23.5-31.3-37-64.5-37
		c-40.8,0-67.4,25.4-67.4,61.5c0,33.8,21.9,48.9,61.7,68.3c23.2,11.3,39.8,16.6,39.8,38.6c0,20.1-13.6,33.2-35.4,33.2
		s-38-10.6-43.3-30.7L1646.6,253.2L1646.6,253.2z"/>
	<polygon class="st1" points="880.3,431.5 880.3,378.8 894.8,378.8 894.8,508.8 880.3,508.8 880.3,445 813.7,445 813.7,508.8 
		799.2,508.8 799.2,378.8 813.7,378.8 813.7,431.5 	"/>
	<polygon class="st1" points="921.7,508.8 989.2,508.8 989.2,495.4 936.2,495.4 936.2,444.3 987.5,444.3 987.5,430.9 936.2,430.9 
		936.2,392.2 989.2,392.2 989.2,378.8 921.7,378.8 	"/>
	<path class="st1" d="M1061.4,406.4l-22.3,52.1h44L1061.4,406.4L1061.4,406.4z M1033.3,471.9l-15.7,36.9h-15.9l60.1-136.3
		l58.4,136.3h-16l-15.4-36.9H1033.3L1033.3,471.9z"/>
	<polygon class="st1" points="1148.9,495.4 1184.8,495.4 1184.8,508.8 1134.4,508.8 1134.4,378.8 1148.9,378.8 	"/>
	<polygon class="st1" points="1219.8,508.8 1205.3,508.8 1205.3,392.2 1173.9,392.2 1173.9,378.8 1251.6,378.8 1251.6,392.2 
		1219.8,392.2 	"/>
	<polygon class="st1" points="1281.6,431.5 1281.6,378.8 1267.1,378.8 1267.1,508.8 1281.6,508.8 1281.6,445 1348.2,445 
		1348.2,508.8 1362.6,508.8 1362.6,378.8 1348.2,378.8 1348.2,431.5 	"/>
	<path class="st1" d="M1488.8,407.2c-10.3-10.7-24.7-17.2-39.7-17.2c-28.9,0-52.4,25.2-52.4,53.8s23.6,53.8,52.8,53.8
		c14.7,0,29-6.9,39.3-17.2v17.9c-11.2,8.1-25,12.8-38.8,12.8c-36.8,0-67.8-29.9-67.8-66.8s30.5-67.8,67.8-67.8
		c14.5,0,27.3,4.2,38.8,12.8V407.2L1488.8,407.2z"/>
	<path class="st1" d="M1560.9,406.4l-22.3,52.1h44L1560.9,406.4z M1532.8,471.9l-15.7,36.9h-15.9l60-136.3l58.5,136.3h-16
		l-15.4-36.9H1532.8z"/>
	<path class="st1" d="M1648.3,439h4.5c16.4,0,33-3.1,33-23.3c0-21.4-15.7-23.4-33.1-23.4h-4.3V439L1648.3,439z M1648.3,508.8h-14.5
		V378.8h18.8c24.7,0,47.6,6.6,47.6,35.9c0,20-12.6,34.1-32.6,35.9l41.4,58.3h-17.8l-39.3-57.1h-3.7L1648.3,508.8L1648.3,508.8z"/>
	<polygon class="st1" points="1726,508.6 1793.5,508.6 1793.5,495.2 1740.5,495.2 1740.5,444.1 1791.9,444.1 1791.9,430.7 
		1740.5,430.7 1740.5,392 1793.5,392 1793.5,378.6 1726,378.6 	"/>
	<rect x="799.2" y="559.7" class="st1" width="992.8" height="9.3"/>
</g>
</svg>
