<svg width="266" height="59" viewBox="0 0 266 59" fill="none" xmlns="http://www.w3.org/2000/svg">
<path fill-rule="evenodd" clip-rule="evenodd" d="M15.76 13.57C13.1135 13.5781 10.5135 14.2669 8.20999 15.57V0H0V43.93H8.20999V42.61C10.2775 43.7763 12.5852 44.4521 14.9552 44.5854C17.3252 44.7187 19.6941 44.3059 21.8793 43.3788C24.0645 42.4517 26.0076 41.035 27.5587 39.2382C29.1098 37.4413 30.2275 35.3122 30.8255 33.015C31.4236 30.7179 31.486 28.314 31.0081 25.9889C30.5301 23.6638 29.5245 21.4795 28.0688 19.6045C26.6131 17.7295 24.7462 16.2139 22.6121 15.1746C20.478 14.1353 18.1337 13.6 15.76 13.61V13.57ZM21.4364 25.2752C19.5472 24.3078 17.2263 25.0568 16.2589 26.946C17.2263 25.0568 16.4773 22.7358 14.5881 21.7685L11.1345 20L9.3811 23.4241C8.41373 25.3133 9.14832 27.5896 10.9929 28.5714C9.94031 28.5168 8.91159 29.0705 8.39767 30.0741C7.70239 31.432 8.24973 33.1281 9.60757 33.8234C10.9654 34.5187 12.6615 33.9713 13.3568 32.6135C12.6615 33.9713 13.2088 35.6674 14.5667 36.3627C15.9245 37.058 17.6205 36.5107 18.3159 35.1528C18.8298 34.1492 18.6778 32.9909 18.0182 32.1688C19.893 33.0915 22.1844 32.3274 23.1367 30.4678L24.89 27.0437L21.4364 25.2752Z" fill="#7EA6D9"/>
<path d="M148.62 24.4846L153.41 26.5345C158.13 28.4346 160.507 31.3612 160.54 35.3145C160.598 36.7134 160.305 38.1046 159.686 39.3607C159.068 40.6168 158.144 41.6978 157 42.5045C154.658 44.1314 151.85 44.9527 149 44.8446C146.152 44.9202 143.375 43.9448 141.2 42.1045C140.146 41.2022 139.287 40.0934 138.679 38.8464C138.07 37.5993 137.723 36.2407 137.66 34.8545H145.59C145.703 37.1345 146.94 38.2746 149.3 38.2746C151.507 38.2812 152.61 37.3512 152.61 35.4846C152.61 34.1512 151.373 32.9912 148.9 32.0045C144.753 30.3112 142.453 29.3112 142 29.0045C140.872 28.4109 139.928 27.5207 139.269 26.4299C138.609 25.3391 138.261 24.0891 138.26 22.8145C138.234 21.4715 138.52 20.1408 139.094 18.9265C139.668 17.7122 140.516 16.6471 141.57 15.8145C143.687 14.1181 146.338 13.2286 149.05 13.3045C155.497 13.3045 159.053 16.3479 159.72 22.4345H151.85C151.85 20.7212 150.85 19.8645 148.85 19.8645C147.063 19.8645 146.17 20.6445 146.17 22.2045C146.17 23.0579 146.987 23.8178 148.62 24.4846Z" fill="#7EA6D9"/>
<path fill-rule="evenodd" clip-rule="evenodd" d="M81.4601 15.57C83.7604 14.2681 86.3568 13.5794 89 13.57L89.04 13.61C91.4142 13.5984 93.7592 14.1324 95.8942 15.1707C98.0293 16.2091 99.8973 17.724 101.354 19.5986C102.811 21.4732 103.818 23.6574 104.297 25.9828C104.776 28.3081 104.714 30.7124 104.117 33.0101C103.519 35.3079 102.402 37.4377 100.851 39.2353C99.3002 41.0328 97.357 42.4501 95.1716 43.3777C92.9862 44.3053 90.6169 44.7185 88.2464 44.5854C85.876 44.4523 83.5678 43.7765 81.5 42.61V43.93H73.29V0H81.4601V15.57ZM96.9122 26.8867C96.9122 27.2833 96.8725 27.6799 96.7535 28.0765C95.643 32.4788 89.4561 37 89.4561 37C89.4561 37 83.3088 32.4788 82.1983 28.0765C82.0793 27.6799 82 27.2833 82 26.8867V26.7281C82.119 24.6657 83.8243 23 85.9263 23C87.4731 23 88.8215 23.9122 89.4561 25.2606C90.051 23.9122 91.3994 23 92.9858 23C95.0878 23 96.8328 24.6657 96.9122 26.7281V26.8867Z" fill="#7EA6D9"/>
<path d="M173.38 14.78C175.17 13.9784 177.109 13.566 179.07 13.57C182.615 13.5528 186.032 14.8917 188.622 17.3123C191.212 19.7329 192.778 23.0521 193 26.59V43.93H184.75V27.47C184.75 25.9609 184.15 24.5136 183.083 23.4466C182.016 22.3795 180.569 21.78 179.06 21.78C177.551 21.78 176.104 22.3795 175.036 23.4466C173.969 24.5136 173.37 25.9609 173.37 27.47V43.93H165.16V0H173.38V14.78Z" fill="#7EA6D9"/>
<path fill-rule="evenodd" clip-rule="evenodd" d="M56.9045 15.5299C54.5453 14.2154 51.8835 13.5401 49.1828 13.571C46.4822 13.6018 43.8366 14.3378 41.508 15.706C39.1794 17.0742 37.2487 19.0271 35.9073 21.3712C34.5658 23.7152 33.8601 26.3691 33.8601 29.0699C33.8601 31.7707 34.5658 34.4246 35.9073 36.7687C37.2487 39.1128 39.1794 41.0656 41.508 42.4338C43.8366 43.802 46.4822 44.538 49.1828 44.5689C51.8835 44.5998 54.5453 43.9245 56.9045 42.6099V43.9299H65.1245V14.2099H56.9045V15.5299ZM49.3545 37.2499C47.7371 37.2479 46.1566 36.7665 44.8127 35.8665C43.4688 34.9664 42.4219 33.6882 41.8043 32.1933C41.1867 30.6985 41.0262 29.054 41.3429 27.4679C41.6597 25.8818 42.4395 24.4252 43.5839 23.2823C44.7283 22.1393 46.1859 21.3612 47.7724 21.0464C49.3589 20.7316 51.0031 20.8942 52.4972 21.5136C53.9913 22.133 55.2683 23.1814 56.1666 24.5264C57.065 25.8714 57.5445 27.4525 57.5445 29.0699C57.5427 30.1617 57.3252 31.2424 56.9045 32.2499C56.2783 33.7342 55.2277 35.0005 53.8845 35.8899C52.5414 36.7794 50.9655 37.2525 49.3545 37.2499Z" fill="#7EA6D9"/>
<path d="M114.48 14.21L121.12 31.93L127.78 14.21H136.19L119.66 58.22H111.24L116.96 43.02L106.07 14.21H114.48Z" fill="#7EA6D9"/>
<path fill-rule="evenodd" clip-rule="evenodd" d="M204.199 16.1822C206.748 14.479 209.744 13.5699 212.81 13.5699C216.921 13.5699 220.863 15.203 223.77 18.1098C226.677 21.0166 228.31 24.959 228.31 29.0699C228.31 32.1355 227.401 35.1323 225.698 37.6812C223.995 40.2302 221.574 42.2169 218.742 43.39C215.909 44.5632 212.793 44.8701 209.786 44.2721C206.779 43.674 204.018 42.1978 201.85 40.0301C199.682 37.8623 198.206 35.1005 197.608 32.0938C197.01 29.0871 197.317 25.9706 198.49 23.1384C199.663 20.3061 201.65 17.8853 204.199 16.1822ZM212.5 33.4973L216.003 37L220 33.0027L216.497 29.5L220 25.9972L216.003 22L212.5 25.5027L208.997 22L205 25.9972L208.503 29.5L205 33.0027L208.997 37L212.5 33.4973Z" fill="#7EA6D9"/>
<path fill-rule="evenodd" clip-rule="evenodd" d="M242.07 15.5699C244.373 14.2664 246.973 13.5776 249.62 13.5699V13.6099C251.994 13.5999 254.338 14.1352 256.472 15.1745C258.606 16.2139 260.473 17.7295 261.929 19.6045C263.385 21.4795 264.39 23.6637 264.868 25.9888C265.346 28.3139 265.284 30.7178 264.686 33.0149C264.088 35.3121 262.97 37.4412 261.419 39.2381C259.868 41.0349 257.925 42.4516 255.739 43.3787C253.554 44.3058 251.185 44.7186 248.815 44.5853C246.445 44.452 244.138 43.7762 242.07 42.6099V58.1699H233.85V14.2499H242.07V15.5699ZM245.091 35.8883C246.434 36.7776 248.009 37.2512 249.62 37.2499C251.101 37.2494 252.554 36.8475 253.825 36.0867C255.095 35.326 256.136 34.235 256.836 32.9299C257.535 31.6247 257.868 30.1543 257.798 28.675C257.729 27.1958 257.26 25.7631 256.44 24.5294C255.621 23.2957 254.483 22.3073 253.146 21.6692C251.81 21.0311 250.326 20.7673 248.851 20.9059C247.377 21.0444 245.968 21.5802 244.773 22.4561C243.579 23.332 242.645 24.5152 242.07 25.8799C241.645 26.888 241.426 27.9709 241.426 29.0649C241.426 30.1589 241.645 31.2418 242.07 32.2499C242.697 33.7334 243.748 34.9989 245.091 35.8883Z" fill="#7EA6D9"/>
</svg>
