<?xml version="1.0" encoding="UTF-8"?><svg id="a" xmlns="http://www.w3.org/2000/svg" width="704.8563" height="140" viewBox="0 0 704.8563 140"><path d="m223.20629,105h47.29999v-15.20001h-29.29999v-12.75h25.95001v-14.14999h-25.95001v-12.75h29.29999v-15.14999h-47.29999v70Zm106-30.14999c-6.85001,10.89999-13.5,15.44998-22.04999,15.44998-11.10001,0-17.55002-7.79999-17.55002-21.35001,0-12.84998,5.95001-19.25,15.10001-19.25,6.04999,0,11.04999,2.70001,12.60001,11.70001h18c-1.95001-17.14999-12.89999-27.79999-30.39999-27.79999-20.30002,0-33.65002,14.34998-33.65002,36.34998,0,22.15002,13.35001,36.45001,35.30002,36.45001,14.35001,0,24.10001-6,30.54999-14.10001h24.55002v12.70001h17.89999V35h-25.39999l-24.95001,39.85001Zm32.45001,3.39999h-15.85001l15.85001-25.75v25.75Zm-176.85001-43.25h-26.30002v70h26.30002c20.85001,0,34.29999-13.75,34.29999-35s-13.44998-35-34.29999-35Zm-.25,54.79999h-8.05002v-39.64999h8.05002c10.39999,0,16.25,7.35001,16.25,19.85001,0,12.44998-5.85001,19.79999-16.25,19.79999Zm401.59998-56.19998c-21.14999,0-35.34998,14.34998-35.34998,36.39999s14.19998,36.39999,35.34998,36.39999c21.20001,0,35.35001-14.35001,35.35001-36.39999s-14.14999-36.39999-35.35001-36.39999Zm0,56.69998c-10.39999,0-16.94998-6.94998-16.94998-20.29999s6.54999-20.30002,16.94998-20.30002c10.45001,0,16.95001,6.95001,16.95001,20.30002s-6.5,20.29999-16.95001,20.29999Zm-202.09998-40.14999h17.64999v54.85001h18v-54.85001h17.64999v-15.14999h-53.29999v15.14999Zm283.39999-15.14999v38.54999l-23.20001-38.54999h-18.64999v70h17.39999v-40.14999l24.14999,40.14999h17.70001V35h-17.39999Zm-142.14999,0h-18v70h45.14999v-15.14999h-27.14999v-54.85001Zm-41.20001,26.69998h-24.25v-26.69998h-18v70h18v-28.20001h24.25v28.20001h18V35h-18v26.69998Z" style="fill:#3643ba;"/><path d="m107.70702,20c-39.08682,0-87.707,40.44153-87.707,73.95886,0,17.31058,13.29654,26.04114,30.858,26.04114,12.89514,0,28.49976-4.71652,43.55246-13.79831V39.3176c-4.01407,6.87405-22.8801,34.57101-38.03314,49.32263-7.72702,7.52634-13.84845,10.78775-19.11688,10.78775-5.92075,0-8.73056-4.01404-8.73056-9.98492,0-27.09485,45.60962-62.31812,75.81534-62.31812,12.44357,0,20.47165,5.51932,20.47165,16.2569,0,9.83441-6.67334,22.17761-18.0632,33.56747v20.72253c19.86954-15.70496,31.76114-35.72504,31.76114-51.88159,0-17.00952-13.24634-25.79025-30.8078-25.79025Z" style="fill:#3643ba;"/></svg>