<svg xmlns="http://www.w3.org/2000/svg" xmlns:xlink="http://www.w3.org/1999/xlink" width="24" height="24" viewBox="0 0 24 24"><defs><clipPath id="a"><path d="M199,0a12,12,0,0,0,12-12,12,12,0,0,0-12-12,12,12,0,0,0-12,12A12,12,0,0,0,199,0Z" fill="#002c6c" clip-rule="evenodd"/></clipPath><clipPath id="b"><path d="M206.2-11v4.9h-2.9v-4.6c0-1.2-.4-2-1.5-2a1.577,1.577,0,0,0-1.5,1,1.483,1.483,0,0,0-.1.7v4.8h-2.9v-8.6h2.9v1.2h0a2.893,2.893,0,0,1,2.6-1.4c2,.1,3.4,1.3,3.4,4Zm-11.8-7.9a1.446,1.446,0,0,0-1.6,1.5,1.5,1.5,0,0,0,1.6,1.5h0a1.5,1.5,0,0,0,1.6-1.5,1.5,1.5,0,0,0-1.6-1.5ZM193-6.1h2.9v-8.6H193Z" fill="none"/></clipPath></defs><g transform="translate(-187 24)" clip-path="url(#a)"><path d="M182-29h34V5H182Z" fill="#002c6c"/></g><g transform="translate(-187 24)" clip-path="url(#b)"><path d="M187.8-23.9h23.4V-1.1H187.8Z" fill="#f0f1f1"/></g></svg>