<svg xmlns="http://www.w3.org/2000/svg" width="80" height="12" viewBox="0 0 80 12" fill="none"><path d="M5.81703 9C6.20103 8.352 6.20103 8.352 6.20103 8.04V4.98H1.96503V8.064C1.96503 8.364 1.96503 8.364 2.33703 9H0.333031C0.705031 8.352 0.705031 8.352 0.705031 8.04V1.536C0.705031 1.236 0.705031 1.236 0.333031 0.599999H2.33703C1.96503 1.248 1.96503 1.248 1.96503 1.56V4.2H6.20103V1.536C6.20103 1.236 6.20103 1.236 5.81703 0.599999H7.83303C7.46103 1.248 7.46103 1.248 7.46103 1.56V8.064C7.46103 8.364 7.46103 8.364 7.83303 9H5.81703ZM12.1399 9.18C10.3519 9.18 9.04391 7.908 9.04391 6.072C9.04391 4.236 10.3519 2.976 12.1399 2.976C13.9279 2.976 15.2359 4.236 15.2359 6.072C15.2359 7.908 13.9279 9.18 12.1399 9.18ZM10.3159 5.868C10.3159 7.416 11.0599 8.424 12.1999 8.424C13.2679 8.424 13.9639 7.596 13.9639 6.276C13.9639 4.74 13.2199 3.744 12.0799 3.744C10.9999 3.744 10.3159 4.56 10.3159 5.868ZM17.766 3.156C17.406 3.78 17.406 3.78 17.598 4.296L18.786 7.44L20.49 3.108H21.138L22.89 7.44L24.066 4.332C24.282 3.744 24.282 3.744 23.898 3.156H25.494C25.158 3.744 25.158 3.744 24.918 4.344L22.986 9.096H22.398L20.622 4.728L18.834 9.096H18.258L16.35 4.38C16.086 3.708 16.086 3.708 15.762 3.156H17.766ZM30.7409 1.488C30.7409 1.128 30.7409 0.864 30.2609 0.468L31.9409 0.132V7.98C31.9409 8.304 31.9409 8.412 32.3609 8.844L30.7409 9.096V8.136C30.3329 8.784 29.6009 9.18 28.7249 9.18C27.1649 9.18 26.0009 8.016 26.0009 6.156C26.0009 4.356 27.1649 2.976 28.9889 2.976C29.6969 2.976 30.3089 3.204 30.7409 3.552V1.488ZM27.2609 5.94C27.2609 7.296 27.9809 8.232 29.2049 8.232C29.8889 8.232 30.4529 7.932 30.7409 7.344V4.944C30.4889 4.2 29.8889 3.732 29.0369 3.732C28.0649 3.732 27.2609 4.5 27.2609 5.94ZM36.5023 9.18C34.7023 9.18 33.4423 8.04 33.4423 6.108C33.4423 4.38 34.4743 2.976 36.3223 2.976C38.0983 2.976 39.1183 4.128 39.1063 5.868H34.6543C34.6543 7.344 35.6623 8.136 37.0183 8.136C37.8943 8.136 38.6143 7.86 39.0103 7.284C38.9023 8.376 38.0383 9.18 36.5023 9.18ZM34.6663 5.304H37.8703C37.8583 4.32 37.3063 3.552 36.2863 3.552C35.3143 3.552 34.7383 4.224 34.6663 5.304ZM44.2509 9C44.6229 8.484 44.6229 8.472 44.6229 8.1V5.448C44.6229 4.488 44.0709 3.948 43.2189 3.948C42.5349 3.948 42.0669 4.248 41.7669 4.8V8.076C41.7669 8.424 41.7669 8.424 42.1389 9H40.1829C40.5669 8.484 40.5669 8.472 40.5669 8.1V4.44C40.5669 4.068 40.5669 3.804 40.1469 3.42L41.7669 3.072V4.092C42.1989 3.36 42.8949 2.976 43.7349 2.976C45.0189 2.976 45.8229 3.84 45.8229 5.148V8.088C45.8229 8.436 45.8229 8.436 46.1949 9H44.2509ZM50.5228 9C50.8948 8.352 50.8948 8.352 50.8948 8.04V0.972L50.5588 0.599999H52.0588L56.9308 6.78V1.548C56.9308 1.236 56.9308 1.236 56.4388 0.599999H58.1668C57.7828 1.248 57.7828 1.248 57.7828 1.56V9.096H57.1828L51.7588 2.316V8.052C51.7588 8.364 51.7588 8.364 52.2628 9H50.5228ZM64.2013 9.18C63.5773 9.18 63.1933 8.844 63.0853 8.244C62.7373 8.772 62.0533 9.18 61.2493 9.18C60.1453 9.18 59.3533 8.544 59.3533 7.632C59.3533 6.696 60.1093 6.084 61.4293 5.856L63.0613 5.58V5.424C63.0613 4.452 62.4853 3.912 61.4413 3.912C60.5653 3.912 59.9533 4.248 59.5093 4.956C59.6533 3.684 60.5653 2.976 61.9213 2.976C63.4213 2.976 64.2613 3.792 64.2613 5.304V7.656C64.2613 8.052 64.4773 8.28 64.8373 8.28C65.0773 8.28 65.2813 8.196 65.4253 8.016C65.3653 8.736 64.8613 9.18 64.2013 9.18ZM60.5893 7.404C60.5893 7.992 61.0693 8.328 61.7413 8.328C62.3413 8.328 62.7973 8.064 63.0613 7.656V6.096L61.7293 6.348C60.9373 6.48 60.5893 6.888 60.5893 7.404ZM66.4293 4.44C66.4293 4.068 66.4293 3.804 66.0213 3.42L67.6413 3.072V4.008C68.0493 3.372 68.7813 2.976 69.6453 2.976C71.2053 2.976 72.3813 4.14 72.3813 6.012C72.3813 7.8 71.2173 9.18 69.3933 9.18C68.6733 9.18 68.0733 8.952 67.6413 8.604V10.236C67.6413 10.584 67.6413 10.584 68.0733 11.16H66.0573C66.4293 10.644 66.4293 10.632 66.4293 10.26V4.44ZM67.6413 7.212C67.8933 7.968 68.4813 8.436 69.3453 8.436C70.3173 8.436 71.1213 7.656 71.1213 6.228C71.1213 4.872 70.4013 3.924 69.1653 3.924C68.4933 3.924 67.9293 4.224 67.6413 4.812V7.212ZM78.299 9.18C77.675 9.18 77.291 8.844 77.183 8.244C76.835 8.772 76.151 9.18 75.347 9.18C74.243 9.18 73.451 8.544 73.451 7.632C73.451 6.696 74.207 6.084 75.527 5.856L77.159 5.58V5.424C77.159 4.452 76.583 3.912 75.539 3.912C74.663 3.912 74.051 4.248 73.607 4.956C73.751 3.684 74.663 2.976 76.019 2.976C77.519 2.976 78.359 3.792 78.359 5.304V7.656C78.359 8.052 78.575 8.28 78.935 8.28C79.175 8.28 79.379 8.196 79.523 8.016C79.463 8.736 78.959 9.18 78.299 9.18ZM74.687 7.404C74.687 7.992 75.167 8.328 75.839 8.328C76.439 8.328 76.895 8.064 77.159 7.656V6.096L75.827 6.348C75.035 6.48 74.687 6.888 74.687 7.404Z" fill="#97844B"></path></svg>