<svg width="1200" height="630" viewBox="0 0 1200 630" fill="none" xmlns="http://www.w3.org/2000/svg">
<rect width="1200" height="630" fill="#0050FF"/>
<path d="M569.404 263.641C569.404 302.34 543.477 333.6 502.106 333.6C460.735 333.6 434.807 302.34 434.807 263.641C434.807 224.942 460.735 193.874 502.106 193.874C543.477 193.874 569.404 224.942 569.404 263.641ZM467.223 263.641C467.223 286.704 480.186 303.483 502.106 303.483C524.025 303.483 536.989 286.704 536.989 263.641C536.989 240.578 524.025 223.991 502.106 223.991C480.186 223.991 467.223 240.578 467.223 263.641Z" fill="white"/>
<path d="M587.508 196.728H651.557C678.243 196.728 692.543 215.217 692.543 234.475C692.543 249.919 683.768 265.736 664.906 273.559L700.174 330.554H663.196L634.223 281.756H618.972V330.554H587.52V196.728H587.508ZM618.961 225.327V253.349H644.696C654.795 253.349 660.139 245.911 660.139 238.665C660.139 231.803 655.565 225.316 645.647 225.316H618.961V225.327Z" fill="white"/>
<path d="M716.365 196.728H766.884C809.013 196.728 829.416 226.663 829.416 261.161C829.416 297.381 806.919 330.554 762.695 330.554H716.376V196.728H716.365ZM747.829 225.327V301.966H761.551C786.528 301.966 797.012 281.756 797.012 260.595C797.012 242.491 788.815 225.327 766.895 225.327H747.829Z" fill="white"/>
<path d="M879.923 196.728V330.554H848.471V196.728H879.923Z" fill="white"/>
<path d="M990.687 242.106C988.4 231.045 977.531 223.991 964.001 223.991C947.222 223.991 931.405 235.426 931.405 263.267C931.405 291.108 947.041 302.917 964.386 302.917C979.637 302.917 993.167 294.143 996.224 279.277L1024.25 291.482C1015.66 318.938 990.506 333.611 963.243 333.611C930.069 333.611 899.001 311.499 899.001 263.845C899.001 216.19 931.79 193.886 964.386 193.886C990.506 193.886 1013 207.416 1019.67 232.777L990.699 242.118L990.687 242.106Z" fill="white"/>
<path d="M350.537 333.476C340.121 333.476 329.818 329.785 321.779 322.652C303.732 306.642 298.241 284.009 293.384 264.037C290.791 253.349 288.334 243.261 284.349 235.551C283.205 233.343 280.578 229.482 275.846 228.452C270.468 227.286 263.935 230.671 260.629 236.31C255.228 245.56 250.28 257.335 245.525 272.291C241.461 285.085 235.301 304.412 221.387 317.387C206.894 330.894 188.824 330.679 175.623 330.532H175L175.385 296.283H176.019C186.911 296.418 193.806 296.283 198.052 292.331C205.411 285.47 209.747 271.85 212.906 261.897C218.443 244.507 224.376 230.49 231.078 219.032C241.868 200.566 263.267 190.67 283.114 194.973C296.588 197.894 308.125 206.94 314.782 219.802C320.658 231.169 323.727 243.759 326.682 255.942C330.701 272.495 334.505 288.131 344.525 297.018C347.345 299.521 351.579 299.951 355.055 298.094C359.074 295.954 362.901 291.505 366.411 284.893C373.046 272.404 376.171 257.754 379.488 242.231C382.715 227.105 386.055 211.469 392.939 196.411C393.165 195.901 393.403 195.403 393.641 194.916C404.487 172.045 432.747 138 466.113 138V172.249C452.074 172.249 432.951 191.938 424.561 209.601C424.403 209.952 424.233 210.303 424.063 210.665C418.742 222.304 415.934 235.472 412.956 249.398C409.299 266.539 405.517 284.258 396.63 300.981C389.859 313.73 381.277 322.935 371.132 328.335C364.656 331.789 357.568 333.476 350.526 333.476H350.537Z" fill="white"/>
<path d="M228.678 395.758V462.989H221.398V432.249H183.763V462.989H176.393V395.758H183.763V425.637H221.409V395.758H228.689H228.678Z" fill="white"/>
<path d="M245.729 462.989V395.758H286.341V402.268H253.111V425.739H279.163V432.249H253.111V456.286H286.341V462.989H245.729Z" fill="white"/>
<path d="M299.067 462.989L327.327 395.758H336.804L364.962 462.989H356.821L349.835 446.04H314.205L307.208 462.989H299.067ZM316.594 439.529H347.435L332.014 402.178L316.594 439.529Z" fill="white"/>
<path d="M378.175 462.989V395.758H385.545V456.286H416.285V462.989H378.163H378.175Z" fill="white"/>
<path d="M470.789 395.758V402.268H448.858V462.989H441.578V402.268H419.738V395.758H470.789Z" fill="white"/>
<path d="M537.057 395.758V462.989H529.777V432.249H492.131V462.989H484.76V395.758H492.131V425.637H529.777V395.758H537.057Z" fill="white"/>
<path d="M588.674 395.758H617.987C631.2 395.758 638.197 404.669 638.197 414.44C638.197 424.211 630.827 434.072 617.127 434.072H596.056V463H588.686V395.77L588.674 395.758ZM596.045 402.268V427.653H617.025C625.834 427.653 630.623 421.335 630.623 414.632C630.623 407.929 625.935 402.28 617.41 402.28H596.056L596.045 402.268Z" fill="white"/>
<path d="M639.148 462.989L667.397 395.758H676.873L705.031 462.989H696.891L689.905 446.04H654.275L647.289 462.989H639.148ZM656.675 439.529H687.516L672.095 402.178L656.675 439.529Z" fill="white"/>
<path d="M718.256 395.758H746.414C759.921 395.758 766.623 404.759 766.623 413.953C766.623 421.901 761.642 429.951 751.871 432.442L770.45 463H761.925L744.591 434.072H725.626V463H718.256V395.77V395.758ZM725.626 402.268V427.653H745.168C754.169 427.653 758.958 421.142 758.958 414.723C758.958 408.303 754.554 402.268 745.168 402.268H725.626Z" fill="white"/>
<path d="M830.401 395.758V402.268H808.47V462.989H801.19V402.268H779.349V395.758H830.401Z" fill="white"/>
<path d="M896.386 395.758V462.989H887.577L851.754 406.865V462.989H844.383V395.758H853.192L889.106 452.074V395.758H896.386Z" fill="white"/>
<path d="M911.999 462.989V395.758H952.611V402.268H919.381V425.739H945.433V432.249H919.381V456.286H952.611V462.989H911.999Z" fill="white"/>
<path d="M969.164 395.758H997.322C1010.83 395.758 1017.53 404.759 1017.53 413.953C1017.53 421.901 1012.55 429.951 1002.78 432.442L1021.36 463H1012.83L995.499 434.072H976.535V463H969.164V395.77V395.758ZM976.546 402.268V427.653H996.088C1005.09 427.653 1009.88 421.142 1009.88 414.723C1009.88 408.303 1005.47 402.268 996.088 402.268H976.546Z" fill="white"/>
</svg>
