<?xml version="1.0" encoding="UTF-8"?>
<svg id="Layer_1" xmlns="http://www.w3.org/2000/svg" version="1.1" viewBox="0 0 454.98 130.58">
  <!-- Generator: Adobe Illustrator 29.3.0, SVG Export Plug-In . SVG Version: 2.1.0 Build 146)  -->
  <defs>
    <style>
      .st0 {
        fill: #001e43;
      }

      .st1 {
        fill: #db001c;
      }
    </style>
  </defs>
  <g>
    <rect class="st0" x="68.65" y="13.82" width="20.83" height="63.31" rx="2.23" ry="2.23"/>
    <rect class="st0" x="238.72" y="13.82" width="20.83" height="63.31" rx="2.23" ry="2.23"/>
    <rect class="st1" x="349.66" y="13.82" width="20.83" height="63.31" rx="2.23" ry="2.23"/>
    <path class="st0" d="M33.22,59.58V15.61c0-.99-.8-1.79-1.79-1.79H14.19c-.99,0-1.79.8-1.79,1.79v59.72c0,.99.8,1.79,1.79,1.79h47.29c.99,0,1.79-.8,1.79-1.79v-13.96c0-.99-.8-1.79-1.79-1.79h-28.25Z"/>
    <path class="st0" d="M207.85,13.82v37s.08,10.27-9.37,10.27-9.37-10.27-9.37-10.27V13.82h-20.83v42.65c0,22.14,30.2,21.77,30.2,21.77,0,0,30.2,1.13,30.2-21.77V13.82h-20.83Z"/>
    <path class="st0" d="M164.9,71.95s-1.71,0-4.67-1.87c-.38-.24-2.13-1.46-4.59-3.18,4.6-5.82,6.92-13.43,6.92-21.76,0-18.28-10.89-33.1-33.1-33.1s-33.1,14.82-33.1,33.1,11.44,33.1,33.1,33.1c5.45,0,10.23-.91,14.34-2.56,5.59,4.28,12.12,8.4,14.17,8.72,0,0,5.83-7,6.92-12.44ZM117.52,45.51c0-9.12,4.05-16.51,11.94-16.51s11.94,7.39,11.94,16.51c0,3.82-.71,7.33-2.11,10.13-3.47-2.32-6.18-4.06-6.91-4.29-2.41-.78-4.28-.78-4.9,0-.62.78-3.03,7.23-3.03,7.23,0,0,1.09-.08,2.49.7.69.38,2.1,1.3,3.67,2.68-.37.04-.75.06-1.14.06-7.81,0-11.94-7.39-11.94-16.51Z"/>
    <path class="st1" d="M338.85,13.82h-25.36l-8.71,33.89-8.71-33.89h-25.36c-.85,0-1.55.69-1.55,1.55v60.22c0,.85.69,1.55,1.55,1.55h14.44c.85,0,1.55-.69,1.55-1.55v-34.52c4.03,13.83,10.01,36.17,10.01,36.07,0-.14,7.19-.02,8.02,0h0s.02,0,.04,0c.03,0,.04,0,.04,0h0c.84-.02,8.02-.14,8.02,0,0,.1,5.99-22.24,10.01-36.07v34.52c0,.85.69,1.55,1.55,1.55h14.44c.85,0,1.55-.69,1.55-1.55V15.36c0-.85-.69-1.55-1.55-1.55Z"/>
    <path class="st1" d="M442.59,75.2l-20.98-30.57,17.87-28.34s1.63-1.67,0-2.47h-21.35l-9.59,17.42-9.59-17.42h-21.35c-1.63.8,0,2.47,0,2.47l17.87,28.34-20.98,30.57s-.12,1.93,1.75,1.93h20.65l11.65-19.75,11.65,19.75h20.65c1.87,0,1.75-1.93,1.75-1.93Z"/>
  </g>
  <g>
    <path class="st1" d="M67.55,117.25c-1.07.51-3.19,1.24-5.96,1.24-5.33,0-7.92-3.58-7.92-7.97,0-7.03,5.2-13.5,12.61-13.5,1.92,0,3.66.55,4.3.89l-1.02,2.81c-.81-.38-1.96-.77-3.49-.77-5.37,0-8.73,5.28-8.73,10.14,0,3.32,1.75,5.5,5.11,5.5,2.09,0,3.71-.64,4.77-1.15l.34,2.81Z"/>
    <path class="st1" d="M90.77,105.58c0,6.35-4.52,12.95-11.42,12.95-5.15,0-8.05-3.83-8.05-8.48,0-6.77,4.73-13.08,11.42-13.08,5.58,0,8.05,4.22,8.05,8.61ZM74.96,109.92c0,3.37,1.83,5.79,4.86,5.79,4.17,0,7.33-5.37,7.33-10.18,0-2.39-1.11-5.75-4.81-5.75-4.43,0-7.41,5.41-7.37,10.14Z"/>
    <path class="st1" d="M93.24,118.06l2.77-14.61c.47-2.3.72-4.3.98-6.01h3.15l-.51,4.05h.09c1.83-2.9,4.6-4.52,7.63-4.52,2.47,0,5.24,1.41,5.24,5.75,0,.89-.17,2.22-.38,3.32l-2.3,12.01h-3.54l2.26-11.89c.17-.81.3-1.79.3-2.64,0-2.09-.81-3.62-3.24-3.62s-6.09,3.02-7.03,8.14l-1.87,10.01h-3.54Z"/>
    <path class="st1" d="M116.16,114.48c.98.6,2.77,1.28,4.43,1.28,2.39,0,3.92-1.53,3.92-3.37,0-1.62-.72-2.6-2.85-3.79-2.39-1.32-3.71-3.15-3.71-5.24,0-3.62,3.11-6.39,7.45-6.39,1.87,0,3.54.51,4.3,1.02l-.98,2.68c-.72-.43-2.05-.94-3.58-.94-2.13,0-3.66,1.32-3.66,3.11,0,1.49.98,2.43,2.81,3.45,2.3,1.32,3.88,3.11,3.88,5.41,0,4.35-3.54,6.77-7.88,6.77-2.22,0-4.17-.68-5.11-1.41l.98-2.6Z"/>
    <path class="st1" d="M141.12,91.9l-1.06,5.54h4.94l-.55,2.77h-4.94l-1.92,10.01c-.21,1.15-.38,2.22-.38,3.32,0,1.24.6,1.96,1.96,1.96.6,0,1.19-.04,1.66-.13l-.17,2.77c-.64.26-1.7.38-2.73.38-3.15,0-4.35-1.92-4.35-4,0-1.19.13-2.39.43-3.88l2.05-10.44h-2.98l.55-2.77h2.94l.89-4.64,3.66-.89Z"/>
    <path class="st1" d="M145.21,118.06l2.51-13.29c.51-2.68.85-5.41,1.07-7.33h3.11c-.17,1.45-.34,2.9-.55,4.47h.13c1.32-2.81,3.54-4.94,6.3-4.94.3,0,.72.04.98.09l-.68,3.49c-.21-.04-.55-.09-.94-.09-3.07,0-5.79,3.71-6.69,8.52l-1.7,9.07h-3.54Z"/>
    <path class="st1" d="M178.86,97.44l-2.77,14.61c-.43,2.3-.72,4.3-.94,6.01h-3.19l.55-3.88h-.09c-1.83,2.68-4.56,4.35-7.28,4.35s-5.41-1.28-5.41-5.96c0-.98.13-2.09.38-3.45l2.21-11.67h3.54l-2.17,11.5c-.26,1.15-.38,2.13-.38,3.02,0,2.13.89,3.58,3.32,3.58,2.56,0,5.84-2.98,6.69-7.54l2-10.56h3.54Z"/>
    <path class="st1" d="M195.35,117.25c-1.07.51-3.19,1.24-5.96,1.24-5.33,0-7.92-3.58-7.92-7.97,0-7.03,5.2-13.5,12.61-13.5,1.92,0,3.66.55,4.3.89l-1.02,2.81c-.81-.38-1.96-.77-3.49-.77-5.37,0-8.73,5.28-8.73,10.14,0,3.32,1.75,5.5,5.11,5.5,2.09,0,3.71-.64,4.77-1.15l.34,2.81Z"/>
    <path class="st1" d="M208.68,91.9l-1.06,5.54h4.94l-.55,2.77h-4.94l-1.92,10.01c-.21,1.15-.38,2.22-.38,3.32,0,1.24.6,1.96,1.96,1.96.6,0,1.19-.04,1.66-.13l-.17,2.77c-.64.26-1.7.38-2.73.38-3.15,0-4.35-1.92-4.35-4,0-1.19.13-2.39.43-3.88l2.05-10.44h-2.98l.55-2.77h2.94l.89-4.64,3.66-.89Z"/>
    <path class="st1" d="M212.77,118.06l3.96-20.62h3.54l-3.96,20.62h-3.54ZM217.37,91.69c0-1.36,1.06-2.39,2.34-2.39s2.09.94,2.09,2.22c-.04,1.41-1.02,2.39-2.39,2.39-1.24,0-2.04-.94-2.04-2.22Z"/>
    <path class="st1" d="M242.29,105.58c0,6.35-4.52,12.95-11.42,12.95-5.15,0-8.05-3.83-8.05-8.48,0-6.77,4.73-13.08,11.42-13.08,5.58,0,8.05,4.22,8.05,8.61ZM226.49,109.92c0,3.37,1.83,5.79,4.86,5.79,4.17,0,7.33-5.37,7.33-10.18,0-2.39-1.11-5.75-4.81-5.75-4.43,0-7.41,5.41-7.37,10.14Z"/>
    <path class="st1" d="M244.76,118.06l2.77-14.61c.47-2.3.72-4.3.98-6.01h3.15l-.51,4.05h.09c1.83-2.9,4.6-4.52,7.63-4.52,2.47,0,5.24,1.41,5.24,5.75,0,.89-.17,2.22-.38,3.32l-2.3,12.01h-3.54l2.26-11.89c.17-.81.3-1.79.3-2.64,0-2.09-.81-3.62-3.24-3.62s-6.09,3.02-7.03,8.14l-1.87,10.01h-3.54Z"/>
    <path class="st1" d="M289.45,117.25c-1.07.51-3.19,1.24-5.96,1.24-5.33,0-7.92-3.58-7.92-7.97,0-7.03,5.2-13.5,12.61-13.5,1.92,0,3.66.55,4.3.89l-1.02,2.81c-.81-.38-1.96-.77-3.49-.77-5.37,0-8.73,5.28-8.73,10.14,0,3.32,1.75,5.5,5.11,5.5,2.09,0,3.71-.64,4.77-1.15l.34,2.81Z"/>
    <path class="st1" d="M293.28,118.06l5.75-30.25h3.54l-2.56,13.29h.09c1.75-2.51,4.26-4.13,7.37-4.13,2.34,0,5.11,1.45,5.11,5.54,0,1.11-.13,2.43-.34,3.49l-2.3,12.06h-3.54l2.3-11.89c.13-.77.26-1.7.26-2.85,0-1.92-.89-3.41-3.19-3.41-2.73,0-6.18,3.19-7.03,7.84l-1.92,10.31h-3.54Z"/>
    <path class="st1" d="M330.9,116.87c-1.53.89-4.05,1.62-6.82,1.62-5.45,0-7.84-3.71-7.84-8.26,0-6.22,4.6-13.25,11.25-13.25,3.92,0,6.05,2.34,6.05,5.28,0,5.41-6.09,6.86-13.72,6.73-.17.89-.04,2.81.43,3.92.81,1.83,2.47,2.77,4.6,2.77,2.43,0,4.26-.77,5.54-1.45l.51,2.64ZM326.98,99.74c-3.37,0-5.88,3.28-6.73,6.52,5.54.04,9.88-.68,9.88-3.88,0-1.7-1.28-2.64-3.15-2.64Z"/>
    <path class="st1" d="M335.33,118.06l2.77-14.61c.43-2.3.72-4.3.94-6.01h3.11l-.55,3.88h.13c1.92-2.85,4.52-4.35,7.24-4.35,3.15,0,4.64,2,4.81,4.6,1.83-2.98,4.47-4.56,7.58-4.6,2.39,0,4.98,1.53,4.98,5.41,0,.98-.13,2.34-.34,3.49l-2.3,12.18h-3.45l2.22-11.89c.17-.77.3-1.83.3-2.68,0-2.17-.81-3.58-3.11-3.58-2.56,0-5.58,2.98-6.43,7.58l-2,10.56h-3.41l2.3-12.1c.17-.89.26-1.7.26-2.51,0-1.75-.47-3.54-3.07-3.54s-5.79,3.41-6.6,7.8l-1.92,10.35h-3.45Z"/>
    <path class="st1" d="M369.75,118.06l3.96-20.62h3.54l-3.96,20.62h-3.54ZM374.35,91.69c0-1.36,1.06-2.39,2.34-2.39s2.09.94,2.09,2.22c-.04,1.41-1.02,2.39-2.39,2.39-1.24,0-2.04-.94-2.04-2.22Z"/>
    <path class="st1" d="M393.69,117.25c-1.07.51-3.19,1.24-5.96,1.24-5.33,0-7.92-3.58-7.92-7.97,0-7.03,5.2-13.5,12.61-13.5,1.92,0,3.66.55,4.3.89l-1.02,2.81c-.81-.38-1.96-.77-3.49-.77-5.37,0-8.73,5.28-8.73,10.14,0,3.32,1.75,5.5,5.11,5.5,2.09,0,3.71-.64,4.77-1.15l.34,2.81Z"/>
    <path class="st1" d="M410.56,118.06c0-1.24.21-3.19.47-5.32h-.09c-2.26,4.26-5.07,5.79-8.01,5.79-3.62,0-5.92-2.9-5.92-6.82,0-7.16,5.28-14.74,14.27-14.74,1.96,0,4.13.34,5.54.81l-2.09,10.74c-.68,3.58-.98,7.24-.89,9.54h-3.28ZM412.86,100.08c-.51-.13-1.28-.3-2.47-.3-5.32,0-9.67,5.58-9.71,11.29,0,2.3.81,4.56,3.54,4.56,2.94,0,6.43-3.83,7.45-9.33l1.19-6.22Z"/>
    <path class="st1" d="M419.16,118.06l5.75-30.25h3.54l-5.79,30.25h-3.49Z"/>
    <path class="st1" d="M429.04,114.48c.98.6,2.77,1.28,4.43,1.28,2.39,0,3.92-1.53,3.92-3.37,0-1.62-.72-2.6-2.85-3.79-2.39-1.32-3.71-3.15-3.71-5.24,0-3.62,3.11-6.39,7.45-6.39,1.87,0,3.54.51,4.3,1.02l-.98,2.68c-.72-.43-2.05-.94-3.58-.94-2.13,0-3.66,1.32-3.66,3.11,0,1.49.98,2.43,2.81,3.45,2.3,1.32,3.88,3.11,3.88,5.41,0,4.35-3.54,6.77-7.88,6.77-2.22,0-4.17-.68-5.11-1.41l.98-2.6Z"/>
  </g>
</svg>