<?xml version="1.0" encoding="iso-8859-1"?>
<!-- Generator: Adobe Illustrator 19.0.0, SVG Export Plug-In . SVG Version: 6.00 Build 0)  -->
<svg fill="#ffffff" version="1.1" id="Capa_1" xmlns="http://www.w3.org/2000/svg" x="0px" y="0px"
     viewBox="0 0 464 464" style="enable-background:new 0 0 464 464;" xml:space="preserve">
<g>
	<g>
		<path d="M462.741,212.8c-8.8-112.8-98.4-202.4-210.4-212c-7.2-0.8-13.6-0.8-20-0.8c-6.4,0-12.8,0-19.2,0.8
			C85.14,12-9.259,124,1.14,252c9.6,112.8,99.2,201.6,211.2,211.2c7.2,0.8,13.6,0.8,20,0.8c6.4,0,12.8,0,19.2-0.8
			C379.54,452,473.941,340,462.741,212.8z M185.941,21.6c-27.2,26.4-47.2,59.2-57.6,96c-18.4-10.4-34.4-23.2-47.2-39.2
			C109.941,49.6,146.741,30.4,185.941,21.6z M69.94,89.6c15.2,18.4,33.6,32.8,53.6,44c-7.2,29.6-11.2,60-11.2,90.4h-96
			C17.94,174.4,37.14,127.2,69.94,89.6z M73.14,377.6c-34.4-37.6-54.4-86.4-56.8-137.6h96c0,32.8,4.8,65.6,13.6,97.6
			C105.941,347.2,88.34,361.6,73.14,377.6z M84.34,389.6c12.8-14.4,28.8-27.2,45.6-36c11.2,33.6,29.6,64.8,55.2,89.6
			C147.541,434.4,113.14,416,84.34,389.6z M224.34,448c-2.4,0-4.8,0-7.2,0c-16.8-12-31.2-26.4-43.2-43.2
			c-12-18.4-22.4-37.6-28.8-58.4c24.8-11.2,52-16.8,79.2-17.6V448z M224.34,312c-28.8,0.8-57.6,6.4-84,17.6
			c-7.2-28.8-12-59.2-12-89.6h96V312z M224.34,224h-96c0-28,4-56,10.4-83.2c27.2,12,56,18.4,85.6,19.2V224z M224.34,144
			c-28-0.8-56-7.2-80.8-18.4c22.4-72.8,63.2-102.4,73.6-108.8c2.4,0,4.8,0,7.2,0V144z M383.54,78.4c-12.8,16-29.6,29.6-47.2,40
			c-10.4-36.8-30.4-69.6-57.6-96.8C318.741,29.6,354.741,49.6,383.54,78.4z M240.34,16c2.4,0,4.8,0,7.2,0
			c16.8,12,31.2,26.4,43.2,43.2c13.6,20,24,42.4,31.2,65.6c-25.6,12-53.6,18.4-81.6,19.2V16z M240.34,160
			c29.6-0.8,58.4-7.2,85.6-18.4c6.4,26.4,9.6,54.4,10.4,82.4h-96V160z M240.34,240h96c0,30.4-4,60.8-12,90.4
			c-27.2-11.2-55.2-17.6-84-18.4V240z M247.541,447.2c-2.4,0-4.8,0-7.2,0V328c27.2,0.8,53.6,6.4,79.2,17.6
			C296.34,413.6,257.14,441.6,247.541,447.2z M279.54,442.4c24.8-24.8,44-55.2,54.4-89.6c17.6,9.6,32.8,21.6,46.4,36
			C352.34,415.2,317.14,433.6,279.54,442.4z M391.54,377.6c-15.2-16-32.8-30.4-52.8-40c8.8-32,12.8-64,13.6-97.6h96
			C446.741,291.2,426.741,340,391.54,377.6z M352.34,224c0-30.4-4-60.8-11.2-90.4c20.8-11.2,39.2-25.6,53.6-44
			c32.8,37.6,51.2,84.8,53.6,134.4H352.34z"/>
	</g>
</g>
    <g>
</g>
    <g>
</g>
    <g>
</g>
    <g>
</g>
    <g>
</g>
    <g>
</g>
    <g>
</g>
    <g>
</g>
    <g>
</g>
    <g>
</g>
    <g>
</g>
    <g>
</g>
    <g>
</g>
    <g>
</g>
    <g>
</g>
</svg>
