<svg xmlns="http://www.w3.org/2000/svg" viewBox="0 0 105.19 58.3"><line x1="73.22" y1="35.12" x2="73.22" y2="36.82" style="fill:#5e89c6"/><path d="M3.62,0C2.55,1.11,1.27,2.28.09,3.43V0Z"/><path d="M44.32.43A44.45,44.45,0,0,0,3.76,25.91,44.78,44.78,0,0,0,.09,38.27V27.47C7.06,12.62,22.54,2,38.35.33,40.3.16,42.25,0,44.29,0Z"/><path d="M9.56,0A85,85,0,0,0,3,6.13L.09,9.35v-2A55,55,0,0,1,8.46,0,8.06,8.06,0,0,1,9.56,0Z"/><path d="M24.77,0c-1.15.66-2.62,1.4-3.83,2.06A49.84,49.84,0,0,0,.09,23.86V19.74A53.64,53.64,0,0,1,23.9,0Z"/><path d="M.1,16.26V13.53A57.23,57.23,0,0,1,15.85,0h1c-.8.63-2,1.41-2.91,2.11A55.83,55.83,0,0,0,.1,16.26Z"/><path d="M44.32,4.75A40.17,40.17,0,0,0,8.54,26.08a40.41,40.41,0,0,0-4.46,18H0a38.47,38.47,0,0,1,2.13-10C6,22,17.21,10.9,29.22,6.87A45,45,0,0,1,44.31,4.33Z"/><path d="M4.45,44.1A39.71,39.71,0,0,1,24.69,13.78a41.08,41.08,0,0,1,19.64-5v.41a36,36,0,0,0-32.71,20.3A36.4,36.4,0,0,0,8.17,44.1Z"/><path d="M44.32,13.22A32.1,32.1,0,0,0,15.17,31.15a31.51,31.51,0,0,0-3.24,13H8.51c1.26-11.94,9.43-23,20.55-28.07a36.89,36.89,0,0,1,15.26-3.24Z"/><path d="M44.31,16.9a28.19,28.19,0,0,0-25,14.53A27.28,27.28,0,0,0,15.93,44.1H12.3c1.2-11.24,9.82-21.91,20.6-25.62a31.15,31.15,0,0,1,11.41-2Z"/><path d="M94.94,21.2l0,6H93.58V28.9H98V27.18H96.76l0-3.84a3.28,3.28,0,0,1,.59-1.7,3.47,3.47,0,0,1,2.6-.53V19.22a4.28,4.28,0,0,0-3.31.82v-.51h-3v1.66Z" style="fill:#5887da"/><path d="M44.32,20.78A24.06,24.06,0,0,0,19.9,44.1H16.31c1.17-10,9.42-19.59,19.17-22.35a29.31,29.31,0,0,1,8.84-1.33Z"/><path d="M73.49,21.41a5,5,0,0,0-6.27-1.7,5.06,5.06,0,0,0-2.77,3.63,5.1,5.1,0,0,0,7.2,5.48A4.3,4.3,0,0,0,74,26.08H72.18l-.78.81a3.26,3.26,0,0,1-3.19.41A3.38,3.38,0,0,1,66.29,25h8A4.93,4.93,0,0,0,73.49,21.41Zm-7,1.69c.09-.84,1.06-1.59,1.84-1.89a3.23,3.23,0,0,1,3.85,1.51l.15.38Z" style="fill:#5e89c6"/><path d="M44.32,24.75A20,20,0,0,0,23.84,44.1H20.36A23.75,23.75,0,0,1,36.42,25.58a24.33,24.33,0,0,1,7.92-1.24Z"/><path d="M44.22,28.82A16,16,0,0,0,28.13,44.1H24.36c1-6.7,7.22-13,13.78-14.75a18.44,18.44,0,0,1,6.08-1Z"/><path d="M54.35,35.11a2,2,0,0,0-1-1.44,2.27,2.27,0,0,0-2.24.14,1.6,1.6,0,0,0-.68,1.35,1.62,1.62,0,0,0,.47,1.26c1.67,1,4,.56,5.2,2.41a3.81,3.81,0,0,1,.37,3.63,4.08,4.08,0,0,1-3.88,2.34,4,4,0,0,1-2.42-.94v.59H48.47V40.9l1.76,0a2.35,2.35,0,0,0,1.05,1.75,3,3,0,0,0,2,.29,2.25,2.25,0,0,0,1.57-1.68,2,2,0,0,0-.46-1.55c-1.65-1.33-4.48-.53-5.52-2.9A3.81,3.81,0,0,1,49,33.64a3.53,3.53,0,0,1,2.87-1.92,3.89,3.89,0,0,1,2.69.81v-.64h1.6V35.1Z" style="fill:#5e89c6"/><path d="M44.32,33a12.35,12.35,0,0,0-11.25,7.39,12.59,12.59,0,0,0-.86,3.75H28.6a10.56,10.56,0,0,1,1.23-3,16.66,16.66,0,0,1,14.49-8.54Z"/><path d="M79.48,36.77v6h-1.3v1.72h4.45V42.74H81.32V39.08a3,3,0,0,1,.88-1.88A2.45,2.45,0,0,1,84,36.62,2.26,2.26,0,0,1,86,38.14a7.55,7.55,0,0,1,.12.94l0,3.66H84.73v1.72h4.45V42.74H87.91l0-3.68a4,4,0,0,0-1.12-2.93,4.11,4.11,0,0,0-4.58-.69c-.34.14-.67.45-.93.57v-.88l-3,0v1.66Z" style="fill:#5e89c6"/><path d="M44.32,36.6a8.33,8.33,0,0,0-7.58,4.89,7.76,7.76,0,0,0-.57,2.61H32.62c1.37-4.48,6.12-7.67,10.75-7.92.2,0,.82,0,1,0Z"/><path d="M61.59,27.16V19l-4.13,9.89H56.24L52.07,19l0,8.22,1.25,0v1.72H48.9V27.16h1.29v-9c0-.11-.06-.15-.18-.17H49V16.35h3.92l3.89,9.12.58-1.2,3.27-7.92h4.15V18H63.61l-.13.16,0,9h1.29v1.72H60.29V27.16Z" style="fill:#5e89c6"/><polygon points="78.63 32.07 83.26 21.2 84.45 21.2 84.45 19.53 80 19.53 80 21.2 81.3 21.2 79.13 26.32 77.08 21.2 78.38 21.2 78.38 19.53 73.93 19.53 73.93 21.2 74.96 21.2 78.02 28.82 77.32 30.4 75.68 30.4 75.68 32.06 78.63 32.07" style="fill:#5e89c6"/><path d="M93,21.41a5,5,0,0,0-6.27-1.7,5,5,0,0,0-2.77,3.63,5.1,5.1,0,0,0,7.2,5.48,4.3,4.3,0,0,0,2.32-2.74H91.66l-.79.81a3.24,3.24,0,0,1-3.18.41A3.38,3.38,0,0,1,85.77,25h8A4.93,4.93,0,0,0,93,21.41ZM86,23.1c.09-.84,1.06-1.59,1.84-1.89a3.23,3.23,0,0,1,3.85,1.51l.15.38Z" style="fill:#5e89c6"/><path d="M73.22,36.82h1.24v4.22a2.87,2.87,0,0,1-.9,1.7,2.45,2.45,0,0,1-1.87.41,2.3,2.3,0,0,1-1.52-1A8.34,8.34,0,0,1,69.81,40V35.12h-3v1.7H68c0,2.15-.16,4.29.55,6.21a3.4,3.4,0,0,0,2.55,1.77,4,4,0,0,0,3.44-.94v.6h3V42.74H76.27V35.11h-3Z" style="fill:#5e89c6"/><path d="M98.71,42.74l0-10.64-3,0v1.66l1.26,0V36.2a5.11,5.11,0,0,0-5-1.06,5.34,5.34,0,0,0-3,3.68,5.44,5.44,0,0,0,1.14,4.36,5.19,5.19,0,0,0,4.79,1.62A4.48,4.48,0,0,0,97,43.59v.87h3.19V42.74Zm-4.81.4A3.19,3.19,0,1,1,97.09,40,3.19,3.19,0,0,1,93.9,43.14Z" style="fill:#5e89c6"/><path d="M62.18,34.94a5,5,0,1,0,5,5A5,5,0,0,0,62.18,34.94Zm0,8.29A3.28,3.28,0,1,1,65.46,40,3.28,3.28,0,0,1,62.18,43.23Z" style="fill:#5e89c6"/><path d="M103.27,15.55a2,2,0,1,1-1.94,1.95,1.93,1.93,0,0,1,1.94-1.95Zm0,.3a1.66,1.66,0,0,0,0,3.31,1.66,1.66,0,0,0,0-3.31Zm-.36,2.79h-.35V16.46a4.85,4.85,0,0,1,.62-.05,1.19,1.19,0,0,1,.67.16.54.54,0,0,1,.2.46.53.53,0,0,1-.42.52v0c.19,0,.32.21.36.53a1.58,1.58,0,0,0,.14.54h-.36a1.38,1.38,0,0,1-.15-.56.41.41,0,0,0-.47-.38h-.24Zm0-1.21h.25c.28,0,.53-.1.53-.37s-.14-.38-.53-.38l-.25,0Z"/><path d="M4.81,52.1v.49H2.69v5.58H2.12V52.59H0V52.1Z" style="fill:#231f20"/><path d="M8.25,52.1v2.64h3.61V52.1h.58v6.07h-.58V55.23H8.25v2.94H7.68V52.1Z" style="fill:#231f20"/><path d="M16.57,52.1v6.07H16V52.1Z" style="fill:#231f20"/><path d="M20.77,52.1l3.54,5.13h0V52.1h.57v6.07h-.64L20.72,53h0v5.13h-.58V52.1Z" style="fill:#231f20"/><path d="M29,52.1v3.26l3.53-3.26h.78l-2.71,2.51,2.84,3.56h-.75L30.16,55,29,56.09v2.08h-.57V52.1Z" style="fill:#231f20"/><path d="M36.84,52.1v6.07h-.58V52.1Z" style="fill:#231f20"/><path d="M41,52.1l3.53,5.13h0V52.1h.58v6.07h-.65L41,53h0v5.13h-.58V52.1Z" style="fill:#231f20"/><path d="M53.79,54h-.58a1.9,1.9,0,0,0-2-1.52c-1.6,0-2.28,1.34-2.28,2.67s.69,2.66,2.28,2.66a2,2,0,0,0,2.1-2.17v-.05H51.29v-.5h2.57v3.09h-.41l-.08-1.11h0a2.19,2.19,0,0,1-2.1,1.24,2.87,2.87,0,0,1-2.86-3.16A2.87,2.87,0,0,1,51.25,52,2.39,2.39,0,0,1,53.79,54Z" style="fill:#231f20"/><path d="M66.15,53.86h-.57a1.5,1.5,0,0,0-1.67-1.39c-.82,0-1.51.34-1.51,1.2a.94.94,0,0,0,.85.91l1.48.37c1.17.29,1.64.81,1.64,1.61,0,.6-.33,1.74-2.32,1.74-1.5,0-2.43-.69-2.43-2v-.15h.58v0c0,1.12.76,1.58,2,1.58.68,0,1.62-.36,1.62-1.23,0-.55-.43-.89-1.22-1.09l-1.38-.34c-.9-.22-1.37-.64-1.37-1.46S62.3,52,63.9,52C65.19,52,66.15,52.66,66.15,53.86Z" style="fill:#231f20"/><path d="M75,55.14a2.87,2.87,0,1,1-5.72,0,2.88,2.88,0,1,1,5.72,0ZM72.12,57.8c1.58,0,2.28-1.32,2.28-2.66s-.67-2.67-2.29-2.67-2.28,1.25-2.28,2.67S70.52,57.8,72.12,57.8Z" style="fill:#231f20"/><path d="M78.69,52.1v3.77c0,1.22.5,1.93,1.78,1.93s1.78-.63,1.78-1.94V52.1h.58V56a2.36,2.36,0,0,1-4.72,0V52.1Z" style="fill:#231f20"/><path d="M86.93,52.1l3.53,5.13h0V52.1h.58v6.07h-.65L86.88,53h0v5.13h-.58V52.1Z" style="fill:#231f20"/><path d="M96.57,52.1c1.79,0,2.89.88,2.89,3,0,2-.95,3-2.9,3h-2V52.1Zm-.2,5.58c1.68,0,2.51-.65,2.51-2.54s-.78-2.55-2.53-2.55h-1.2v5.09Z" style="fill:#231f20"/></svg>