<svg width="170" height="72" viewBox="0 0 170 72" fill="none" xmlns="http://www.w3.org/2000/svg">
<path d="M6.87932 61.4714C4.52106 60.7545 3.48782 60.2996 3.48782 58.947C3.48782 57.7366 5.09537 57.307 6.47213 57.307C7.67646 57.307 8.97098 57.6661 9.85036 58.2434C10.0586 58.379 10.3146 58.4203 10.5533 58.3538C10.7921 58.2899 10.9937 58.1237 11.1051 57.9016L11.5057 57.0982C11.702 56.7019 11.5733 56.2204 11.2032 55.977C9.93657 55.147 8.13936 54.6323 6.51324 54.6323C3.09655 54.6323 0.799297 56.392 0.799297 59.0108C0.799297 62.4131 3.66556 63.2736 5.96546 63.9665C8.37412 64.6901 9.42725 65.1556 9.41399 66.5934C9.41399 68.0365 7.72023 68.5499 6.13523 68.5499C4.61655 68.5499 2.96391 67.7399 1.95986 66.8102C1.75958 66.6253 1.50094 66.5189 1.23302 66.5495C0.963766 66.5801 0.723696 66.7357 0.584428 66.9698L0.122856 67.7518C-0.0827296 68.0963 -0.0256967 68.5366 0.25947 68.8185C1.74897 70.2896 3.99184 71.2046 6.11401 71.2046C9.69518 71.2046 12.1012 69.3412 12.1012 66.5787C12.129 63.0688 9.21769 62.183 6.87932 61.4714Z" fill="#254A9A"/>
<path d="M22.6577 55.183C22.5158 54.8731 22.2068 54.6736 21.8659 54.6736H20.9189C20.5767 54.6736 20.2676 54.8731 20.1271 55.1856L13.4502 69.9478C13.3281 70.2191 13.3507 70.5317 13.5099 70.7817C13.6717 71.0331 13.9462 71.182 14.242 71.182H15.2102C15.5524 71.182 15.8628 70.9812 16.0034 70.6686L17.668 66.9791H25.1619L26.8464 70.6726C26.9883 70.9825 27.2973 71.182 27.6369 71.182H28.6065C28.9036 71.182 29.1781 71.0304 29.3386 70.7804C29.4991 70.5317 29.5203 70.2178 29.397 69.9451L22.6577 55.183ZM18.8339 64.3456L21.3858 58.673L23.9669 64.3456H18.8339Z" fill="#254A9A"/>
<path d="M33.7659 54.6749H32.8825C32.4024 54.6749 32.0125 55.0659 32.0125 55.5474V70.3095C32.0125 70.7923 32.4024 71.182 32.8825 71.182H33.7659C34.246 71.182 34.636 70.7923 34.636 70.3095V55.5474C34.636 55.0659 34.246 54.6749 33.7659 54.6749Z" fill="#254A9A"/>
<path d="M52.1319 54.6749H51.2684C50.7856 54.6749 50.397 55.0659 50.397 55.5474V66.2995L42.1338 55.03C41.9693 54.8053 41.7094 54.6749 41.4321 54.6749H40.4002C39.9188 54.6749 39.5302 55.0659 39.5302 55.5474V70.3095C39.5302 70.7923 39.9188 71.182 40.4002 71.182H41.2836C41.7651 71.182 42.155 70.7923 42.155 70.3095V59.5628L50.397 70.8283C50.5601 71.0504 50.8214 71.182 51.1 71.182H52.1319C52.612 71.182 53.002 70.7923 53.002 70.3095V55.5474C53.002 55.0659 52.612 54.6749 52.1319 54.6749Z" fill="#254A9A"/>
<path d="M67.3161 54.6749H56.489C56.0089 54.6749 55.6202 55.0659 55.6202 55.5474V56.4146C55.6202 56.8948 56.0089 57.2858 56.489 57.2858H60.5914V70.3095C60.5914 70.7923 60.9814 71.182 61.4615 71.182H62.3435C62.8263 71.182 63.2163 70.7923 63.2163 70.3095V57.2858H67.3161C67.7975 57.2858 68.1861 56.8948 68.1861 56.4146V55.5474C68.1861 55.0659 67.7975 54.6749 67.3161 54.6749Z" fill="#254A9A"/>
<path d="M73.7914 62.7217H69.0935C68.6133 62.7217 68.2234 63.1114 68.2234 63.5942V64.3124C68.2234 64.7952 68.6133 65.1849 69.0935 65.1849H73.7914C74.2716 65.1849 74.6602 64.7952 74.6602 64.3124V63.5942C74.6602 63.1114 74.2716 62.7217 73.7914 62.7217Z" fill="#254A9A"/>
<path d="M92.0833 62.1923H91.2822C91.2782 62.1923 91.2729 62.1936 91.2676 62.1936H88.6546C88.1732 62.1936 87.7832 62.5847 87.7832 63.0661V63.9533C87.7832 64.4347 88.1732 64.8258 88.6546 64.8258H90.4134V67.5244C89.3881 68.2293 88.1559 68.6124 86.9025 68.6124C83.6543 68.6124 81.0122 66.0587 81.0122 62.9185C81.0122 59.7889 83.6543 57.2432 86.9025 57.2432C88.4106 57.2432 89.8948 57.8005 90.9758 58.7728C91.1535 58.9324 91.3896 59.0135 91.627 58.9935C91.8658 58.9749 92.0846 58.8579 92.2345 58.6717L92.761 58.0173C93.0528 57.6515 93.0091 57.1195 92.6563 56.8109C91.0752 55.4211 89.03 54.6523 86.9025 54.6523C82.2072 54.6523 78.386 58.3591 78.386 62.9185C78.386 67.4872 82.1873 71.202 86.8601 71.202C88.973 71.202 91.0819 70.4252 92.6523 69.0699C92.8433 68.905 92.9547 68.6629 92.9547 68.4076V63.0648C92.9547 62.5847 92.5634 62.1923 92.0833 62.1923Z" fill="#254A9A"/>
<path d="M104.425 54.6523C99.7415 54.6523 95.9309 58.3591 95.9309 62.9172C95.9309 67.4872 99.7415 71.202 104.425 71.202C109.108 71.202 112.92 67.4872 112.92 62.9172C112.92 58.3591 109.108 54.6523 104.425 54.6523ZM104.425 68.5911C101.199 68.5911 98.5757 66.0454 98.5757 62.9172C98.5757 59.7995 101.199 57.2645 104.425 57.2645C107.649 57.2645 110.273 59.7995 110.273 62.9172C110.273 66.0454 107.649 68.5911 104.425 68.5911Z" fill="#254A9A"/>
<path d="M126.86 62.461C127.746 61.6962 128.238 60.5697 128.238 59.1997C128.238 56.408 126.145 54.6736 122.776 54.6736H116.752C116.273 54.6736 115.883 55.0646 115.883 55.5461V70.3095C115.883 70.791 116.273 71.182 116.752 71.182H122.819C126.675 71.182 128.974 69.3719 128.974 66.3407C128.974 64.6249 128.201 63.2603 126.86 62.461ZM122.755 61.369H118.507V57.2858H122.755C124.058 57.2858 125.613 57.6356 125.613 59.3061C125.613 60.6747 124.652 61.369 122.755 61.369ZM118.507 63.9799H122.755C124.097 63.9799 126.35 64.2725 126.35 66.233C126.35 68.1655 124.396 68.5712 122.755 68.5712H118.507V63.9799Z" fill="#254A9A"/>
<path d="M139.658 55.183C139.516 54.8731 139.207 54.6736 138.867 54.6736H137.92C137.576 54.6736 137.267 54.8731 137.125 55.1856L130.449 69.9478C130.327 70.2191 130.35 70.5317 130.512 70.7817C130.672 71.0331 130.947 71.182 131.244 71.182H132.212C132.554 71.182 132.865 70.9812 133.005 70.6686L134.67 66.9791H142.161L143.846 70.6726C143.988 70.9825 144.298 71.182 144.638 71.182H145.606C145.902 71.182 146.179 71.0304 146.338 70.7804C146.498 70.5317 146.521 70.2178 146.398 69.9451L139.658 55.183ZM135.834 64.3456L138.386 58.673L140.967 64.3456H135.834Z" fill="#254A9A"/>
<path d="M150.765 54.6749H149.88C149.4 54.6749 149.009 55.0659 149.009 55.5474V70.3095C149.009 70.7923 149.4 71.182 149.88 71.182H150.765C151.245 71.182 151.638 70.7923 151.638 70.3095V55.5474C151.638 55.0659 151.245 54.6749 150.765 54.6749Z" fill="#254A9A"/>
<path d="M169.131 54.6749H168.267C167.786 54.6749 167.398 55.0659 167.398 55.5474V66.2995L159.133 55.03C158.97 54.8053 158.709 54.6749 158.432 54.6749H157.4C156.918 54.6749 156.528 55.0659 156.528 55.5474V70.3095C156.528 70.7923 156.918 71.182 157.4 71.182H158.284C158.765 71.182 159.153 70.7923 159.153 70.3095V59.5628L167.398 70.8283C167.561 71.0504 167.821 71.182 168.098 71.182H169.131C169.612 71.182 170 70.7923 170 70.3095V55.5474C170 55.0659 169.612 54.6749 169.131 54.6749Z" fill="#254A9A"/>
<path d="M95.5662 31.511V46.0244H92.9015V29.5146L95.5662 31.511ZM147.224 45.9765H136.742L136.667 45.9033L127.448 36.7593C127.072 36.3869 126.494 36.2725 126.005 36.4773C125.509 36.6848 125.188 37.1663 125.188 37.7049V46.0244H122.449V25.4367C122.449 25.0722 122.296 24.7198 122.032 24.4697L114.373 17.2157C114.126 16.9816 113.801 16.8526 113.461 16.8526H109.632C108.9 16.8526 108.304 17.4498 108.304 18.1826V46.0244H105.587V1.327C105.587 0.784344 105.263 0.301559 104.763 0.0967331C104.272 -0.105434 103.683 0.016922 103.315 0.393322L90.6295 13.3014C90.3828 13.5514 90.2475 13.8839 90.2475 14.235V24.2064L85.0535 20.3173C84.5813 19.9649 83.8889 19.9768 83.43 20.3453L71.6201 29.8391C71.3044 30.0931 71.1241 30.4722 71.1241 30.8779V46.0244H68.4475V37.6757C68.4475 34.7443 66.4341 31.628 62.7057 31.628C58.976 31.628 56.9639 34.7589 56.9639 37.7049V46.0244L54.2568 46.023V40.3597C54.2568 38.0641 52.6811 35.6261 49.7604 35.6261C46.8398 35.6261 45.2641 38.0667 45.2641 40.365V46.0257L42.5676 46.027L42.5663 45.7756C42.5623 44.6345 42.5583 43.1727 42.5583 42.5862C42.5583 40.6364 40.7226 38.9272 38.6296 38.9272C36.5367 38.9272 34.701 40.6284 34.701 42.5689V46.0244L22.8752 46.023C22.143 46.023 21.5488 46.6202 21.5475 47.3531C21.5475 47.7095 21.6854 48.0433 21.9361 48.2947C22.1868 48.5461 22.5197 48.6844 22.8738 48.6844L36.0273 48.6858C36.3815 48.6858 36.7157 48.5474 36.9651 48.2961C37.2157 48.0447 37.355 47.7108 37.355 47.3557V42.8096C37.355 42.3175 37.8895 41.5873 38.6296 41.5873C39.3591 41.5873 39.9056 42.255 39.9056 42.8522C39.9056 43.194 39.9189 47.3637 39.9189 47.3637C39.9228 48.0952 40.517 48.6898 41.2452 48.6898L46.5918 48.6858C47.3226 48.6858 47.9181 48.0886 47.9181 47.3557V40.365C47.9181 39.6455 48.3028 38.2862 49.7604 38.2862C51.2181 38.2862 51.6041 39.6415 51.6041 40.3597V47.3517C51.6041 48.0859 52.1983 48.6831 52.9291 48.6831L58.2889 48.6858C58.6391 48.6858 58.9813 48.5434 59.228 48.2961C59.4747 48.0487 59.6166 47.7055 59.6166 47.3557V37.7049C59.6166 36.5239 60.2625 34.2881 62.7057 34.2881C64.9711 34.2881 65.7934 36.3137 65.7934 37.6757V47.3557C65.7934 48.0886 66.389 48.6858 67.1198 48.6858H72.4504C73.1826 48.6858 73.7768 48.0886 73.7768 47.3557V31.5163L73.8723 31.4391L84.2882 23.0652L90.2475 27.5275V47.3557C90.2475 48.0886 90.843 48.6858 91.5738 48.6858H96.8939C97.6247 48.6858 98.2202 48.0886 98.2202 47.3557V30.8433C98.2202 30.427 98.0199 30.028 97.687 29.7779L92.9015 26.1934V14.7804L92.9745 14.7059L102.933 4.57231V47.3557C102.933 48.0886 103.528 48.6858 104.259 48.6858H109.632C110.363 48.6858 110.959 48.0886 110.959 47.3557V19.5127H112.933L113.006 19.5818L119.795 26.0099V47.3557C119.795 48.0886 120.39 48.6858 121.121 48.6858H126.514C127.246 48.6858 127.842 48.0886 127.842 47.3557V40.8917L135.263 48.2522C135.513 48.4996 135.845 48.6365 136.195 48.6365H147.224C147.956 48.6365 148.551 48.0394 148.551 47.3065C148.551 46.5723 147.956 45.9765 147.224 45.9765Z" fill="url(#paint0_linear_39_130)"/>
<defs>
<linearGradient id="paint0_linear_39_130" x1="21.3976" y1="24.3447" x2="148.903" y2="24.3447" gradientUnits="userSpaceOnUse">
<stop stop-color="#54B6AE"/>
<stop offset="0.1" stop-color="#54B6AE"/>
<stop offset="0.3" stop-color="#3B98DA"/>
<stop offset="0.42" stop-color="#254A9A"/>
<stop offset="0.55" stop-color="#ED1443"/>
<stop offset="0.84" stop-color="#F25C19"/>
<stop offset="1" stop-color="#F25C19"/>
</linearGradient>
</defs>
</svg>
