<svg xmlns="http://www.w3.org/2000/svg" width="229.437" height="40.582" viewBox="0 0 229.437 40.582">
  <g id="Group_517" data-name="Group 517" transform="translate(-3716 90.224)">
    <path id="Path_617" data-name="Path 617" d="M71.414,17.764a6.784,6.784,0,0,0,3.748,1.122c2.575,0,4.156-1.453,4.156-3.569,0-1.938-.994-3.059-3.493-4.028-2.754-.969-4.411-2.4-4.411-4.742,0-2.524,2.065-4.36,5-4.36A6.382,6.382,0,0,1,79.828,3l-.459,1.02a5.492,5.492,0,0,0-3.034-.816c-2.78,0-3.723,1.785-3.723,3.136,0,1.912,1.1,2.881,3.569,3.85,2.83,1.147,4.334,2.422,4.334,5,0,2.5-1.785,4.742-5.456,4.742a7.506,7.506,0,0,1-4.1-1.173Z" transform="translate(3679.031 -91.363)" fill="#aad037"/>
    <path id="Path_618" data-name="Path 618" d="M97.561,16.694c0-1.53-.025-2.728-.1-3.9h1.173l.077,2.32h.051a4.885,4.885,0,0,1,4.512-2.6c3.162,0,5.278,2.6,5.278,6.2,0,4.36-2.6,6.6-5.558,6.6a4.626,4.626,0,0,1-4.156-2.269h-.051v7.037H97.561Zm1.224,3.518a4.026,4.026,0,0,0,.1.969,4.135,4.135,0,0,0,4.028,3.111c2.8,0,4.411-2.269,4.411-5.533,0-2.753-1.53-5.226-4.309-5.226a4.249,4.249,0,0,0-4.054,3.238,4.969,4.969,0,0,0-.179,1.045Z" transform="translate(3665.222 -96.743)" fill="#aad037"/>
    <path id="Path_619" data-name="Path 619" d="M126.171,18.784c0,3.9,2.116,5.456,4.666,5.456a7.114,7.114,0,0,0,3.391-.688l.306.943a8.066,8.066,0,0,1-3.85.791c-3.519,0-5.711-2.55-5.711-6.144,0-4.079,2.346-6.629,5.507-6.629,4,0,4.767,3.773,4.767,5.533a3.154,3.154,0,0,1-.051.739Zm7.8-.968c.025-1.709-.688-4.283-3.646-4.283-2.7,0-3.875,2.4-4.1,4.283Z" transform="translate(3650.887 -96.743)" fill="#aad037"/>
    <path id="Path_620" data-name="Path 620" d="M160.243,24.5a8.345,8.345,0,0,1-3.595.79c-3.519,0-5.865-2.575-5.865-6.246a6.155,6.155,0,0,1,6.3-6.527,6.266,6.266,0,0,1,3.213.764l-.434.994a5.744,5.744,0,0,0-2.881-.714c-3.289,0-4.972,2.524-4.972,5.379,0,3.213,2.015,5.3,4.844,5.3a6.8,6.8,0,0,0,3.06-.714Z" transform="translate(3637.439 -96.743)" fill="#aad037"/>
    <path id="Path_621" data-name="Path 621" d="M177.815,4.641a1,1,0,0,1-1.02,1.045.982.982,0,0,1-.943-1.045,1.046,1.046,0,0,1,.994-1.071,1.01,1.01,0,0,1,.969,1.071m-1.581,3.493h1.224V20.372h-1.224Z" transform="translate(3624.378 -92.084)" fill="#aad037"/>
    <path id="Path_622" data-name="Path 622" d="M194.232,22.125a18.376,18.376,0,0,0,.179,2.906h-1.122l-.178-1.759h-.051a4.678,4.678,0,0,1-3.926,2.04,3.325,3.325,0,0,1-3.6-3.365c0-2.83,2.473-4.538,7.471-4.487v-.331c0-1.2-.23-3.62-3.136-3.595a5.342,5.342,0,0,0-3.086.918l-.382-.892A6.761,6.761,0,0,1,190,12.513c3.544,0,4.232,2.651,4.232,4.819Zm-1.223-3.646c-2.677-.076-6.2.331-6.2,3.263a2.339,2.339,0,0,0,2.448,2.55,3.659,3.659,0,0,0,3.62-2.448,2.041,2.041,0,0,0,.128-.739Z" transform="translate(3619.331 -96.743)" fill="#aad037"/>
    <rect id="Rectangle_1784" data-name="Rectangle 1784" width="1.224" height="18.102" transform="translate(3817.513 -89.814)" fill="#aad037"/>
    <path id="Path_623" data-name="Path 623" d="M224.382,4.641a1,1,0,0,1-1.02,1.045.982.982,0,0,1-.943-1.045,1.046,1.046,0,0,1,.994-1.071,1.01,1.01,0,0,1,.969,1.071M222.8,8.134h1.224V20.372H222.8Z" transform="translate(3600.115 -92.084)" fill="#aad037"/>
    <path id="Path_624" data-name="Path 624" d="M232.805,23.425a5.411,5.411,0,0,0,2.754.841c1.937,0,2.856-1.045,2.856-2.32,0-1.351-.816-2.065-2.575-2.779-2.014-.765-3.11-1.861-3.11-3.34,0-1.759,1.4-3.314,3.773-3.314a4.791,4.791,0,0,1,2.7.764l-.459.994a4.123,4.123,0,0,0-2.448-.739,2.137,2.137,0,0,0-2.371,2.116c0,1.275.867,1.836,2.524,2.524,1.989.765,3.161,1.759,3.161,3.62,0,2.091-1.631,3.493-4.13,3.493a6.006,6.006,0,0,1-3.11-.842Z" transform="translate(3594.929 -96.743)" fill="#aad037"/>
    <path id="Path_625" data-name="Path 625" d="M254.127,7.456v2.7h3.493v.994h-3.493v7.954c0,1.555.484,2.524,1.785,2.524a4.552,4.552,0,0,0,1.4-.179l.153.918a4.271,4.271,0,0,1-1.708.306,2.537,2.537,0,0,1-2.091-.867,4.468,4.468,0,0,1-.765-2.932V11.153h-2.065v-.994H252.9V7.915Z" transform="translate(3585.308 -94.108)" fill="#aad037"/>
    <path id="Path_626" data-name="Path 626" d="M9.856.631s-11.264,22.825,12.45,33.5c0,0,12.154,4,22.38,3.705,0,0,4.595-.3-4.3-5.928S6.151,9.969,9.856.631" transform="translate(3712.258 -90.552)" fill="#e9b136"/>
    <path id="Path_627" data-name="Path 627" d="M2.54,3.512s-10.785,22.323,12.45,33.5c0,0,12.154,4,22.381,3.705,0,0,4.594-.3-4.3-5.928S-1.165,12.85,2.54,3.512" transform="translate(3715.979 -92.053)" fill="#43814e"/>
    <path id="Path_628" data-name="Path 628" d="M.223,21.359c-1.046,7.612,1.217,19.278,14.858,25.07,0,0,11.461,3.6,21.067,3.6-4.094,0-9.343-5.257-17.62-10.908C5.888,30.49,1.606,24.681.223,21.359" transform="translate(3716 -101.352)" fill="#aad037"/>
    <path id="Path_629" data-name="Path 629" d="M7.688,32.281c.775,6.479,4.4,13.632,14.95,18.38a90.154,90.154,0,0,0,11.955,2.861C31.41,51.464,27.547,48.23,22.6,44.854c-7.6-5.186-12.17-9.352-14.914-12.573" transform="translate(3711.994 -107.043)" fill="#a0af36"/>
    <path id="Path_630" data-name="Path 630" d="M.177,12.672c.023-.205.046-.409.074-.609a20.274,20.274,0,0,0,3.391,5.188,26.432,26.432,0,0,1,.119-6.879C2.3,7.88,1.745,5.534,2.547,3.515a29.723,29.723,0,0,0-2.37,9.157" transform="translate(3715.908 -92.055)" fill="#5cba44"/>
    <path id="Path_631" data-name="Path 631" d="M73.9,81.2h0" transform="translate(3677.569 -132.529)" fill="#5cba44"/>
    <path id="Path_632" data-name="Path 632" d="M71.476,77.372a61.136,61.136,0,0,1-7.894-.833c2.12,1.371,3.938,2.219,5.572,2.238.421,0,.842,0,1.259-.013,0,0,1.637-.107,1.063-1.391" transform="translate(3682.873 -130.102)" fill="#5cba44"/>
    <path id="Path_633" data-name="Path 633" d="M281.267,18.681V0h1.247l7.262,11.031a61.665,61.665,0,0,1,3.521,5.876l.055-.028c-.194-2.522-.222-4.656-.222-7.594V0H294.4V18.681h-1.22L286.062,7.816c-1.386-2.162-2.661-4.13-3.631-6.042l-.055.027c.138,2.3.166,4.324.166,7.429v9.451Z" transform="translate(3569.454 -90.224)" fill="#fff"/>
    <path id="Path_634" data-name="Path 634" d="M328.266,21.286c0,1.164.028,2.217.111,3.243h-1.248l-.083-2.383h-.056a5.113,5.113,0,0,1-4.546,2.689c-1.69,0-4.545-.859-4.545-5.876V11.225h1.33v7.484c0,2.883.887,4.961,3.52,4.961a4.4,4.4,0,0,0,3.935-2.689,4.774,4.774,0,0,0,.25-1.469V11.225h1.331Z" transform="translate(3550.368 -96.072)" fill="#fff"/>
    <path id="Path_635" data-name="Path 635" d="M348.791,5.092V8.03h3.8V9.111h-3.8v8.648c0,1.691.526,2.744,1.94,2.744a4.936,4.936,0,0,0,1.524-.194l.167,1a4.627,4.627,0,0,1-1.857.333,2.76,2.76,0,0,1-2.273-.942,4.86,4.86,0,0,1-.832-3.188v-8.4h-2.245V8.03h2.245V5.591Z" transform="translate(3536.136 -92.877)" fill="#fff"/>
    <path id="Path_636" data-name="Path 636" d="M366.565,14.886c0-1.331-.028-2.689-.111-3.991h1.219l.055,2.689h.084a4.133,4.133,0,0,1,3.769-2.994,3.464,3.464,0,0,1,.555.055V11.92a2.293,2.293,0,0,0-.638-.055c-1.83,0-3.132,1.58-3.492,3.714a6.221,6.221,0,0,0-.111,1.275V24.2h-1.331Z" transform="translate(3525.071 -95.741)" fill="#fff"/>
    <path id="Path_637" data-name="Path 637" d="M385.486,2.032a1.084,1.084,0,0,1-1.108,1.137,1.068,1.068,0,0,1-1.025-1.137A1.138,1.138,0,0,1,384.433.868a1.1,1.1,0,0,1,1.053,1.164m-1.718,3.8H385.1v13.3h-1.331Z" transform="translate(3516.266 -90.676)" fill="#fff"/>
    <path id="Path_638" data-name="Path 638" d="M396.246,5.092V8.03h3.8V9.111h-3.8v8.648c0,1.691.527,2.744,1.94,2.744a4.943,4.943,0,0,0,1.525-.194l.166,1a4.626,4.626,0,0,1-1.857.333,2.76,2.76,0,0,1-2.272-.942,4.86,4.86,0,0,1-.832-3.188v-8.4h-2.244V8.03h2.244V5.591Z" transform="translate(3511.411 -92.877)" fill="#fff"/>
    <path id="Path_639" data-name="Path 639" d="M415.462,2.032a1.084,1.084,0,0,1-1.108,1.137,1.068,1.068,0,0,1-1.026-1.137A1.137,1.137,0,0,1,414.409.868a1.1,1.1,0,0,1,1.053,1.164m-1.718,3.8h1.331v13.3h-1.331Z" transform="translate(3500.648 -90.676)" fill="#fff"/>
    <path id="Path_640" data-name="Path 640" d="M436.449,17.408c0,4.961-3.409,7.1-6.375,7.1-3.437,0-6.1-2.689-6.1-6.846,0-4.546,2.994-7.068,6.292-7.068,3.686,0,6.181,2.772,6.181,6.819m-11.143.166c0,3.326,2.134,5.821,4.851,5.821,2.771,0,4.961-2.495,4.961-5.9,0-2.439-1.358-5.793-4.878-5.793-3.409,0-4.934,3.021-4.934,5.876" transform="translate(3495.1 -95.741)" fill="#fff"/>
    <path id="Path_641" data-name="Path 641" d="M456.96,14.082c0-1.22-.028-2.134-.111-3.188H458.1l.084,2.411h.055a5.025,5.025,0,0,1,4.573-2.716c1.276,0,4.657.637,4.657,5.627V24.2h-1.33V16.327c0-2.411-.943-4.6-3.686-4.6a4.276,4.276,0,0,0-3.991,3.049,5.121,5.121,0,0,0-.166,1.192V24.2H456.96Z" transform="translate(3477.973 -95.741)" fill="#fff"/>
    <path id="Path_642" data-name="Path 642" d="M106.907,61.6h-.065l-.762,1.512-2.158,3.929-2.158-3.929L101,61.6h-.065v7.6h-1.06v-9.02h1.447l2.585,4.859h.064l2.6-4.859h1.4v9.02h-1.06Z" transform="translate(3663.962 -121.576)" fill="#fff"/>
    <path id="Path_643" data-name="Path 643" d="M123.554,71.739a3.013,3.013,0,0,1-1.228-.246,2.643,2.643,0,0,1-.949-.7,3.314,3.314,0,0,1-.614-1.1,4.811,4.811,0,0,1,0-2.875,3.309,3.309,0,0,1,.614-1.1,2.648,2.648,0,0,1,.949-.7,3,3,0,0,1,1.228-.246,2.963,2.963,0,0,1,1.221.246,2.735,2.735,0,0,1,.95.7,3.263,3.263,0,0,1,.62,1.1,4.821,4.821,0,0,1,0,2.875,3.267,3.267,0,0,1-.62,1.1,2.73,2.73,0,0,1-.95.7,2.971,2.971,0,0,1-1.221.246m0-.918a1.879,1.879,0,0,0,1.37-.517,2.116,2.116,0,0,0,.529-1.577v-.956a2.115,2.115,0,0,0-.529-1.576,2.074,2.074,0,0,0-2.74,0,2.113,2.113,0,0,0-.53,1.576v.956a2.114,2.114,0,0,0,.53,1.577,1.878,1.878,0,0,0,1.37.517" transform="translate(3653.195 -123.965)" fill="#fff"/>
    <path id="Path_644" data-name="Path 644" d="M137.067,60.372a.631.631,0,0,1-.485-.161.6.6,0,0,1-.149-.42v-.168a.6.6,0,0,1,.149-.42.806.806,0,0,1,.969,0,.6.6,0,0,1,.149.42v.168a.6.6,0,0,1-.149.42.631.631,0,0,1-.484.161m-.517,1.564h1.034V68.6H136.55Z" transform="translate(3644.916 -120.985)" fill="#fff"/>
    <path id="Path_645" data-name="Path 645" d="M144.735,71.739a3.116,3.116,0,0,1-1.557-.355,3.534,3.534,0,0,1-1.079-.95l.737-.594a2.9,2.9,0,0,0,.866.756,2.257,2.257,0,0,0,1.111.264,1.644,1.644,0,0,0,1.027-.284,1.033,1.033,0,0,0,.117-1.467,1.538,1.538,0,0,0-.911-.381l-.53-.078a4.406,4.406,0,0,1-.853-.2,2.365,2.365,0,0,1-.679-.362,1.556,1.556,0,0,1-.453-.562,1.833,1.833,0,0,1-.161-.8,1.932,1.932,0,0,1,.181-.859,1.731,1.731,0,0,1,.5-.614,2.173,2.173,0,0,1,.756-.368,3.487,3.487,0,0,1,.943-.123,2.942,2.942,0,0,1,1.364.285,3.06,3.06,0,0,1,.963.788l-.685.62a2.048,2.048,0,0,0-.646-.562,2.078,2.078,0,0,0-1.072-.252,1.479,1.479,0,0,0-.976.278.937.937,0,0,0-.33.756.791.791,0,0,0,.33.711,2.457,2.457,0,0,0,.95.323l.517.077a2.768,2.768,0,0,1,1.576.64,1.681,1.681,0,0,1,.466,1.234,1.889,1.889,0,0,1-.659,1.525,2.721,2.721,0,0,1-1.809.556" transform="translate(3641.964 -123.965)" fill="#fff"/>
    <path id="Path_646" data-name="Path 646" d="M157.058,69.743a1.06,1.06,0,0,1-.82-.3,1.127,1.127,0,0,1-.278-.793V63.992h-1.1v-.917h.62a.609.609,0,0,0,.458-.136.7.7,0,0,0,.123-.472V61.227h.93v1.848h1.46v.917h-1.46v4.833h1.357v.918Z" transform="translate(3635.315 -122.124)" fill="#fff"/>
    <path id="Path_647" data-name="Path 647" d="M172.424,69.195v-9.02H177.8v.956H173.51v3.024h3.916v.957H173.51v4.083Z" transform="translate(3626.163 -121.576)" fill="#fff"/>
    <path id="Path_648" data-name="Path 648" d="M188.589,71.739a2.987,2.987,0,0,1-1.234-.246,2.65,2.65,0,0,1-.944-.7,3.221,3.221,0,0,1-.607-1.1,4.955,4.955,0,0,1,0-2.875,3.217,3.217,0,0,1,.607-1.1,2.661,2.661,0,0,1,.944-.7,2.987,2.987,0,0,1,1.234-.246,2.833,2.833,0,0,1,1.2.245,2.667,2.667,0,0,1,.9.676,3.026,3.026,0,0,1,.575,1.024,4.048,4.048,0,0,1,.2,1.3v.49h-4.794v.31a2.291,2.291,0,0,0,.136.795,1.893,1.893,0,0,0,.388.639,1.767,1.767,0,0,0,.62.427,2.137,2.137,0,0,0,.833.155,2.03,2.03,0,0,0,1.105-.3,1.952,1.952,0,0,0,.73-.853l.736.534a2.571,2.571,0,0,1-1.007,1.112,3.042,3.042,0,0,1-1.628.422m0-6.112a1.963,1.963,0,0,0-.775.148,1.735,1.735,0,0,0-.6.417,1.966,1.966,0,0,0-.394.636,2.2,2.2,0,0,0-.142.8v.09h3.683v-.142a2.026,2.026,0,0,0-.485-1.419,1.653,1.653,0,0,0-1.286-.533" transform="translate(3619.303 -123.965)" fill="#fff"/>
    <path id="Path_649" data-name="Path 649" d="M203.4,71.739a2.987,2.987,0,0,1-1.234-.246,2.65,2.65,0,0,1-.944-.7,3.221,3.221,0,0,1-.607-1.1,4.956,4.956,0,0,1,0-2.875,3.218,3.218,0,0,1,.607-1.1,2.661,2.661,0,0,1,.944-.7,2.987,2.987,0,0,1,1.234-.246,2.832,2.832,0,0,1,1.2.245,2.667,2.667,0,0,1,.9.676,3.027,3.027,0,0,1,.575,1.024,4.047,4.047,0,0,1,.2,1.3v.49h-4.794v.31a2.292,2.292,0,0,0,.136.795,1.893,1.893,0,0,0,.388.639,1.766,1.766,0,0,0,.62.427,2.137,2.137,0,0,0,.833.155,2.03,2.03,0,0,0,1.105-.3,1.951,1.951,0,0,0,.73-.853l.736.534a2.571,2.571,0,0,1-1.007,1.112,3.042,3.042,0,0,1-1.629.422m0-6.112a1.963,1.963,0,0,0-.775.148,1.735,1.735,0,0,0-.6.417,1.965,1.965,0,0,0-.394.636,2.2,2.2,0,0,0-.142.8v.09h3.683v-.142a2.026,2.026,0,0,0-.485-1.419,1.653,1.653,0,0,0-1.286-.533" transform="translate(3611.586 -123.965)" fill="#fff"/>
    <path id="Path_650" data-name="Path 650" d="M220.011,67.53h-.052a2.035,2.035,0,0,1-1.951,1.229,2.539,2.539,0,0,1-1.124-.246,2.441,2.441,0,0,1-.859-.7,3.188,3.188,0,0,1-.543-1.1,5.686,5.686,0,0,1,0-2.894,3.2,3.2,0,0,1,.543-1.1,2.445,2.445,0,0,1,.859-.7,2.532,2.532,0,0,1,1.124-.246,2.272,2.272,0,0,1,1.2.3,1.876,1.876,0,0,1,.756.927h.052V59.041h1.034V68.6h-1.034Zm-1.719.311a2.41,2.41,0,0,0,.665-.091,1.682,1.682,0,0,0,.549-.266,1.3,1.3,0,0,0,.368-.429,1.2,1.2,0,0,0,.136-.578V63.984a1.025,1.025,0,0,0-.136-.513,1.276,1.276,0,0,0-.368-.409,1.862,1.862,0,0,0-.549-.266,2.26,2.26,0,0,0-.665-.1,1.779,1.779,0,0,0-1.383.552,2.065,2.065,0,0,0-.5,1.448v1.143a2.065,2.065,0,0,0,.5,1.448,1.779,1.779,0,0,0,1.383.552" transform="translate(3603.828 -120.985)" fill="#fff"/>
    <path id="Path_651" data-name="Path 651" d="M243.29,67.966q-.142.168-.362.381a2.672,2.672,0,0,1-.536.394,3.553,3.553,0,0,1-.75.31,3.409,3.409,0,0,1-.976.129,3.368,3.368,0,0,1-1.188-.194,2.427,2.427,0,0,1-.866-.536,2.308,2.308,0,0,1-.53-.8,2.588,2.588,0,0,1-.181-.97,2.309,2.309,0,0,1,.575-1.584,3.333,3.333,0,0,1,.594-.537,7.514,7.514,0,0,1,.678-.427,4.822,4.822,0,0,1-.743-1,2.3,2.3,0,0,1-.278-1.117,2.177,2.177,0,0,1,.168-.852,2.024,2.024,0,0,1,.472-.691,2.194,2.194,0,0,1,.736-.458,2.641,2.641,0,0,1,.963-.168,2.612,2.612,0,0,1,.879.142,2.059,2.059,0,0,1,.684.394,1.775,1.775,0,0,1,.446.614,1.908,1.908,0,0,1,.161.787,1.928,1.928,0,0,1-.161.808,2.341,2.341,0,0,1-.446.652,3.981,3.981,0,0,1-.659.549q-.375.251-.8.484l2.029,2.176a5.609,5.609,0,0,0,.3-1.042,8.115,8.115,0,0,0,.129-1.132h1.757v.879h-.917a7.537,7.537,0,0,1-.246,1.063,5.712,5.712,0,0,1-.375.922l1.757,1.879h-1.344Zm-2.533.3a2.43,2.43,0,0,0,1.137-.249,2.532,2.532,0,0,0,.814-.672l-2.417-2.606c-.172.095-.338.194-.5.3a1.9,1.9,0,0,0-.42.367,1.736,1.736,0,0,0-.291.489,1.756,1.756,0,0,0-.11.65v.194a1.394,1.394,0,0,0,.484,1.12,1.941,1.941,0,0,0,1.3.411m.258-7.546a1.246,1.246,0,0,0-.911.348,1.161,1.161,0,0,0-.355.864v.155a1.488,1.488,0,0,0,.24.78,5.872,5.872,0,0,0,.627.832q.31-.167.6-.354a3.365,3.365,0,0,0,.517-.407,2.266,2.266,0,0,0,.368-.458.983.983,0,0,0,.142-.509v-.155a.965.965,0,0,0-.368-.812,1.372,1.372,0,0,0-.86-.284" transform="translate(3592.049 -121.407)" fill="#fff"/>
    <path id="Path_652" data-name="Path 652" d="M263.558,69.195v-9.02h5.376v.956h-4.291v3.024h3.916v.957h-3.916v4.083Z" transform="translate(3578.681 -121.576)" fill="#fff"/>
    <path id="Path_653" data-name="Path 653" d="M279.735,71.739a3.012,3.012,0,0,1-1.228-.246,2.643,2.643,0,0,1-.949-.7,3.315,3.315,0,0,1-.614-1.1,4.811,4.811,0,0,1,0-2.875,3.31,3.31,0,0,1,.614-1.1,2.649,2.649,0,0,1,.949-.7,3,3,0,0,1,1.228-.246,2.963,2.963,0,0,1,1.221.246,2.735,2.735,0,0,1,.95.7,3.263,3.263,0,0,1,.62,1.1,4.82,4.82,0,0,1,0,2.875,3.268,3.268,0,0,1-.62,1.1,2.73,2.73,0,0,1-.95.7,2.971,2.971,0,0,1-1.221.246m0-.918a1.879,1.879,0,0,0,1.37-.517,2.116,2.116,0,0,0,.529-1.577v-.956a2.115,2.115,0,0,0-.529-1.576,2.074,2.074,0,0,0-2.74,0,2.113,2.113,0,0,0-.53,1.576v.956a2.114,2.114,0,0,0,.53,1.577,1.878,1.878,0,0,0,1.37.517" transform="translate(3571.822 -123.965)" fill="#fff"/>
    <path id="Path_654" data-name="Path 654" d="M292.858,71.753V65.085h1.034v1.228h.065a2.012,2.012,0,0,1,.646-.853,1.986,1.986,0,0,1,1.279-.375h.4v1.034h-.607a2.336,2.336,0,0,0-1.311.317.935.935,0,0,0-.472.795v4.523Z" transform="translate(3563.416 -124.134)" fill="#fff"/>
    <path id="Path_655" data-name="Path 655" d="M306.921,71.584a1.013,1.013,0,0,1-.833-.31,1.53,1.53,0,0,1-.317-.775h-.065a1.723,1.723,0,0,1-.724.93,2.245,2.245,0,0,1-1.2.31,2.339,2.339,0,0,1-1.647-.543,1.907,1.907,0,0,1-.588-1.473,1.682,1.682,0,0,1,.692-1.447,3.678,3.678,0,0,1,2.152-.5h1.318v-.659a1.442,1.442,0,0,0-.387-1.085,1.654,1.654,0,0,0-1.189-.375,1.79,1.79,0,0,0-1.014.272,2.234,2.234,0,0,0-.678.724l-.62-.581a2.35,2.35,0,0,1,.866-.924,2.727,2.727,0,0,1,1.5-.381,2.757,2.757,0,0,1,1.887.593A2.086,2.086,0,0,1,306.74,67v3.662h.763v.918Zm-2.972-.724a2.632,2.632,0,0,0,.711-.091,1.751,1.751,0,0,0,.556-.259,1.281,1.281,0,0,0,.362-.387.929.929,0,0,0,.129-.478v-1.1h-1.369a2.5,2.5,0,0,0-1.3.259.833.833,0,0,0-.407.749v.272a.9.9,0,0,0,.355.763,1.55,1.55,0,0,0,.963.271" transform="translate(3558.889 -123.965)" fill="#fff"/>
    <path id="Path_656" data-name="Path 656" d="M322.089,71.5a1.635,1.635,0,0,1-.808,1.513,4.82,4.82,0,0,1-2.423.483,4.447,4.447,0,0,1-2.248-.426,1.351,1.351,0,0,1-.684-1.214,1.184,1.184,0,0,1,.285-.845,1.661,1.661,0,0,1,.775-.445v-.142a.959.959,0,0,1-.595-.926.932.932,0,0,1,.323-.765,2.114,2.114,0,0,1,.827-.392v-.052a2.157,2.157,0,0,1-.924-.817,2.289,2.289,0,0,1-.329-1.231,2.362,2.362,0,0,1,.181-.933,2.081,2.081,0,0,1,.511-.732,2.309,2.309,0,0,1,.788-.473,3.223,3.223,0,0,1,2.294.09v-.116a1.1,1.1,0,0,1,.18-.648.679.679,0,0,1,.595-.257h.995v.918h-1.266v.427a2.175,2.175,0,0,1,.562.745,2.31,2.31,0,0,1,.2.979,2.359,2.359,0,0,1-.181.933,2.09,2.09,0,0,1-.511.732,2.3,2.3,0,0,1-.795.473,3.023,3.023,0,0,1-1.034.169,3.25,3.25,0,0,1-.646-.065,2.166,2.166,0,0,0-.607.265.548.548,0,0,0-.271.485.393.393,0,0,0,.284.4,2.187,2.187,0,0,0,.736.1h1.422a2.8,2.8,0,0,1,1.8.47,1.6,1.6,0,0,1,.562,1.294m-.969.071a.772.772,0,0,0-.3-.64,1.8,1.8,0,0,0-1.079-.239h-2.223a.944.944,0,0,0-.62.9.991.991,0,0,0,.33.75,1.615,1.615,0,0,0,1.118.31h.956a2.744,2.744,0,0,0,1.344-.272.879.879,0,0,0,.478-.814m-2.313-3.851a1.6,1.6,0,0,0,1.048-.318,1.2,1.2,0,0,0,.386-.98v-.364a1.2,1.2,0,0,0-.386-.98,1.886,1.886,0,0,0-2.095,0,1.2,1.2,0,0,0-.387.98v.364a1.2,1.2,0,0,0,.387.98,1.6,1.6,0,0,0,1.047.318" transform="translate(3551.396 -123.136)" fill="#fff"/>
    <path id="Path_657" data-name="Path 657" d="M333.114,71.739a2.987,2.987,0,0,1-1.234-.246,2.651,2.651,0,0,1-.944-.7,3.221,3.221,0,0,1-.607-1.1,4.954,4.954,0,0,1,0-2.875,3.218,3.218,0,0,1,.607-1.1,2.662,2.662,0,0,1,.944-.7,2.987,2.987,0,0,1,1.234-.246,2.833,2.833,0,0,1,1.2.245,2.666,2.666,0,0,1,.9.676,3.026,3.026,0,0,1,.575,1.024,4.048,4.048,0,0,1,.2,1.3v.49H331.2v.31a2.292,2.292,0,0,0,.136.795,1.893,1.893,0,0,0,.388.639,1.766,1.766,0,0,0,.62.427,2.137,2.137,0,0,0,.833.155,2.025,2.025,0,0,0,1.1-.3,1.953,1.953,0,0,0,.731-.853l.736.534a2.57,2.57,0,0,1-1.007,1.112,3.042,3.042,0,0,1-1.628.422m0-6.112a1.962,1.962,0,0,0-.775.148,1.735,1.735,0,0,0-.6.417,1.974,1.974,0,0,0-.395.636,2.2,2.2,0,0,0-.142.8v.09h3.683v-.142a2.026,2.026,0,0,0-.485-1.419,1.653,1.653,0,0,0-1.286-.533" transform="translate(3544.003 -123.965)" fill="#fff"/>
    <path id="Path_658" data-name="Path 658" d="M354.35,69.181a3.881,3.881,0,0,1-1.873-.42,3.975,3.975,0,0,1-1.319-1.156l.8-.672a3.516,3.516,0,0,0,1.059.963,2.737,2.737,0,0,0,1.37.33,2.125,2.125,0,0,0,1.48-.466,1.6,1.6,0,0,0,.51-1.241,1.27,1.27,0,0,0-.387-.995,2.919,2.919,0,0,0-1.279-.556l-.737-.168a4.274,4.274,0,0,1-1.893-.859,2.046,2.046,0,0,1-.653-1.622,2.451,2.451,0,0,1,.22-1.059,2.122,2.122,0,0,1,.614-.775,2.755,2.755,0,0,1,.943-.471,4.265,4.265,0,0,1,1.208-.162,3.8,3.8,0,0,1,1.751.375,3.378,3.378,0,0,1,1.234,1.1l-.815.594a2.807,2.807,0,0,0-.9-.814,2.67,2.67,0,0,0-1.319-.3,2.249,2.249,0,0,0-1.363.368,1.288,1.288,0,0,0-.5,1.105,1.163,1.163,0,0,0,.42.976,3.245,3.245,0,0,0,1.273.524l.736.168a3.829,3.829,0,0,1,1.926.9,2.208,2.208,0,0,1,.594,1.615,2.854,2.854,0,0,1-.213,1.124,2.309,2.309,0,0,1-.614.853,2.848,2.848,0,0,1-.976.543,4.055,4.055,0,0,1-1.3.194" transform="translate(3533.04 -121.407)" fill="#fff"/>
    <path id="Path_659" data-name="Path 659" d="M367.992,64.916h1.034v1.073h.051a1.874,1.874,0,0,1,.756-.927,2.27,2.27,0,0,1,1.2-.3,2.532,2.532,0,0,1,1.124.246,2.443,2.443,0,0,1,.859.7,3.2,3.2,0,0,1,.543,1.1,5.684,5.684,0,0,1,0,2.894,3.2,3.2,0,0,1-.543,1.1,2.439,2.439,0,0,1-.859.7,2.539,2.539,0,0,1-1.124.246,2.02,2.02,0,0,1-1.952-1.229h-.051v3.658h-1.034Zm2.753,5.905a1.78,1.78,0,0,0,1.383-.552,2.065,2.065,0,0,0,.5-1.448V67.678a2.065,2.065,0,0,0-.5-1.448,1.78,1.78,0,0,0-1.383-.552,2.261,2.261,0,0,0-.665.1,1.86,1.86,0,0,0-.549.266,1.274,1.274,0,0,0-.368.409,1.025,1.025,0,0,0-.136.513v2.494a1.2,1.2,0,0,0,.136.578,1.3,1.3,0,0,0,.368.429,1.68,1.68,0,0,0,.549.266,2.41,2.41,0,0,0,.665.091" transform="translate(3524.269 -123.965)" fill="#fff"/>
    <path id="Path_660" data-name="Path 660" d="M385.614,71.739a2.986,2.986,0,0,1-1.234-.246,2.65,2.65,0,0,1-.944-.7,3.22,3.22,0,0,1-.607-1.1,4.955,4.955,0,0,1,0-2.875,3.217,3.217,0,0,1,.607-1.1,2.661,2.661,0,0,1,.944-.7,2.986,2.986,0,0,1,1.234-.246,2.833,2.833,0,0,1,1.2.245,2.667,2.667,0,0,1,.9.676,3.027,3.027,0,0,1,.575,1.024,4.048,4.048,0,0,1,.2,1.3v.49H383.7v.31a2.292,2.292,0,0,0,.136.795,1.9,1.9,0,0,0,.388.639,1.767,1.767,0,0,0,.62.427,2.136,2.136,0,0,0,.833.155,2.029,2.029,0,0,0,1.1-.3,1.951,1.951,0,0,0,.73-.853l.736.534a2.571,2.571,0,0,1-1.007,1.112,3.042,3.042,0,0,1-1.629.422m0-6.112a1.963,1.963,0,0,0-.775.148,1.734,1.734,0,0,0-.6.417,1.966,1.966,0,0,0-.394.636,2.2,2.2,0,0,0-.142.8v.09h3.683v-.142a2.026,2.026,0,0,0-.485-1.419,1.653,1.653,0,0,0-1.285-.533" transform="translate(3516.65 -123.965)" fill="#fff"/>
    <path id="Path_661" data-name="Path 661" d="M400.4,71.739a3.067,3.067,0,0,1-1.254-.246,2.553,2.553,0,0,1-.937-.7,3.1,3.1,0,0,1-.581-1.1,5.319,5.319,0,0,1,0-2.894,3.1,3.1,0,0,1,.581-1.1,2.555,2.555,0,0,1,.937-.7,3.066,3.066,0,0,1,1.254-.246,2.676,2.676,0,0,1,1.6.433,2.642,2.642,0,0,1,.9,1.131l-.866.439a1.57,1.57,0,0,0-.594-.8,1.784,1.784,0,0,0-1.034-.284,2.06,2.06,0,0,0-.814.148,1.592,1.592,0,0,0-.582.413,1.735,1.735,0,0,0-.349.633,2.67,2.67,0,0,0-.116.808v1.138a2.163,2.163,0,0,0,.472,1.441,1.709,1.709,0,0,0,1.389.562,1.875,1.875,0,0,0,1.809-1.163l.749.5a2.645,2.645,0,0,1-.962,1.15,2.819,2.819,0,0,1-1.6.426" transform="translate(3508.933 -123.965)" fill="#fff"/>
    <path id="Path_662" data-name="Path 662" d="M412.413,60.372a.63.63,0,0,1-.485-.161.6.6,0,0,1-.149-.42v-.168a.6.6,0,0,1,.149-.42.806.806,0,0,1,.969,0,.6.6,0,0,1,.149.42v.168a.6.6,0,0,1-.149.42.631.631,0,0,1-.484.161m-.517,1.564h1.034V68.6H411.9Z" transform="translate(3501.456 -120.985)" fill="#fff"/>
    <path id="Path_663" data-name="Path 663" d="M423.037,71.584a1.013,1.013,0,0,1-.833-.31,1.532,1.532,0,0,1-.317-.775h-.065a1.723,1.723,0,0,1-.724.93,2.245,2.245,0,0,1-1.2.31,2.339,2.339,0,0,1-1.647-.543,1.907,1.907,0,0,1-.588-1.473,1.682,1.682,0,0,1,.692-1.447,3.679,3.679,0,0,1,2.152-.5h1.318v-.659a1.442,1.442,0,0,0-.387-1.085,1.654,1.654,0,0,0-1.189-.375,1.79,1.79,0,0,0-1.014.272,2.235,2.235,0,0,0-.678.724l-.62-.581a2.349,2.349,0,0,1,.866-.924,2.726,2.726,0,0,1,1.5-.381,2.758,2.758,0,0,1,1.887.593A2.086,2.086,0,0,1,422.856,67v3.662h.762v.918Zm-2.972-.724a2.632,2.632,0,0,0,.711-.091,1.75,1.75,0,0,0,.556-.259,1.279,1.279,0,0,0,.362-.387.928.928,0,0,0,.129-.478v-1.1h-1.369a2.5,2.5,0,0,0-1.3.259.832.832,0,0,0-.407.749v.272a.9.9,0,0,0,.355.763,1.55,1.55,0,0,0,.963.271" transform="translate(3498.391 -123.965)" fill="#fff"/>
    <path id="Path_664" data-name="Path 664" d="M434.272,68.6a1.059,1.059,0,0,1-.821-.3,1.1,1.1,0,0,1-.277-.769v-8.49h1.034v8.645h.982V68.6Z" transform="translate(3490.308 -120.985)" fill="#fff"/>
    <path id="Path_665" data-name="Path 665" d="M440.9,60.372a.63.63,0,0,1-.485-.161.6.6,0,0,1-.149-.42v-.168a.6.6,0,0,1,.149-.42.806.806,0,0,1,.969,0,.6.6,0,0,1,.149.42v.168a.6.6,0,0,1-.149.42.631.631,0,0,1-.484.161m-.517,1.564h1.034V68.6h-1.034Z" transform="translate(3486.612 -120.985)" fill="#fff"/>
    <path id="Path_666" data-name="Path 666" d="M448.57,71.739a3.116,3.116,0,0,1-1.557-.355,3.534,3.534,0,0,1-1.079-.95l.737-.594a2.9,2.9,0,0,0,.866.756,2.258,2.258,0,0,0,1.111.264,1.643,1.643,0,0,0,1.027-.284,1.033,1.033,0,0,0,.117-1.467,1.538,1.538,0,0,0-.911-.381l-.53-.078a4.418,4.418,0,0,1-.853-.2,2.369,2.369,0,0,1-.678-.362,1.556,1.556,0,0,1-.453-.562,1.833,1.833,0,0,1-.161-.8,1.933,1.933,0,0,1,.181-.859,1.731,1.731,0,0,1,.5-.614,2.174,2.174,0,0,1,.756-.368,3.488,3.488,0,0,1,.943-.123,2.942,2.942,0,0,1,1.364.285,3.06,3.06,0,0,1,.963.788l-.685.62a2.048,2.048,0,0,0-.646-.562,2.078,2.078,0,0,0-1.072-.252,1.479,1.479,0,0,0-.976.278.937.937,0,0,0-.329.756.791.791,0,0,0,.329.711,2.457,2.457,0,0,0,.949.323l.517.077a2.767,2.767,0,0,1,1.576.64,1.681,1.681,0,0,1,.466,1.234,1.889,1.889,0,0,1-.659,1.525,2.721,2.721,0,0,1-1.809.556" transform="translate(3483.66 -123.965)" fill="#fff"/>
    <path id="Path_667" data-name="Path 667" d="M460.893,69.743a1.06,1.06,0,0,1-.82-.3,1.127,1.127,0,0,1-.278-.793V63.992h-1.1v-.917h.62a.609.609,0,0,0,.458-.136.7.7,0,0,0,.123-.472V61.227h.93v1.848h1.46v.917h-1.46v4.833h1.357v.918Z" transform="translate(3477.01 -122.124)" fill="#fff"/>
    <path id="Path_668" data-name="Path 668" d="M470.99,71.739a3.116,3.116,0,0,1-1.557-.355,3.533,3.533,0,0,1-1.079-.95l.737-.594a2.9,2.9,0,0,0,.866.756,2.257,2.257,0,0,0,1.111.264,1.644,1.644,0,0,0,1.027-.284,1.032,1.032,0,0,0,.117-1.467,1.538,1.538,0,0,0-.911-.381l-.53-.078a4.4,4.4,0,0,1-.853-.2,2.366,2.366,0,0,1-.679-.362,1.556,1.556,0,0,1-.453-.562,1.833,1.833,0,0,1-.161-.8,1.933,1.933,0,0,1,.181-.859,1.732,1.732,0,0,1,.5-.614,2.173,2.173,0,0,1,.756-.368,3.487,3.487,0,0,1,.943-.123,2.942,2.942,0,0,1,1.364.285,3.061,3.061,0,0,1,.963.788l-.685.62a2.05,2.05,0,0,0-.646-.562,2.079,2.079,0,0,0-1.072-.252,1.479,1.479,0,0,0-.976.278.937.937,0,0,0-.33.756.791.791,0,0,0,.33.711,2.457,2.457,0,0,0,.95.323l.517.077a2.768,2.768,0,0,1,1.576.64,1.681,1.681,0,0,1,.466,1.234,1.889,1.889,0,0,1-.659,1.525,2.721,2.721,0,0,1-1.809.556" transform="translate(3471.979 -123.965)" fill="#fff"/>
  </g>
</svg>
