<?xml version="1.0" encoding="UTF-8"?>
<!DOCTYPE svg PUBLIC "-//W3C//DTD SVG 1.1//EN" "http://www.w3.org/Graphics/SVG/1.1/DTD/svg11.dtd">
<!-- Creator: CorelDRAW X7 -->
<svg xmlns="http://www.w3.org/2000/svg" xml:space="preserve" width="29.3653mm" height="29.3654mm" version="1.1" style="shape-rendering:geometricPrecision; text-rendering:geometricPrecision; image-rendering:optimizeQuality; fill-rule:evenodd; clip-rule:evenodd"
viewBox="0 0 651 651"
 xmlns:xlink="http://www.w3.org/1999/xlink">
 <defs>
  <style type="text/css">
   <![CDATA[
    .fil5 {fill:#1A72E8}
    .fil1 {fill:#34A753}
    .fil3 {fill:#4184F3}
    .fil4 {fill:#E94335}
    .fil0 {fill:#F7F7F7}
    .fil2 {fill:#FABA04}
   ]]>
  </style>
 </defs>
 <g id="Warstwa_x0020_1">
  <metadata id="CorelCorpID_0Corel-Layer"/>
  <circle class="fil0" cx="325" cy="325" r="325"/>
  <g id="_1956486803216">
   <path class="fil1" d="M377 307c-3,2 -3,5 -9,11l-2 1c-1,3 -4,7 -6,9l-21 25c-5,6 -10,11 -15,17 -17,21 -38,45 -56,67l-15 17 20 27c15,24 22,35 31,62 4,10 7,28 16,31 17,4 20,-12 24,-23 4,-12 8,-23 13,-34 15,-32 36,-57 57,-83 40,-51 73,-91 73,-161 -1,-26 -8,-57 -19,-75 -1,3 -91,109 -91,109z"/>
   <path class="fil2" d="M180 350c2,4 5,10 7,14 3,5 6,10 8,14 7,9 12,18 19,26 6,9 13,17 20,25l19 25 15 -17c18,-22 39,-46 56,-67 5,-6 10,-11 15,-17l21 -25c2,-2 5,-6 6,-9 -1,1 -2,2 -4,3 -10,8 -22,12 -36,13 -16,0 -31,-7 -40,-15 -16,-14 -26,-35 -21,-58 1,-9 4,-13 7,-20 -2,1 0,0 -2,1l-39 46c-14,18 -33,40 -48,57 -1,2 -2,3 -3,4z"/>
   <path class="fil3" d="M283 228c3,-2 8,-7 17,-11 47,-21 96,20 85,69 -2,9 -5,14 -8,21 0,0 90,-106 91,-109 -6,-12 -17,-28 -27,-37 -12,-12 -17,-18 -36,-28 -5,-3 -24,-13 -30,-13 -3,0 -5,3 -6,5l-12 14c-2,2 -4,5 -6,7 -2,3 -4,4 -6,7l-45 54c-4,4 -15,18 -17,21z"/>
   <path class="fil4" d="M180 350c1,-1 2,-2 3,-4 15,-17 34,-39 48,-57l39 -46c2,-1 0,0 2,-1 0,-1 2,-3 3,-4 1,-2 2,-3 3,-5l-76 -63c-6,4 -19,27 -23,35 -6,14 -11,29 -13,45 -5,37 2,69 14,100z"/>
   <path class="fil5" d="M202 170l76 63 5 -5c2,-3 13,-17 17,-21l45 -54c2,-3 4,-4 6,-7 2,-2 4,-5 6,-7l12 -14c1,-2 3,-5 6,-5 -2,-3 -13,-4 -18,-5 -5,-1 -17,-2 -20,-3l-23 0c-3,1 -14,2 -19,2 -29,6 -49,17 -72,34 -4,3 -19,18 -21,22z"/>
  </g>
 </g>
</svg>
